<svg width="50" height="50" viewBox="0 0 50 50" fill="none" xmlns="http://www.w3.org/2000/svg">
<path fill-rule="evenodd" clip-rule="evenodd" d="M36.9084 25.1342C36.7991 22.5636 34.9285 21.2613 31.3436 21.2613C31.1556 21.2613 30.9626 21.2725 30.7604 21.2956C29.5058 19.3313 27.3292 18.125 25 18.125C22.6708 18.125 20.4936 19.3313 19.2397 21.2956C19.038 21.2725 18.8451 21.2613 18.6564 21.2613C15.0715 21.2613 13.2009 22.5636 13.0916 25.1342C13.079 25.1339 13.0664 25.1337 13.0537 25.1337C12.0591 25.1337 11.25 25.9487 11.25 26.9506C11.25 27.7281 11.7433 28.4025 12.4469 28.6556L12.8123 31.47C12.8452 31.7206 13.0574 31.9081 13.3087 31.9081H14.2977V32.3556C14.2977 32.4356 14.3616 32.5 14.4404 32.5H15.5293C15.6088 32.5 15.6727 32.4356 15.6727 32.3556V31.9081H34.4149V32.3556C34.4149 32.4356 34.4788 32.5 34.5576 32.5H35.6465C35.7253 32.5 35.7892 32.4356 35.7892 32.3556V31.9081H36.6919C36.9432 31.9081 37.1554 31.7206 37.1877 31.47L37.5538 28.6556C38.2574 28.4025 38.75 27.7281 38.75 26.9506C38.75 25.9487 37.9409 25.1337 36.9463 25.1337C36.9337 25.1337 36.921 25.1339 36.9084 25.1342ZM14.0867 25.466C14.1927 25.5418 14.2914 25.6297 14.3808 25.7287C14.4373 25.7675 14.4851 25.8162 14.5198 25.8744L16.0691 28.475C17.7854 28.3066 19.5726 28.1922 21.4111 28.1327C21.2006 26.4393 20.6269 23.7265 19.5524 22.3413C19.5068 22.3467 19.4601 22.3458 19.4134 22.3381C19.1391 22.2919 18.8916 22.2694 18.6564 22.2694C14.5608 22.2694 14.0867 24.0425 14.0867 25.3769V25.466ZM24.4335 28.0844C23.6093 28.0844 22.7928 28.0949 21.9857 28.1159C21.7671 26.2896 21.1638 23.4822 19.996 21.9784C21.052 20.22 22.957 19.1331 25 19.1331C27.0771 19.1331 29.0128 20.2573 30.0571 22.0687C28.937 23.5946 28.3451 26.376 28.1302 28.1504C26.8583 28.1062 25.63 28.0844 24.4335 28.0844ZM28.7039 28.1717C30.3615 28.2373 32.0943 28.3401 33.9272 28.4812L35.4802 25.8744C35.5193 25.8087 35.572 25.7544 35.6334 25.7131C35.7191 25.6206 35.8129 25.538 35.9133 25.4663V25.3769C35.9133 24.0425 35.4392 22.2694 31.3436 22.2694C31.1084 22.2694 30.8615 22.2919 30.5866 22.3381C30.5807 22.3391 30.5747 22.34 30.5688 22.3408C29.4965 23.7283 28.9138 26.4974 28.7039 28.1717ZM36.2526 30.9H13.748L13.3943 28.1825C13.3645 27.9544 13.1852 27.7756 12.9581 27.7475C12.5548 27.6987 12.2508 27.3562 12.2508 26.9506C12.2508 26.505 12.6113 26.1419 13.0537 26.1419C13.2938 26.1419 13.5209 26.2537 13.676 26.4487C13.6915 26.4675 13.7082 26.485 13.7262 26.5012L15.3742 29.2675C15.4735 29.4344 15.6608 29.5275 15.8538 29.5094C18.5559 29.2325 21.4423 29.0925 24.4335 29.0925C27.4123 29.0925 30.5934 29.2294 34.158 29.5106C34.3497 29.5231 34.5278 29.4306 34.6258 29.2675L36.2713 26.505C36.2905 26.4881 36.3079 26.4687 36.3234 26.4487C36.4791 26.2537 36.7062 26.1419 36.9463 26.1419C37.3893 26.1419 37.7492 26.505 37.7492 26.9506C37.7492 27.3562 37.4452 27.6987 37.0419 27.7475C36.8148 27.7756 36.6355 27.9544 36.6057 28.1825L36.2526 30.9Z" fill="black"/>
</svg>
