<svg width="50" height="50" viewBox="0 0 50 50" fill="none" xmlns="http://www.w3.org/2000/svg">
<path fill-rule="evenodd" clip-rule="evenodd" d="M22.3457 14.1589L22.4119 14.0458C23.1636 12.6364 24.9199 12.1046 26.3079 12.8115L26.4294 12.8771L26.452 12.8904C26.8575 13.1337 27.196 13.4542 27.4585 13.8428L27.5533 13.9917L27.584 14.0458C28.1833 15.1696 29.4743 15.7251 30.6919 15.4092L30.8908 15.3527L31.1128 15.2969L31.178 15.2781C32.6059 14.9017 34.0862 15.6473 34.642 16.9802L34.6914 17.1069L34.734 17.233C34.9135 17.7715 34.9298 18.3269 34.7829 18.8684L34.734 19.0304L34.7063 19.1135L34.6601 19.2054L34.6475 19.251C34.3551 20.378 34.8063 21.5812 35.7322 22.2219L35.8411 22.2933L35.9542 22.3595C37.3221 23.0891 37.8633 24.765 37.2476 26.1321L37.1795 26.2717L37.1716 26.2933C36.9758 26.7851 36.6443 27.1671 36.213 27.4419L36.0806 27.5211L35.9542 27.5881C34.8282 28.1887 34.2879 29.4684 34.6333 30.6653L34.6737 30.7932L34.7039 30.895L34.7556 31.1028L34.7785 31.1822C35.1549 32.6101 34.4092 34.0904 33.0763 34.6462L32.9496 34.6956L32.8235 34.7382C32.2851 34.9176 31.7297 34.934 31.1881 34.7871L31.0918 34.7573L30.8908 34.7081L30.8221 34.6888C29.5727 34.2983 28.1979 34.8459 27.584 35.9584C26.8102 37.4092 24.9718 37.9301 23.5438 37.1138C23.1383 36.8705 22.7998 36.55 22.5374 36.1614L22.4425 36.0125L22.4067 35.9485C21.9477 35.0687 21.0202 34.5187 19.9936 34.5187C19.7601 34.5187 19.5254 34.5467 19.2648 34.6095L18.8844 34.7068L18.8178 34.7261C17.3899 35.1025 15.9096 34.3568 15.3538 33.0239L15.3044 32.8973L15.2618 32.7711C15.0824 32.2327 15.066 31.6773 15.2129 31.1358L15.2618 30.9738L15.3112 30.8263C15.6882 29.6199 15.1907 28.2967 14.1547 27.6543L14.0416 27.5881C12.5908 26.8143 12.0699 24.976 12.8862 23.548C13.1599 23.0918 13.5313 22.7204 14.0263 22.4244C15.1152 21.8236 15.6632 20.5213 15.3483 19.3076L15.2919 19.1092L15.2354 18.883L15.2173 18.822C14.8178 17.3061 15.6827 15.7313 17.1723 15.266C17.7108 15.0865 18.2662 15.0702 18.8077 15.2171L18.8961 15.2433L19.105 15.2961L19.3034 15.3525C20.4737 15.6562 21.7262 15.1579 22.3457 14.1589ZM25.0331 13.7336C24.462 13.7231 23.889 14.0004 23.5616 14.5189L23.4994 14.6259C22.8209 15.8557 21.538 16.6085 20.1756 16.6695L20.0239 16.6734C19.6862 16.6757 19.3449 16.6354 19.0078 16.5491L18.8061 16.4919L18.5799 16.4353C18.4527 16.3929 18.3255 16.3664 18.1982 16.3558L18.071 16.3505C17.9014 16.3505 17.7317 16.3788 17.5621 16.4353C16.6909 16.7076 16.1867 17.6091 16.403 18.4834L16.4312 18.5841L16.4877 18.8103C17.0532 20.6198 16.2615 22.5989 14.6217 23.5036C14.3389 23.6732 14.1128 23.8994 13.9431 24.1822C13.5082 24.9434 13.7528 25.966 14.5263 26.4457L14.6217 26.5006C16.216 27.3802 17.0085 29.2753 16.5317 31.0427L16.4877 31.1939L16.4312 31.3635C16.3181 31.7028 16.3181 32.0421 16.4312 32.3814C16.6615 33.1186 17.3424 33.593 18.0761 33.5904L18.1765 33.5871C18.2659 33.5815 18.3558 33.5687 18.4456 33.5484L18.5799 33.5123L18.8061 33.4557C19.2019 33.3427 19.5977 33.2861 19.9936 33.2861C21.4638 33.2861 22.8209 34.0778 23.4994 35.3783C23.6691 35.661 23.8953 35.8872 24.178 36.0569C24.4216 36.1961 24.6919 36.2657 24.9627 36.2706L25.0642 36.2694C25.6006 36.2473 26.1257 35.9733 26.4338 35.486L26.4964 35.3783C27.1749 34.1484 28.4578 33.3957 29.8202 33.3347L29.9719 33.3308C30.3096 33.3285 30.6509 33.3688 30.988 33.455L31.1897 33.5123L31.4159 33.5688C31.5856 33.6254 31.7552 33.6537 31.9248 33.6537L32.0521 33.6484C32.1793 33.6378 32.3065 33.6112 32.4337 33.5688C33.305 33.2966 33.8092 32.3951 33.5928 31.5208L33.5647 31.4201L33.5081 31.1939C32.8861 29.3844 33.6778 27.4053 35.3741 26.5006C35.7134 26.3309 35.9396 26.1047 36.0527 25.7655C36.4877 25.0043 36.243 23.9817 35.4695 23.502L35.3741 23.4471C33.7799 22.5675 32.9873 20.6723 33.4641 18.9049L33.5081 18.7537L33.5647 18.6406C33.6778 18.3014 33.6778 17.9621 33.5647 17.6228C33.3448 16.9191 32.7144 16.4549 32.0194 16.4163L31.9197 16.4137C31.7946 16.4142 31.668 16.4285 31.5419 16.4577L31.4159 16.4919L31.1897 16.5484C30.8379 16.6584 30.4796 16.717 30.1241 16.7277L29.9719 16.7293C28.5537 16.7174 27.2001 15.9453 26.4964 14.6259C26.3268 14.3431 26.1006 14.1169 25.8178 13.9473C25.6047 13.8255 25.3711 13.757 25.1346 13.7385L25.0331 13.7336ZM22.1964 20.0435C21.0051 20.0435 20.0394 21.0093 20.0394 22.2005C20.0394 23.3918 21.0051 24.3575 22.1964 24.3575C23.3876 24.3575 24.3534 23.3918 24.3534 22.2005C24.3534 21.0093 23.3876 20.0435 22.1964 20.0435ZM22.1964 21.2761C22.7069 21.2761 23.1208 21.69 23.1208 22.2005C23.1208 22.7111 22.7069 23.125 22.1964 23.125C21.6858 23.125 21.2719 22.7111 21.2719 22.2005C21.2719 21.69 21.6858 21.2761 22.1964 21.2761ZM29.7194 20.224C29.4787 19.9834 29.0885 19.9834 28.8479 20.224L20.2199 28.852L20.1686 28.9101C19.9806 29.1519 19.9977 29.5014 20.2199 29.7236C20.4605 29.9643 20.8507 29.9643 21.0914 29.7236L29.7194 21.0956L29.7707 21.0375C29.9587 20.7958 29.9416 20.4462 29.7194 20.224ZM25.5859 27.7471C25.5859 26.5558 26.5516 25.5901 27.7429 25.5901C28.9342 25.5901 29.8999 26.5558 29.8999 27.7471C29.8999 28.9384 28.9342 29.9041 27.7429 29.9041C26.5516 29.9041 25.5859 28.9384 25.5859 27.7471ZM28.6674 27.7471C28.6674 27.2366 28.2535 26.8227 27.7429 26.8227C27.2324 26.8227 26.8185 27.2366 26.8185 27.7471C26.8185 28.2576 27.2324 28.6715 27.7429 28.6715C28.2535 28.6715 28.6674 28.2576 28.6674 27.7471Z" fill="#393939"/>
</svg>
