<svg width="50" height="50" viewBox="0 0 50 50" fill="none" xmlns="http://www.w3.org/2000/svg">
<path fill-rule="evenodd" clip-rule="evenodd" d="M13.125 36.25H36.25V31.875H26.2532H23.1218H13.125V36.25ZM36.25 16.875V30.625H26.875V29.375H31.9675C32.2619 29.375 32.5 29.147 32.5 28.8651V20.5093C32.5 20.228 32.2619 20 31.9675 20H17.4075C17.1131 20 16.875 20.228 16.875 20.5093V28.8651C16.875 29.147 17.1131 29.375 17.4075 29.375H22.5V30.625H13.125V16.875H24.3938H24.9812H36.25ZM37.5 16.25V11.1341C37.5 10.8529 37.2684 10.625 36.9827 10.625H24.9812H24.3938H12.3923C12.1066 10.625 11.875 10.8529 11.875 11.1341V30.625V31.875V36.9903C11.875 37.2721 12.1066 37.5 12.3923 37.5H14.375V39.375H16.25V37.5H33.125V39.375H35V37.5H36.9827C37.2684 37.5 37.5 37.2721 37.5 36.9903V31.875V30.625V16.875V16.25ZM36.25 16.25H24.9812V11.875H36.25V16.25ZM24.3938 16.25V11.875H13.125V16.25H24.3938ZM25.625 29.375V30.625H23.75V29.375H25.625ZM18.125 28.1253H31.2701V21.25H18.125V28.1253ZM20 15H17.5V14.375H20V15ZM29.375 15H31.875V14.375H29.375V15ZM25.625 35H23.75V34.375H25.625V35Z" fill="black"/>
</svg>
