<svg width="50" height="50" viewBox="0 0 50 50" fill="none" xmlns="http://www.w3.org/2000/svg">
<path fill-rule="evenodd" clip-rule="evenodd" d="M16.25 37.994C16.25 38.0544 16.2085 38.1051 16.1523 38.1203L16.1169 38.125H14.5086C14.4475 38.125 14.3955 38.0844 14.3798 38.0289L14.375 37.994V36.875H12.3929C12.1066 36.875 11.875 36.6483 11.875 36.3687V13.007C11.875 12.7267 12.1066 12.5 12.3929 12.5H38.2321C38.5178 12.5 38.75 12.7267 38.75 13.007V36.3687C38.75 36.6483 38.5178 36.875 38.2321 36.875H36.25V37.994C36.25 38.0544 36.2081 38.1051 36.1518 38.1203L36.1164 38.125H34.508C34.4469 38.125 34.3953 38.0844 34.3798 38.0289L34.375 37.994V36.875H16.25V37.994ZM37.5 28.7312H13.125V35.625H37.5V28.7312ZM26.25 31.8937V32.4812H24.375V31.8937H26.25ZM37.5 21.2313H13.125V28.1438H37.5V21.2313ZM26.25 24.3938V24.9812H24.375V24.3938H26.25ZM37.5 13.75H13.125V20.6437H37.5V13.75ZM26.25 16.8938V17.4812H24.375V16.8938H26.25Z" fill="#393939"/>
</svg>
