<svg width="50" height="50" viewBox="0 0 50 50" fill="none" xmlns="http://www.w3.org/2000/svg">
<path fill-rule="evenodd" clip-rule="evenodd" d="M35.1034 13.75C35.394 13.75 35.6295 13.9856 35.6295 14.2763L35.6289 24.3689H38.2239C38.5144 24.3689 38.75 24.6738 38.75 24.9644V35.1125C38.75 35.4031 38.5144 35.6387 38.2239 35.6387H36.2343V36.725C36.2343 36.7943 36.1874 36.8523 36.1237 36.8697L36.0837 36.875H33.9161C33.8468 36.875 33.7884 36.8286 33.7709 36.765L33.7655 36.725V35.6387H16.2371V36.725C16.2371 36.7943 16.1903 36.8523 16.1265 36.8697L16.0865 36.875H13.916C13.8468 36.875 13.8012 36.875 13.7708 36.765L13.7655 36.725V35.6387H11.7761C11.4856 35.6387 11.25 35.4031 11.25 35.1125V24.9644C11.25 24.6738 11.4856 24.3689 11.7761 24.3689H14.4008L14.4015 14.2763C14.4015 13.9856 14.637 13.75 14.9276 13.75H35.1034ZM16.2458 25.625H12.5114V34.3552H37.4978L37.5058 25.625H33.7566L33.7654 30.0962C33.7654 30.3874 33.5299 30.6224 33.2393 30.6224H16.772C16.4814 30.6224 16.2458 30.3874 16.2458 30.0962V25.625ZM32.5179 27.5255H17.5213L17.4986 29.375H32.4951L32.5179 27.5255ZM34.3697 14.9799H15.6083V24.3689H16.9952C17.2857 24.3689 17.5213 24.6738 17.5213 24.9644L17.4829 26.8903H32.4795L32.4991 24.9644C32.4991 24.6738 32.7347 24.3689 33.0253 24.3689H34.3697V14.9799Z" fill="#393939"/>
</svg>
