<svg width="50" height="50" viewBox="0 0 50 50" fill="none" xmlns="http://www.w3.org/2000/svg">
<path fill-rule="evenodd" clip-rule="evenodd" d="M34.5141 17.5C34.7988 17.5 35.0298 17.7306 35.0298 18.0156V23.125L35.7845 23.1274C36.0699 23.1274 36.3008 23.3581 36.3008 23.6431L36.3002 24.9994L37.6093 25C37.8941 25 38.125 25.2306 38.125 25.5156V32.0131C38.125 32.2975 37.8941 32.5281 37.6093 32.5281L35.4979 32.5275L35.4985 33.6025C35.4985 33.6702 35.4524 33.7275 35.39 33.7447L35.3508 33.75H33.7344C33.6666 33.75 33.6092 33.704 33.592 33.6416L33.5867 33.6025L33.586 32.5275H16.7475L16.7481 33.6025C16.7481 33.6702 16.7021 33.7275 16.6396 33.7447L16.6005 33.75H14.984C14.9162 33.75 14.8588 33.704 14.8416 33.6416L14.8363 33.6025L14.8357 32.5275L12.3913 32.5281C12.1065 32.5281 11.875 32.2975 11.875 32.0131V25.5156C11.875 25.2306 12.1065 25 12.3913 25L13.7715 24.9994L13.7721 23.6431C13.7721 23.3581 14.0031 23.1274 14.2884 23.1274L15.004 23.1268L15.0046 18.0156C15.0046 17.7306 15.2356 17.5 15.5203 17.5H34.5141ZM36.9071 26.25H13.1266V31.25H36.9071V26.25ZM34.9541 24.3628L15.0041 24.375V25L34.9541 24.9878V24.3628ZM33.7782 18.7297H16.2556V23.1274L20.0105 23.1047V20C20.1156 20.0265 29.2029 20.0265 29.3975 20V23.1047L33.7782 23.1274V18.7297ZM28.7717 20.625H20.6362V23.1274H28.7717V20.625Z" fill="#393939"/>
</svg>
