<svg width="50" height="50" viewBox="0 0 50 50" fill="none" xmlns="http://www.w3.org/2000/svg">
<path fill-rule="evenodd" clip-rule="evenodd" d="M26.9646 14.375C27.2571 14.375 27.494 14.6125 27.494 14.905V21.3199C27.494 21.613 27.2571 21.875 26.9646 21.875H22.7569L23.2219 23.0719L23.2362 23.1244L38.75 23.125C39.138 23.125 39.375 23.3807 39.375 23.75V25.625C39.375 25.9943 39.138 26.25 38.75 26.25L38.125 26.2494V35.7206C38.125 36.0131 37.8881 36.25 37.595 36.25H28.7715C28.4071 36.4494 28.1487 36.0131 28.125 35.4256V26.25H21.5888H13.75V36.25H12.5V26.2494L11.875 26.25C11.487 26.25 11.25 25.9943 11.25 25.625V23.75C11.25 23.3807 11.487 23.125 11.875 23.125L18.5189 23.1246L18.5344 23.0719L18.9975 21.875H14.9077C14.6152 21.875 14.3777 21.613 14.3777 21.3199V14.905C14.3777 14.6125 14.6152 14.375 14.9077 14.375H26.9646ZM36.91 29.9925H29.3669L29.3674 35.0162H36.9101L36.91 29.9925ZM33.75 31.2597V31.8653H32.5V31.2597H33.75ZM36.9101 26.25H29.3674L29.3669 29.3869H36.91L36.9101 26.25ZM33.75 27.5097V28.1153H32.5V27.5097H33.75ZM38.125 24.375H12.5V25H38.125V24.375ZM21.6656 21.875H20.0906L19.7819 23.1244H21.9744L21.6656 21.875ZM26.25 15.625H15.6213V20.6244H26.25V15.625Z" fill="#393939"/>
</svg>
