<svg width="50" height="50" viewBox="0 0 50 50" fill="none" xmlns="http://www.w3.org/2000/svg">
<path fill-rule="evenodd" clip-rule="evenodd" d="M17.5 25H20.0872C20.3846 25 20.625 25.4853 20.625 25.7784V35H19.3808V26.3095L17.5 26.2958V35H16.25V26.2866L11.25 26.25V35H10V15H11.25V25H16.25V20.625H13.75C13.3619 20.625 13.125 20.3894 13.125 20V17.5C13.125 17.1106 13.3619 16.875 13.75 16.875H36.25C36.6381 16.875 36.875 17.1106 36.875 17.5V20C36.875 20.3894 36.6381 20.625 36.25 20.625H33.75V21.9006V23.0994V25H38.75V15H40V35H38.7987L38.75 26.2518H33.75V35H32.5V26.2518H30.6133V35H29.3921V25.5244C29.3921 25.235 29.6265 25 29.9165 25H32.5V23.0994H17.5V25ZM16.25 19.375H14.375V18.125H35.625V19.375H33.75H32.5H17.5H16.25ZM17.5 21.9006H32.5V20.625H17.5V21.9006Z" fill="black"/>
</svg>
