<svg width="50" height="50" viewBox="0 0 50 50" fill="none" xmlns="http://www.w3.org/2000/svg">
<path d="M24.8437 38.125H16.6406C16.6406 38.125 16.2305 36.8945 17.0508 36.0742C17.8711 35.2539 19.1016 35.2539 19.1016 35.2539H24.8437" stroke="#393939" stroke-width="1.25" stroke-linejoin="round"/>
<path d="M24.8438 38.125H33.0469C33.0469 38.125 33.457 36.8945 32.6367 36.0742C31.8164 35.2539 30.5859 35.2539 30.5859 35.2539H24.8438" stroke="#393939" stroke-width="1.25" stroke-linejoin="round"/>
<path d="M23.2031 34.8437V26.2305M23.2031 26.2305H15L17.4609 11.875H32.2266L34.6875 26.2305H26.4844M23.2031 26.2305H26.4844M26.4844 26.2305V35.2539" stroke="#393939" stroke-width="1.25" stroke-linejoin="round"/>
<path d="M15.4102 23.7695C15.7383 23.7695 28.125 23.7695 34.2773 23.7695" stroke="#393939" stroke-width="0.625" stroke-linejoin="round"/>
<path d="M30.1758 26.2305V29.9219" stroke="#393939" stroke-width="0.625" stroke-linejoin="round"/>
</svg>
