<svg width="50" height="50" viewBox="0 0 50 50" fill="none" xmlns="http://www.w3.org/2000/svg">
<path d="M25.0625 26.9375C24.8125 26.9375 19.125 26.9375 16.625 26.9375C16.625 26.9375 16.625 26 16.625 25.0625C16.625 24.125 17.875 24.125 17.875 24.125L25.375 24.125" stroke="#393939" stroke-width="1.25" stroke-linecap="round" stroke-linejoin="round"/>
<path d="M25.0625 26.9375C25.3125 26.9375 31 26.9375 33.5 26.9375C33.5 26.9375 33.5 26 33.5 25.0625C33.5 24.125 32.25 24.125 32.25 24.125L24.75 24.125" stroke="#393939" stroke-width="1.25" stroke-linecap="round" stroke-linejoin="round"/>
<path d="M32.25 23.8125C32.25 23.8125 31.25 15.375 30.375 13.1875C29.5 11 27.875 11 27.875 11H25.0626" stroke="#393939" stroke-width="1.25" stroke-linecap="round" stroke-linejoin="round"/>
<path d="M17.875 23.8125C17.875 23.8125 18.875 15.375 19.75 13.1875C20.625 11 22.25 11 22.25 11H25.0624" stroke="#393939" stroke-width="1.25" stroke-linecap="round" stroke-linejoin="round"/>
<path d="M18.8125 27.25L16 39.125H17.875L21 27.25" stroke="#393939" stroke-width="1.25" stroke-linecap="round" stroke-linejoin="round"/>
<path d="M31.3125 27.25L34.125 39.125H32.25L29.125 27.25" stroke="#393939" stroke-width="1.25" stroke-linecap="round" stroke-linejoin="round"/>
</svg>
