<svg width="50" height="50" viewBox="0 0 50 50" fill="none" xmlns="http://www.w3.org/2000/svg">
<path fill-rule="evenodd" clip-rule="evenodd" d="M35.625 37.5H25.625V12.5H35.625V37.5ZM24.375 12.5V37.5H14.375V12.5H24.375ZM13.6581 38.75H36.3419C36.6361 38.75 36.875 38.5131 36.875 38.2206V11.78C36.875 11.4875 36.6361 11.25 36.3419 11.25H13.6581C13.3633 11.25 13.125 11.4875 13.125 11.78V38.2206C13.125 38.5131 13.3633 38.75 13.6581 38.75ZM27.49 26.25H26.885V23.75H27.49V26.25ZM23.125 36.25H15.625V13.75H23.125V36.25ZM23.75 36.875H15V13.125H23.75V36.875Z" fill="#393939"/>
</svg>
