<svg width="50" height="50" viewBox="0 0 50 50" fill="none" xmlns="http://www.w3.org/2000/svg">
<path d="M28.2669 11.25C28.6719 11.25 29.0488 11.4456 29.2825 11.7706L35.625 21.25H32.5V26.9287C32.8644 27.0575 33.125 27.4044 33.125 27.8125C33.125 28.33 32.705 28.75 32.1875 28.75C31.67 28.75 31.25 28.33 31.25 27.8125C31.25 27.4044 31.5112 27.0569 31.875 26.9281V21.25H26.875V23.2437C27.0094 23.195 27.15 23.1606 27.2937 23.1419L27.4213 23.1294L27.55 23.125C28.6381 23.125 29.5231 24.0106 29.5231 25.1C29.5231 25.7 29.2656 26.2675 28.8287 26.6687L28.7244 26.7575L28.765 26.9031C28.7975 27.0362 28.8219 27.1706 28.8381 27.3069L28.8569 27.5125L28.8631 27.7188C28.8631 28.2581 28.7381 28.78 28.5019 29.255L28.4037 29.4375L28.4688 29.4863C28.6287 29.6138 28.7769 29.7675 28.9062 29.94L29 30.0737L29.0875 30.2144C29.3469 30.6644 29.4644 31.1581 29.4237 31.6075L29.4044 31.755L29.3981 31.7825L29.4231 31.8038C29.4869 31.8644 29.5469 31.93 29.6012 31.9994L29.68 32.1069L29.7513 32.22C30.2838 33.1431 29.9325 34.3425 28.9994 35.0012L31.875 34.375C32.5656 34.375 33.125 34.9344 33.125 35.625V37.5C33.125 38.1906 32.5656 38.75 31.875 38.75H18.125C17.4344 38.75 16.875 38.1906 16.875 37.5V35.625C16.875 34.9344 17.4344 34.375 18.125 34.375L21.0013 35.0006C20.0675 34.3425 19.7175 33.1431 20.25 32.22C20.3169 32.1037 20.3956 31.9963 20.485 31.8981L20.5787 31.8038L20.6025 31.7825L20.5962 31.755C20.5281 31.3612 20.5894 30.9244 20.7669 30.5075L20.8394 30.3519L20.9138 30.2144C21.0519 29.9744 21.2225 29.7619 21.4138 29.5869L21.5325 29.4869L21.5963 29.4375L21.4981 29.2531C21.3194 28.8919 21.2044 28.5037 21.1594 28.1025L21.1425 27.9006L21.1375 27.7194C21.1375 27.5113 21.1562 27.3056 21.1937 27.1038L21.2363 26.9038L21.2756 26.7575C20.8475 26.4119 20.5669 25.9156 20.4956 25.3737L20.4819 25.2375L20.4775 25.1C20.4775 24.0106 21.3625 23.125 22.4513 23.125C22.685 23.125 22.9131 23.1669 23.1262 23.2444L23.125 21.25H14.375L20.6625 11.855C20.8888 11.48 21.295 11.25 21.7331 11.25H28.2669ZM16.875 18.125H33.125V18.75H16.875V18.125ZM18.125 34.375H21.25V35H18.125V34.375ZM28.75 34.375H31.875V35H28.75V34.375ZM31.875 35.625H18.125V37.5H31.875V35.625ZM22.0094 32.2688C21.6381 32.2688 21.3031 32.4288 21.13 32.7288C20.8475 33.2181 21.1044 33.8975 21.7025 34.2431C22.0006 34.4156 22.335 34.4781 22.645 34.4206C22.935 34.3663 23.1675 34.21 23.2994 33.9819C23.4306 33.7531 23.4494 33.4744 23.3512 33.1956C23.2469 32.8981 23.025 32.6394 22.7269 32.4675C22.495 32.3331 22.2456 32.2688 22.0094 32.2688ZM27.9906 32.2688C27.7556 32.2688 27.5056 32.3331 27.2738 32.4669C26.6756 32.8125 26.4194 33.4919 26.7019 33.9819C26.8331 34.21 27.0656 34.3663 27.3563 34.4206C27.6656 34.4781 28 34.4156 28.2987 34.2431C28.8962 33.8975 29.1531 33.2181 28.8706 32.7288C28.6981 32.4288 28.3625 32.2688 27.9912 32.2688H27.9906ZM26.7006 30.6137C26.3275 30.8062 25.9137 30.9381 25.4744 30.9931L25.3419 31.0075H24.6587C24.17 30.9637 23.7106 30.8262 23.3 30.6137C23.1312 30.9794 22.9781 31.3787 22.8562 31.7681C22.9281 31.7994 22.9987 31.835 23.0688 31.875C23.5075 32.1287 23.8375 32.5175 23.9956 32.9688C24.1544 33.4194 24.1262 33.8813 23.9169 34.275C24.1119 34.3381 24.3169 34.3837 24.53 34.4112L24.6587 34.425H25.3419C25.6006 34.4019 25.85 34.3512 26.0838 34.275C25.6544 33.4644 26.0262 32.3988 26.9325 31.875C27.0012 31.835 27.0725 31.8 27.1438 31.7688C27.0231 31.3788 26.8694 30.9794 26.7006 30.6137ZM27.4537 30.0919C27.3975 30.1425 27.34 30.1919 27.28 30.2394C27.4837 30.6675 27.6644 31.1344 27.8056 31.5956C28.0056 31.5775 28.2037 31.5894 28.3912 31.63C28.4462 31.4025 28.4056 31.0662 28.2069 30.7225C27.9925 30.3506 27.6881 30.1388 27.4537 30.0912V30.0919ZM22.5469 30.0919C22.3131 30.1388 22.0081 30.3506 21.7937 30.7231C21.5956 31.0669 21.5544 31.4025 21.6094 31.63C21.7969 31.5894 21.995 31.5775 22.195 31.5956C22.3363 31.1344 22.5175 30.6675 22.7206 30.2394C22.6613 30.1919 22.6031 30.1425 22.5469 30.0919ZM25.0006 25.0988C23.4312 25.0988 22.1544 26.2744 22.1544 27.7194C22.1544 29.1644 23.4312 30.3394 25.0006 30.3394C26.5694 30.3394 27.8469 29.1644 27.8469 27.7194C27.8469 26.2744 26.57 25.0988 25.0006 25.0988ZM25.0006 27.1494C25.28 27.1494 25.485 27.19 25.6456 27.2769C25.89 27.4088 26.025 27.6469 26.025 27.9469C26.025 28.3719 25.7663 28.7362 25.3981 28.8919L25.3419 28.9137V29.5419C25.3419 29.7306 25.1887 29.8837 25.0006 29.8837C24.8244 29.8837 24.6794 29.7506 24.6606 29.5794L24.6587 29.5419V28.9137C24.2612 28.7725 23.9756 28.3925 23.9756 27.9469C23.9756 27.6469 24.1106 27.4094 24.355 27.2769C24.5162 27.19 24.7212 27.1494 25.0006 27.1494ZM25.0006 27.8331C24.8694 27.8331 24.7881 27.845 24.7381 27.8569L24.7038 27.8675L24.6819 27.8775L24.6669 27.8869L24.6631 27.8981C24.6612 27.9081 24.6587 27.9244 24.6587 27.9469C24.6587 28.1356 24.8119 28.2887 25.0006 28.2887C25.1887 28.2887 25.3419 28.1356 25.3419 27.9469C25.3419 27.9244 25.3394 27.9081 25.3375 27.8981L25.3325 27.8856L25.3187 27.8769L25.2975 27.8675L25.2394 27.8519L25.2056 27.8456L25.1181 27.8369C25.0844 27.8344 25.0456 27.8331 25.0006 27.8331ZM26.4806 26.6937C26.6687 26.6937 26.8219 26.8469 26.8219 27.0356C26.8219 27.2244 26.6687 27.3775 26.4806 27.3775C26.2919 27.3775 26.1387 27.2244 26.1387 27.0356C26.1387 26.8469 26.2919 26.6937 26.4806 26.6937ZM23.5206 26.6937C23.7087 26.6937 23.8619 26.8469 23.8619 27.0356C23.8619 27.2244 23.7087 27.3775 23.5206 27.3775C23.3319 27.3775 23.1787 27.2244 23.1787 27.0356C23.1787 26.8469 23.3319 26.6937 23.5206 26.6937ZM32.1875 27.5C32.015 27.5 31.875 27.64 31.875 27.8125C31.875 27.985 32.015 28.125 32.1875 28.125C32.36 28.125 32.5 27.985 32.5 27.8125C32.5 27.64 32.36 27.5 32.1875 27.5ZM27.55 24.1419C27.1938 24.1419 26.8688 24.34 26.7038 24.6525L26.6762 24.7087L26.6381 24.7931C27.21 25.0744 27.6894 25.4988 28.0225 26.0144C28.3194 25.8113 28.5069 25.4688 28.5069 25.1C28.5069 24.5719 28.0775 24.1419 27.55 24.1419ZM22.4513 24.1419C21.9231 24.1419 21.4937 24.5719 21.4937 25.1C21.4937 25.4688 21.6813 25.8113 21.9781 26.0144C22.2894 25.5331 22.7281 25.1319 23.2494 24.8519L23.3625 24.7931L23.325 24.7087C23.1706 24.3644 22.8281 24.1419 22.4513 24.1419ZM25.625 21.25H24.375V24.13L24.4856 24.1144L24.6319 24.0987L24.7787 24.0881L25.0006 24.0819C25.2106 24.0819 25.4194 24.0981 25.6256 24.13L25.625 21.25ZM28.2669 12.5H21.7331L16.5869 20H33.4125L28.2669 12.5Z" fill="#393939"/>
</svg>
