<svg width="50" height="50" viewBox="0 0 50 50" fill="none" xmlns="http://www.w3.org/2000/svg">
<path fill-rule="evenodd" clip-rule="evenodd" d="M36.3441 11.25C36.6371 11.25 36.875 11.4875 36.875 11.78V38.2206C36.875 38.5131 36.6371 38.75 36.3441 38.75H13.6559C13.3623 38.75 13.125 38.5131 13.125 38.2206V11.78C13.125 11.4875 13.3623 11.25 13.6559 11.25H36.3441ZM24.3887 33.7169H14.3724L14.3724 37.5041H24.4164L24.3887 33.7169ZM35.6538 33.7169H25.6375V37.5041H35.6604L35.6538 33.7169ZM19.9864 35.6105V36.2355H18.7344V35.6105H19.9864ZM31.2891 35.6105V36.2355H30.0371V35.6105H31.2891ZM24.4164 16.265H18.8762L18.8768 17.2737C18.967 17.2967 19.0547 17.3284 19.1367 17.3703L19.2168 17.4156L21.3734 18.3556C21.6232 18.5075 21.7189 18.7568 21.6507 18.995C21.5887 19.2098 21.4101 19.3614 21.1939 19.3896L21.1205 19.3943H16.0266C15.7806 19.3943 15.7547 19.2362 15.684 19.0006C15.6208 18.7885 15.5027 18.5663 15.6671 18.4256L15.7255 18.3818L17.8827 17.4068C17.9674 17.3498 18.0716 17.3112 18.1843 17.2837L18.2702 17.265L18.2696 16.265H14.3724V33.14H24.3887L24.4164 16.265ZM35.6604 12.4828H25.6375V33.1078H35.6538L35.6604 12.4828ZM27.531 22.5156V24.3906H26.905V22.5156H27.531ZM18.9351 17.95C18.668 17.7902 18.439 17.7935 18.2388 17.8982L18.1732 17.9368L16.2876 18.7887H20.8594L18.9351 17.95ZM24.4164 12.4828H14.3724V15.6593H24.4164V12.4828Z" fill="#393939"/>
</svg>
