<?xml version="1.0" encoding="UTF-8"?>
<svg width="40px" height="40px" viewBox="0 0 40 40" version="1.1" xmlns="http://www.w3.org/2000/svg" xmlns:xlink="http://www.w3.org/1999/xlink">
    <!-- Generator: Sketch 50.2 (55047) - http://www.bohemiancoding.com/sketch -->
    <title>icons/3d</title>
    <desc>Created with Sketch.</desc>
    <defs></defs>
    <g id="icons/3d" stroke="none" stroke-width="1" fill="none" fill-rule="evenodd">
        <g id="Group" transform="translate(-39.000000, -36.000000)" fill-rule="nonzero">
            <path d="M49.4565127,62.440098 C48.5528965,61.8979283 48,60.9214078 48,59.8676192 L48,51.1323808 C48,50.0785922 48.5528965,49.1020717 49.4565127,48.559902 L57.4565127,43.759902 C58.4065599,43.1898737 59.5934401,43.1898737 60.5434873,43.759902 L68.5434873,48.559902 C69.4471035,49.1020717 70,50.0785922 70,51.1323808 L70,59.8676192 C70,60.9214078 69.4471035,61.8979283 68.5434873,62.440098 L60.5434873,67.240098 C59.5934401,67.8101263 58.4065599,67.8101263 57.4565127,67.240098 L49.4565127,62.440098 Z" id="Shape" stroke="#83C150" stroke-width="2"></path>
            <path d="M59.4220347,53.4185608 L58.7032847,53.4185608 L58.7032847,52.6719431 L59.4220347,52.6719431 L59.4220347,53.4185608 Z M59.4220347,51.9254927 L58.7032847,51.9254927 L58.7032847,51.178875 L59.4220347,51.178875 L59.4220347,51.9254927 Z M59.4220347,50.4324246 L58.7032847,50.4324246 L58.7032847,49.6858069 L59.4220347,49.6858069 L59.4220347,50.4324246 Z M59.4220347,48.9393565 L58.7032847,48.9393565 L58.7032847,48.1929061 L59.4220347,48.1929061 L59.4220347,48.9393565 Z M59.4220347,47.4462884 L58.7032847,47.4462884 L58.7032847,46.6996706 L59.4220347,46.6996706 L59.4220347,47.4462884 Z M59.4220347,45.9532202 L58.7032847,45.9532202 L58.7032847,45.2066025 L59.4220347,45.2066025 L59.4220347,45.9532202 Z" id="Shape" fill="#83C150"></path>
            <path d="M67.6923943,60.6042905 L67.0643694,60.2577365 L67.4301618,59.652277 L68.0581868,59.9988311 L67.6923943,60.6042905 Z M66.4363445,59.9108716 L65.8083196,59.5643176 L66.174112,58.9588581 L66.8021369,59.3054122 L66.4363445,59.9108716 Z M65.1799695,59.2174527 L64.551782,58.8708986 L64.9175744,58.2654392 L65.5457619,58.6119932 L65.1799695,59.2174527 Z M63.9237571,58.5240338 L63.2957321,58.1774797 L63.6615246,57.5720203 L64.2895495,57.9185743 L63.9237571,58.5240338 Z M62.6675446,57.8306149 L62.0393571,57.4840608 L62.4051496,56.8786014 L63.0333371,57.2251554 L62.6675446,57.8306149 Z M61.4111696,57.1371959 L60.7831447,56.7906419 L61.1489371,56.1851824 L61.7769621,56.5317365 L61.4111696,57.1371959 Z" id="Shape" fill="#83C150"></path>
            <path d="M50.4326057,60.6039797 L50.0668132,59.9985203 L50.6948382,59.6518108 L51.0607932,60.2572703 L50.4326057,60.6039797 Z M51.6888181,59.9105608 L51.3230257,59.3051014 L51.9512132,58.9585473 L52.3170056,59.5640068 L51.6888181,59.9105608 Z M52.9451931,59.2171419 L52.5794007,58.6116824 L53.2074256,58.2651284 L53.573218,58.8705878 L52.9451931,59.2171419 Z M54.2015681,58.5238784 L53.8356131,57.9184189 L54.4638006,57.5717095 L54.829593,58.1771689 L54.2015681,58.5238784 Z M55.4577805,57.8304595 L55.0919881,57.225 L55.7201756,56.8784459 L56.085968,57.4839054 L55.4577805,57.8304595 Z M56.7141555,57.1370405 L56.3483631,56.5315811 L56.976388,56.185027 L57.3421804,56.7904865 L56.7141555,57.1370405 Z" id="Shape" fill="#83C150"></path>
            <path d="M59.0626597,55.9149583 L50.548848,50.9994694 C50.3770195,50.9002634 50.3181474,50.6805466 50.4173533,50.5087181 C50.4173606,50.5087056 50.4173678,50.5086931 50.417375,50.5086806 L50.417375,50.5086806 C50.5166176,50.3368365 50.7363682,50.2779679 50.9082255,50.3771875 L59.0626597,55.0850417 L67.2167724,50.3775032 C67.3886315,50.2782854 67.6083821,50.3371554 67.707625,50.509 L67.707625,50.509 C67.8068506,50.6808146 67.7480055,50.900536 67.576191,50.9997616 C67.5761773,50.9997695 67.5761636,50.9997774 67.5761499,50.9997853 L59.0626597,55.9149583 Z" id="Shape" fill="#83C150"></path>
            <path d="M58.7032847,55.5 L59.4220347,55.5 L59.4220347,65.1232639 C59.4220347,65.3217412 59.2611371,65.4826389 59.0626597,65.4826389 L59.0626597,65.4826389 C58.8641824,65.4826389 58.7032847,65.3217412 58.7032847,65.1232639 L58.7032847,55.5 Z" id="Rectangle-path" fill="#83C150"></path>
        </g>
    </g>
</svg>