<?xml version="1.0" encoding="UTF-8"?>
<svg width="59px" height="80px" viewBox="0 0 59 80" version="1.1" xmlns="http://www.w3.org/2000/svg" xmlns:xlink="http://www.w3.org/1999/xlink">
    <!-- Generator: Sketch 52.2 (67145) - http://www.bohemiancoding.com/sketch -->
    <title>about5</title>
    <desc>Created with Sketch.</desc>
    <g id="Page-1" stroke="none" stroke-width="1" fill="none" fill-rule="evenodd">
        <g id="about5" transform="translate(1.000000, 1.000000)" stroke="#83C150" stroke-width="2">
            <path d="M47.069,8.06891 L54.4828,8.06891 C55.5873,8.06891 56.4828,8.96434 56.4828,10.0689 L56.4828,75.9999 C56.4828,77.1045 55.5873,77.9999 54.4828,77.9999 L2,77.9999 C0.89543,77.9999 0,77.1045 0,75.9999 L0,10.0689 C0,8.96434 0.89543,8.06891 2,8.06891 L9.4138,8.06891" id="Path" stroke-linecap="round" stroke-linejoin="round"></path>
            <path d="M9.4141,6.03449 C9.4141,4.92992 10.3095,4.03448 11.4141,4.03448 L19.5175,4.03448 C20.6221,4.03448 21.5175,3.12181 21.5175,2.01724 C21.5175,0.91267 22.4129,0 23.5175,0 L32.9658,0 C34.0704,0 34.9658,0.91267 34.9658,2.01724 C34.9658,3.12181 35.8612,4.03448 36.9658,4.03448 L45.0692,4.03448 C46.1738,4.03448 47.0692,4.92991 47.0692,6.03448 L47.0692,12.7931 C47.0692,13.8977 46.1738,14.7931 45.0692,14.7931 L11.4141,14.7931 C10.3095,14.7931 9.4141,13.8977 9.4141,12.7931 L9.4141,6.03449 Z" id="Path"></path>
            <polyline id="Path" stroke-linecap="round" stroke-linejoin="round" points="10.4453 33.2759 14.4798 37.3104 25.2384 29.2414"></polyline>
            <polyline id="Path" stroke-linecap="round" stroke-linejoin="round" points="10.4453 57.4827 14.4798 61.5172 25.2384 53.4482"></polyline>
            <path d="M34.9688,30.9311 L48.417,30.9311" id="Path" stroke-linecap="round" stroke-linejoin="round"></path>
            <path d="M34.9688,37.6552 L48.417,37.6552" id="Path" stroke-linecap="round" stroke-linejoin="round"></path>
            <path d="M34.9688,55.1379 L48.417,55.1379" id="Path" stroke-linecap="round" stroke-linejoin="round"></path>
            <path d="M34.9688,61.8621 L48.417,61.8621" id="Path" stroke-linecap="round" stroke-linejoin="round"></path>
        </g>
    </g>
</svg>