<?xml version="1.0" encoding="UTF-8"?>
<svg width="74px" height="76px" viewBox="0 0 74 76" version="1.1" xmlns="http://www.w3.org/2000/svg" xmlns:xlink="http://www.w3.org/1999/xlink">
    <!-- Generator: Sketch 52.2 (67145) - http://www.bohemiancoding.com/sketch -->
    <title>about1</title>
    <desc>Created with Sketch.</desc>
    <g id="Page-1" stroke="none" stroke-width="1" fill="none" fill-rule="evenodd">
        <g id="about1" transform="translate(1.000000, 1.000000)" fill="#FFFFFF" stroke="#83C150" stroke-width="2">
            <polygon id="Path" points="0 24.2095 12.0147 12 59.9853 12 72 24.2095 72 26 0 26"></polygon>
            <path d="M12,1 C12,0.4477 12.4477,0 13,0 L59,0 C59.5523,0 60,0.4477 60,1 L60,12 L12,12 L12,1 Z" id="Path"></path>
            <path d="M8.1328,30.6 L62.8661,30.6 L62.8661,72.0667 C62.8661,72.6189 62.4184,73.0667 61.8661,73.0667 L9.1328,73.0667 C8.5805,73.0667 8.1328,72.6189 8.1328,72.0667 L8.1328,30.6 Z" id="Path"></path>
            <path d="M25,48.4667 C25,47.9144 25.4477,47.4667 26,47.4667 L45,47.4667 C45.5523,47.4667 46,47.9144 46,48.4667 L46,73.0667 L25,73.0667 L25,48.4667 Z" id="Path"></path>
            <path d="M18,40 C14.6862915,40 12,37.1793939 12,33.7 L12,26 L24,26 L24,33.7 C24,37.1793939 21.3137085,40 18,40 Z M6,40 C2.68629151,40 0,37.1793939 0,33.7 L0,26 L12,26 L12,33.7 C12,37.1793939 9.31370849,40 6,40 Z M30,40 C26.6862915,40 24,37.1793939 24,33.7 L24,26 L36,26 L36,33.7 C36,37.1793939 33.3137085,40 30,40 Z M42,40 C38.6862915,40 36,37.1793939 36,33.7 L36,26 L48,26 L48,33.7 C48,37.1793939 45.3137085,40 42,40 Z M54,40 C50.6862915,40 48,37.1793939 48,33.7 L48,26 L60,26 L60,33.7 C60,37.1793939 57.3137085,40 54,40 Z M66,40 C62.6862915,40 60,37.1793939 60,33.7 L60,26 L72,26 L72,33.7 C72,37.1793939 69.3137085,40 66,40 Z" id="Combined-Shape" fill-rule="nonzero"></path>
        </g>
    </g>
</svg>