<?xml version="1.0" encoding="UTF-8"?>
<svg width="80px" height="74px" viewBox="0 0 80 74" version="1.1" xmlns="http://www.w3.org/2000/svg" xmlns:xlink="http://www.w3.org/1999/xlink">
    <!-- Generator: Sketch 52.2 (67145) - http://www.bohemiancoding.com/sketch -->
    <title>about4</title>
    <desc>Created with Sketch.</desc>
    <g id="Page-1" stroke="none" stroke-width="1" fill="none" fill-rule="evenodd">
        <g id="about4" transform="translate(1.000000, 1.000000)" stroke="#83C050" stroke-width="2">
            <path d="M50.8888,54.7777 L77.3332,54.7777 L77.3332,0 L0,0 L0,54.7777 L26.7777,54.7777 M71.5,49 L50.8888,49" id="Shape" stroke-linecap="round" stroke-linejoin="round"></path>
            <path d="M72,13 L72,48.3846 M65,6 L13,6 M6,13 L6,42 M13,49 L27.5,49" id="Shape" stroke-linecap="round" stroke-linejoin="round"></path>
            <path d="M6,13 C9.5,13 13,9.5 13,6" id="Path" stroke-linecap="round"></path>
            <path d="M6,42 C9.5,42 13,45.5 13,49" id="Path" stroke-linecap="round"></path>
            <path d="M72,13 C68.5,13 65,9.5 65,6" id="Path" stroke-linecap="round"></path>
            <circle id="Oval" cx="40" cy="49" r="11"></circle>
            <polyline id="Path" stroke-linecap="round" stroke-linejoin="round" points="29 50 29 72 40 68.0714 51 72 51 50"></polyline>
        </g>
    </g>
</svg>