<?xml version="1.0" encoding="UTF-8"?>
<svg width="69px" height="84px" viewBox="0 0 69 84" version="1.1" xmlns="http://www.w3.org/2000/svg" xmlns:xlink="http://www.w3.org/1999/xlink">
    <!-- Generator: Sketch 52.2 (67145) - http://www.bohemiancoding.com/sketch -->
    <title>about3</title>
    <desc>Created with Sketch.</desc>
    <g id="Page-1" stroke="none" stroke-width="1" fill="none" fill-rule="evenodd">
        <g id="about3" transform="translate(1.000000, 1.000000)" stroke="#83C150" stroke-width="2">
            <path d="M18.3544,81.5621 L15.253,75.1216 C14.3119,73.163 12.0582,72.2119 9.9973,72.9036 L3.2188,75.1773 L12.783,58.0366 C14.3019,58.7675 15.986,59.0875 17.6673,58.9646 L22.0316,58.677 C23.8531,58.5607 25.6259,59.294 26.8323,60.6629 L28.5687,62.7603 L18.3544,81.5621 Z" id="Path" fill="#FFFFFF" stroke-linecap="round" stroke-linejoin="round"></path>
            <path d="M63.1829,75.1773 L56.4229,72.9036 C54.362,72.2119 52.1083,73.163 51.1672,75.1216 L48.0658,81.5621 L37.8516,62.7603 L39.653,60.7 C40.8594,59.3311 42.6321,58.5978 44.4537,58.7141 L48.818,59.0018 C50.4993,59.1255 52.1836,58.8055 53.7022,58.0737 L63.1829,75.1773 Z" id="Path" fill="#FFFFFF" stroke-linecap="round" stroke-linejoin="round"></path>
            <path d="M4.90266607,26.2914044 L5.3548038,25.8964459 C7.3329366,24.1553019 8.39384255,21.5960892 8.22826334,18.9701585 L7.95179544,14.7771028 C7.83025392,12.9308219 8.51142636,11.1219245 9.82050224,9.81469058 C11.1296277,8.50740707 12.9392338,7.82911857 14.7821437,7.95376995 L18.9694065,8.23005174 C21.5979372,8.39671872 24.1558605,7.3383791 25.8967125,5.36535153 L28.6851054,2.19280402 C29.9031045,0.799378024 31.6633529,-1.42108547e-14 33.513767,-1.42108547e-14 C35.3641811,-1.42108547e-14 37.1244296,0.799378024 38.3414226,2.19165413 L41.1121078,5.35543238 C42.8535853,7.33359064 45.4117199,8.39478117 48.0361136,8.23032202 L52.2246607,7.95396346 C54.0724814,7.82874916 55.8842058,8.50860779 57.193771,9.81862466 C58.5032865,11.1285918 59.1828576,12.9407995 59.0578916,14.7861931 L58.7816152,18.9763074 C58.6127521,21.6054178 59.6708309,24.1644747 61.6413534,25.9013133 L64.8080424,28.6675451 C66.2009521,29.8859329 67,31.6466683 67,33.4975574 C67,35.3484466 66.2009521,37.109182 64.8072291,38.3282807 L61.6414419,41.0937243 C59.6565281,42.8278788 58.5872572,45.3845109 58.7457629,48.0071143 L59.0220264,52.1971071 C59.1471859,54.0453942 58.4676146,55.857602 57.1580991,57.1675691 C55.8485339,58.477586 54.0368095,59.1574446 52.1918827,59.0324239 L48.0003125,58.7558632 C45.3757487,58.5824849 42.8184019,59.632298 41.0786035,61.5926101 L38.2800029,64.7844687 C37.0620039,66.1778948 35.3017554,66.9772727 33.4513413,66.9772727 C31.6009272,66.9772727 29.8406788,66.1778948 28.6123718,64.7725609 L25.8889576,61.595401 C24.2753327,59.7634471 21.9540612,58.7114285 19.5170298,58.7058904 L18.9735845,58.7023455 L14.7850374,58.9787041 C12.9372167,59.1039184 11.1254924,58.4240598 9.81592714,57.1140429 C8.50641158,55.8040757 7.82684039,53.991868 7.95180661,52.1464744 L8.22796191,47.9582618 C8.39384255,45.3276573 7.3329366,42.7684446 5.35942678,41.0313543 L2.19273771,38.2651224 C0.799828084,37.0467347 0.000780164,35.2859993 0.000780164,33.4351102 C0.000780164,31.584221 0.799828084,29.8234855 2.19273771,28.6050978 L4.90266607,26.234705 L4.90266607,26.2914044 Z" id="Shape" fill="#FFFFFF"></path>
            <path d="M24.3225,37.5068 L24.4147,36.9824 L24.031,36.6132 L17.2802,30.1166 L17.2785,30.1149 C16.8988,29.7513 16.7653,29.211 16.9268,28.7212 C17.0887,28.23 17.5234,27.864 18.0563,27.7895 L27.3151,26.5036 L27.8379,26.431 L28.0729,25.9582 L32.2192,17.6176 L32.2196,17.6169 C32.4506,17.1513 32.9348,16.8485 33.4735,16.8485 C34.0122,16.8485 34.4964,17.1513 34.7274,17.6169 L34.7278,17.6176 L38.8741,25.9582 L39.1084,26.4297 L39.6298,26.5033 L48.947,27.8177 L48.9482,27.8179 C49.4811,27.8924 49.9158,28.2584 50.0777,28.7496 C50.2391,29.2393 50.1057,29.7797 49.726,30.1433 L49.7233,30.1459 L43.0203,36.6141 L42.6375,36.9835 L42.7299,37.5073 L44.3386,46.6329 L44.3386,46.633 C44.4279,47.1391 44.2192,47.6564 43.7897,47.9648 C43.3584,48.2746 42.7832,48.3159 42.3097,48.0691 L33.9886,43.7286 L33.5247,43.4866 L33.0613,43.7299 L24.7426,48.0974 C24.7423,48.0976 24.7421,48.0977 24.7418,48.0979 C24.2685,48.3442 23.6937,48.3028 23.2626,47.9932 L22.6793,48.8054 L23.2626,47.9932 C22.8332,47.6848 22.6244,47.1674 22.7137,46.6614 L22.7138,46.6607 L24.3225,37.5068 Z" id="Path"></path>
        </g>
    </g>
</svg>