<?xml version="1.0" encoding="UTF-8"?>
<svg width="78px" height="67px" viewBox="0 0 78 67" version="1.1" xmlns="http://www.w3.org/2000/svg" xmlns:xlink="http://www.w3.org/1999/xlink">
    <!-- Generator: Sketch 52.2 (67145) - http://www.bohemiancoding.com/sketch -->
    <title>about2</title>
    <desc>Created with Sketch.</desc>
    <g id="Page-1" stroke="none" stroke-width="1" fill="none" fill-rule="evenodd">
        <g id="about2">
            <path d="M0,3 C0,1.3431 1.3431,0 3,0 L46.5333,0 C48.1902,0 49.5333,1.3431 49.5333,3 L49.5333,12.2667 L62.7491,12.2667 C63.7909,12.2667 64.7581,12.8071 65.304,13.6944 L76.985,32.6759 L77.1333,32.917 L77.1333,33.2 L77.1333,58.8 C77.1333,60.4569 75.7902,61.8 74.1333,61.8 L3,61.8 C1.3431,61.8 0,60.4569 0,58.8 L0,33.2 L0,25.0222 L0,3 Z M49.5333,14.2667 L49.5333,25.0222 L49.5333,32.2 L74.3438,32.2 L63.6007,14.7426 C63.4187,14.4468 63.0963,14.2667 62.7491,14.2667 L49.5333,14.2667 Z M75.1333,34.2 L49.5333,34.2 L49.5333,59.8 L74.1333,59.8 C74.6856,59.8 75.1333,59.3523 75.1333,58.8 L75.1333,34.2 Z M47.5333,59.8 L47.5333,34.2 L2,34.2 L2,58.8 C2,59.3523 2.4477,59.8 3,59.8 L47.5333,59.8 Z M2,32.2 L47.5333,32.2 L47.5333,25.0222 L47.5333,13.2667 L47.5333,3 C47.5333,2.4477 47.0856,2 46.5333,2 L3,2 C2.4477,2 2,2.4477 2,3 L2,25.0222 L2,32.2 Z" id="Shape" fill="#83C150"></path>
            <path d="M26.0677,59.2668 C26.0677,62.9487 23.0829,65.9334 19.401,65.9334 C15.7191,65.9334 12.7344,62.9487 12.7344,59.2668 C12.7344,55.5849 15.7191,52.6001 19.401,52.6001 C23.0829,52.6001 26.0677,55.5849 26.0677,59.2668 Z" id="Path" stroke="#83C150" stroke-width="2" fill="#FFFFFF"></path>
            <path d="M65.9349,59.2668 C65.9349,62.9487 62.9501,65.9334 59.2682,65.9334 C55.5863,65.9334 52.6016,62.9487 52.6016,59.2668 C52.6016,55.5849 55.5863,52.6001 59.2682,52.6001 C62.9501,52.6001 65.9349,55.5849 65.9349,59.2668 Z" id="Path" stroke="#83C150" stroke-width="2" fill="#FFFFFF"></path>
        </g>
    </g>
</svg>