<?xml version="1.0" encoding="UTF-8"?>
<svg width="51px" height="38px" viewBox="0 0 51 38" version="1.1" xmlns="http://www.w3.org/2000/svg" xmlns:xlink="http://www.w3.org/1999/xlink">
    <!-- Generator: Sketch 52.2 (67145) - http://www.bohemiancoding.com/sketch -->
    <title>Group 3</title>
    <desc>Created with Sketch.</desc>
    <defs>
        <polygon id="path-1" points="0 0 51 0 51 38 0 38"></polygon>
    </defs>
    <g id="Symbols" stroke="none" stroke-width="1" fill="none" fill-rule="evenodd">
        <g id="Group" transform="translate(-12.000000, -18.000000)">
            <g id="Group-3">
                <g transform="translate(12.000000, 18.000000)">
                    <mask id="mask-2" fill="white">
                        <use xlink:href="#path-1"></use>
                    </mask>
                    <g id="Clip-2"></g>
                    <path d="M49.3,36.3478261 L47.6,36.3478261 L47.6,17.3478261 C47.6,16.8918261 47.2203333,16.5217391 46.75,16.5217391 L4.25,16.5217391 C3.7808,16.5217391 3.4,16.8918261 3.4,17.3478261 L3.4,36.3478261 L1.7,36.3478261 L1.7,15.6956522 C1.7,15.2396522 2.0808,14.8695652 2.55,14.8695652 L48.45,14.8695652 C48.9203333,14.8695652 49.3,15.2396522 49.3,15.6956522 L49.3,36.3478261 Z M40.0134667,21.4782609 L31.3865333,21.4782609 L31.1281333,18.173913 L40.273,18.173913 L40.0134667,21.4782609 Z M29.75,24.7826087 L29.75,23.9565217 C29.75,23.5005217 30.1308,23.1304348 30.6,23.1304348 L40.8,23.1304348 C41.2703333,23.1304348 41.65,23.5005217 41.65,23.9565217 L41.65,24.7826087 L29.75,24.7826087 Z M19.6134667,21.4782609 L10.9865333,21.4782609 L10.7281333,18.173913 L19.873,18.173913 L19.6134667,21.4782609 Z M9.35,24.7826087 L9.35,23.9565217 C9.35,23.5005217 9.7308,23.1304348 10.2,23.1304348 L20.4,23.1304348 C20.8703333,23.1304348 21.25,23.5005217 21.25,23.9565217 L21.25,24.7826087 L9.35,24.7826087 Z M9.41913333,1.65217391 L21.182,1.65217391 L20.2685333,13.2173913 L10.3326,13.2173913 L9.41913333,1.65217391 Z M29.8191333,1.65217391 L41.582,1.65217391 L40.6685333,13.2173913 L30.7326,13.2173913 L29.8191333,1.65217391 Z M48.45,13.2173913 L42.3730667,13.2173913 L43.35,0.888869565 C43.3692667,0.659768116 43.2865333,0.432869565 43.1256,0.264347826 C42.9635333,0.0947246377 42.738,0 42.5,0 L28.9,0 C28.6631333,0 28.4376,0.0947246377 28.2755333,0.264347826 C28.1146,0.432869565 28.0318667,0.659768116 28.05,0.888869565 L29.0280667,13.2173913 L21.9730667,13.2173913 L22.95,0.888869565 C22.9692667,0.659768116 22.8865333,0.432869565 22.7256,0.264347826 C22.5635333,0.0947246377 22.338,0 22.1,0 L8.5,0 C8.26313333,0 8.0376,0.0947246377 7.87553333,0.264347826 C7.7146,0.432869565 7.63186667,0.659768116 7.65,0.888869565 L8.62806667,13.2173913 L2.55,13.2173913 C1.1424,13.2173913 0,14.3265507 0,15.6956522 L0,37.173913 C0,37.629913 0.3808,38 0.85,38 L4.25,38 C4.72033333,38 5.1,37.629913 5.1,37.173913 L5.1,18.173913 L9.02246667,18.173913 L9.2956,21.6434783 C8.30733333,22.008058 7.65226667,22.9277681 7.65,23.9565217 L7.65,25.4269565 C7.11166667,25.8928696 6.80226667,26.5603478 6.8,27.2608696 L6.8,37.173913 C6.8,37.629913 7.1808,38 7.65,38 C8.12033333,38 8.5,37.629913 8.5,37.173913 L8.5,27.2608696 C8.5,26.8048696 8.8808,26.4347826 9.35,26.4347826 L21.25,26.4347826 C21.7203333,26.4347826 22.1,26.8048696 22.1,27.2608696 L22.1,37.173913 C22.1,37.629913 22.4808,38 22.95,38 C23.4203333,38 23.8,37.629913 23.8,37.173913 L23.8,27.2608696 C23.7988667,26.5603478 23.4894667,25.8928696 22.95,25.4269565 L22.95,23.9565217 C22.9488667,22.9277681 22.2938,22.008058 21.3055333,21.6434783 L21.5786667,18.173913 L29.4224667,18.173913 L29.6956,21.6434783 C28.7073333,22.008058 28.0522667,22.9277681 28.05,23.9565217 L28.05,25.4269565 C27.5116667,25.8928696 27.2022667,26.5603478 27.2,27.2608696 L27.2,37.173913 C27.2,37.629913 27.5808,38 28.05,38 C28.5203333,38 28.9,37.629913 28.9,37.173913 L28.9,27.2608696 C28.9,26.8048696 29.2808,26.4347826 29.75,26.4347826 L41.65,26.4347826 C42.1203333,26.4347826 42.5,26.8048696 42.5,27.2608696 L42.5,37.173913 C42.5,37.629913 42.8808,38 43.35,38 C43.8203333,38 44.2,37.629913 44.2,37.173913 L44.2,27.2608696 C44.1988667,26.5603478 43.8894667,25.8928696 43.35,25.4269565 L43.35,23.9565217 C43.3488667,22.9277681 42.6938,22.008058 41.7055333,21.6434783 L41.9786667,18.173913 L45.9,18.173913 L45.9,37.173913 C45.9,37.629913 46.2808,38 46.75,38 L50.15,38 C50.6203333,38 51,37.629913 51,37.173913 L51,15.6956522 C51,14.3265507 49.8587333,13.2173913 48.45,13.2173913 Z" id="Fill-1" fill="#A1A1A1" mask="url(#mask-2)"></path>
                </g>
            </g>
        </g>
    </g>
</svg>