<?xml version="1.0" encoding="UTF-8"?>
<svg width="46px" height="46px" viewBox="0 0 46 46" version="1.1" xmlns="http://www.w3.org/2000/svg" xmlns:xlink="http://www.w3.org/1999/xlink">
    <!-- Generator: Sketch 52.2 (67145) - http://www.bohemiancoding.com/sketch -->
    <title>Group 14</title>
    <desc>Created with Sketch.</desc>
    <defs>
        <polygon id="path-1" points="0 0 45.9999641 0 45.9999641 45.9999641 0 45.9999641"></polygon>
    </defs>
    <g id="Symbols" stroke="none" stroke-width="1" fill="none" fill-rule="evenodd">
        <g id="Group-6" transform="translate(-14.000000, -15.000000)">
            <g id="Group-14">
                <g transform="translate(14.000000, 15.000000)">
                    <path d="M35.7499561,27 L37.2499561,27 C37.6999473,27 38,26.5999297 38,26.0000586 C38,25.4000703 37.6999473,25 37.2499561,25 L35.7499561,25 C35.2999648,25 35,25.4000703 35,26.0000586 C35,26.5999297 35.2999648,27 35.7499561,27" id="Fill-1" fill="#A1A1A1"></path>
                    <path d="M35.7499561,35 L37.2499561,35 C37.6999473,35 38,34.6000234 38,34 C38,33.3999766 37.6999473,33 37.2499561,33 L35.7499561,33 C35.2999648,33 35,33.3999766 35,34 C35,34.6000234 35.2999648,35 35.7499561,35" id="Fill-3" fill="#A1A1A1"></path>
                    <path d="M35.7499561,42 L37.2499561,42 C37.6999473,42 38,41.6000234 38,41 C38,40.3999766 37.6999473,40 37.2499561,40 L35.7499561,40 C35.2999648,40 35,40.3999766 35,41 C35,41.6000234 35.2999648,42 35.7499561,42" id="Fill-5" fill="#A1A1A1"></path>
                    <g id="Group-9">
                        <mask id="mask-2" fill="white">
                            <use xlink:href="#path-1"></use>
                        </mask>
                        <g id="Clip-8"></g>
                        <path d="M44.4666906,21.4666906 L43.7000539,21.4666906 L29.8999641,21.4666906 L26.6799641,21.4666906 L26.9099641,19.9333273 L29.8999641,19.9333273 L37.5666906,19.9333273 L44.4666906,19.9333273 L44.4666906,21.4666906 Z M30.6666906,29.1333273 L42.9334172,29.1333273 L42.9334172,22.9999641 L30.6666906,22.9999641 L30.6666906,29.1333273 Z M30.6666906,44.4666906 L42.9334172,44.4666906 L42.9334172,38.3333273 L30.6666906,38.3333273 L30.6666906,44.4666906 Z M30.6666906,36.7999641 L42.9334172,36.7999641 L42.9334172,30.6666008 L30.6666906,30.6666008 L30.6666906,36.7999641 Z M21.7733273,25.2999641 L13.6466906,25.2999641 C12.0366906,25.2999641 10.6566906,24.0733273 10.4266906,22.4633273 L9.19996406,12.8799641 C9.04669063,11.8833273 9.35332734,10.9633273 9.96669063,10.2733273 C10.5799641,9.58332734 11.4999641,9.19996406 12.4200539,9.19996406 L22.9999641,9.19996406 C23.9200539,9.19996406 24.8400539,9.58332734 25.4533273,10.2733273 C26.0666008,11.0399641 26.3733273,11.9600539 26.2199641,12.8799641 L24.9933273,22.4633273 C24.7633273,24.0733273 23.3833273,25.2999641 21.7733273,25.2999641 Z M5.36669062,21.4666906 L2.30005391,21.4666906 L1.53332734,21.4666906 L1.53332734,19.9333273 L8.50996406,19.9333273 L8.74005391,21.4666906 L5.36669062,21.4666906 Z M3.06669062,44.4666906 L4.60005391,44.4666906 L4.60005391,22.9999641 L3.06669062,22.9999641 L3.06669062,44.4666906 Z M43.7000539,1.53332734 L43.7000539,10.6566906 L27.4489367,10.6566906 C27.2526281,10.149343 26.9717766,9.67586641 26.6033273,9.27669063 C26.2333508,8.87580781 25.8004836,8.53835469 25.326468,8.27646016 C25.2971789,8.25974922 25.2675305,8.24393672 25.2379719,8.22794453 C25.2208117,8.21896016 25.2040109,8.20961641 25.1867609,8.20081172 C24.9726633,8.08904609 24.7516477,7.99533906 24.5247922,7.92085859 C24.2785305,7.83730391 24.0251711,7.77279609 23.7666906,7.72994063 L23.7666906,1.53332734 L43.7000539,1.53332734 Z M35.2666906,13.8000539 L32.2000539,13.8000539 L27.6766906,13.8000539 L27.8299641,13.1099641 L27.8299641,12.2666906 L43.7000539,12.2666906 L43.7000539,13.8000539 L35.2666906,13.8000539 Z M32.9666906,16.1000539 L34.4999641,16.1000539 L34.4999641,15.3333273 L32.9666906,15.3333273 L32.9666906,16.1000539 Z M36.5699641,17.6333273 C36.7233273,17.6333273 36.7999641,17.7100539 36.7999641,17.8633273 L36.7999641,18.3999641 L30.7433273,18.3999641 L30.7433273,17.8633273 C30.7433273,17.7100539 30.8199641,17.6333273 30.9733273,17.6333273 L32.2000539,17.6333273 L35.2666906,17.6333273 L36.5699641,17.6333273 Z M27.066382,18.3999641 L27.4589094,15.3333273 L31.4334172,15.3333273 L31.4334172,16.1000539 L30.8966906,16.1000539 C29.8999641,16.1000539 29.1333273,16.8666906 29.1333273,17.8633273 L29.1333273,18.3999641 L27.066382,18.3999641 Z M22.3099641,29.8999641 C23.3066008,29.8999641 24.1499641,30.5133273 24.4566008,31.4334172 L18.3999641,31.4334172 L18.3999641,29.8999641 L22.3099641,29.8999641 Z M10.8866906,31.4334172 C11.1933273,30.5133273 12.0366906,29.8999641 13.0333273,29.8999641 L16.8666906,29.8999641 L16.8666906,31.4334172 L10.8866906,31.4334172 Z M19.1666906,39.8666906 L19.1666906,41.3999641 L16.1000539,41.3999641 L16.1000539,39.8666906 C16.1000539,39.4066906 16.4833273,39.1000539 16.8666906,39.1000539 L18.3999641,39.1000539 C18.8599641,39.1000539 19.1666906,39.4833273 19.1666906,39.8666906 Z M22.9999641,43.7000539 L12.2666906,43.7000539 L12.2666906,42.9334172 L15.3333273,42.9334172 L19.9333273,42.9334172 L22.9999641,42.9334172 L22.9999641,43.7000539 Z M45.2333273,18.3999641 L38.2566906,18.3999641 L38.2566906,17.8633273 C38.2566906,16.8666906 37.4900539,16.1000539 36.4933273,16.1000539 L36.0333273,16.1000539 L36.0333273,15.3333273 L43.7000539,15.3333273 C44.5434172,15.3333273 45.2333273,14.6433273 45.3100539,13.8000539 L45.3100539,1.53332734 C45.3100539,0.690053906 44.6199641,-3.59375e-05 43.7766008,-3.59375e-05 L23.8433273,-3.59375e-05 C22.9999641,-3.59375e-05 22.3099641,0.690053906 22.3099641,1.53332734 L22.3099641,7.66669062 L12.4200539,7.66669062 C11.0399641,7.66669062 9.65996406,8.28005391 8.81669062,9.35332734 C7.89669062,10.3500539 7.51332734,11.7299641 7.66669062,13.1099641 L8.34923359,18.3999641 L0.766690625,18.3999641 C0.306600781,18.3999641 -3.59375e-05,18.7066906 -3.59375e-05,19.1666906 L-3.59375e-05,22.2333273 C-3.59375e-05,22.6933273 0.306600781,22.9999641 0.766690625,22.9999641 L1.53332734,22.9999641 L1.53332734,45.2333273 C1.53332734,45.6933273 1.83996406,45.9999641 2.30005391,45.9999641 L5.36669062,45.9999641 C5.82669063,45.9999641 6.13332734,45.6933273 6.13332734,45.2333273 L6.13332734,22.9999641 L8.95774531,22.9999641 C9.42115938,25.2513586 11.3958352,26.8333273 13.6466906,26.8333273 L16.8666906,26.8333273 L16.8666906,28.3666906 L13.0333273,28.3666906 C10.8866906,28.3666906 9.19996406,30.0533273 9.19996406,32.2000539 C9.19996406,32.6599641 9.50669063,32.9666906 9.96669063,32.9666906 L16.8666906,32.9666906 L16.8666906,37.5666906 C15.5633273,37.5666906 14.5666906,38.5633273 14.5666906,39.8666906 L14.5666906,41.3999641 L11.4999641,41.3999641 C11.0399641,41.3999641 10.7333273,41.7066008 10.7333273,42.1666008 L10.7333273,44.4666906 C10.7333273,44.9266906 11.0399641,45.2333273 11.4999641,45.2333273 L12.2666906,45.2333273 C12.2666906,45.6933273 12.5733273,45.9999641 13.0333273,45.9999641 C13.4933273,45.9999641 13.8000539,45.6933273 13.8000539,45.2333273 L21.4666906,45.2333273 C21.4666906,45.6933273 21.7733273,45.9999641 22.2333273,45.9999641 C22.6933273,45.9999641 22.9999641,45.6933273 22.9999641,45.2333273 L23.7666906,45.2333273 C24.2266906,45.2333273 24.5333273,44.9266906 24.5333273,44.4666906 L24.5333273,42.1666008 C24.5333273,41.7066008 24.2266906,41.3999641 23.7666906,41.3999641 L20.6999641,41.3999641 L20.6999641,39.8666906 C20.6999641,38.5633273 19.7033273,37.5666906 18.3999641,37.5666906 L18.3999641,32.9666906 L25.2999641,32.9666906 C25.7599641,32.9666906 26.0666906,32.6599641 26.0666906,32.2000539 C26.0666906,30.0533273 24.3800539,28.3666906 22.2333273,28.3666906 L18.3999641,28.3666906 L18.3999641,26.8333273 L21.7733273,26.8333273 C24.0241828,26.8333273 25.9988586,25.2513586 26.4623625,22.9999641 L29.1333273,22.9999641 L29.1333273,29.8999641 L29.1333273,37.5666906 L29.1333273,45.2333273 C29.1333273,45.6933273 29.4399641,45.9999641 29.8999641,45.9999641 L43.7000539,45.9999641 C44.1599641,45.9999641 44.4666906,45.6933273 44.4666906,45.2333273 L44.4666906,37.5666906 L44.4666906,29.8999641 L44.4666906,22.9999641 L45.2333273,22.9999641 C45.6933273,22.9999641 45.9999641,22.6933273 45.9999641,22.2333273 L45.9999641,19.1666906 C45.9999641,18.7066906 45.6933273,18.3999641 45.2333273,18.3999641 Z" id="Fill-7" fill="#A1A1A1" mask="url(#mask-2)"></path>
                    </g>
                    <path d="M25.75,5 C25.9750835,5 26.1251099,4.92494177 26.2750483,4.7750011 L27.7749604,3.27497913 C28.0750132,2.97500989 28.0750132,2.52501208 27.7749604,2.22504285 C27.4749956,1.92498572 27.0250044,1.92498572 26.7250396,2.22504285 L25.2250396,3.72497693 C24.9249868,4.02503406 24.9249868,4.47494397 25.2250396,4.7750011 C25.374978,4.92494177 25.5250044,5 25.75,5" id="Fill-10" fill="#A1A1A1"></path>
                    <path d="M26.249978,7.75000244 C26.4166789,7.91670003 26.5832821,8 26.8333822,8 C27.0832869,8 27.2499878,7.91670003 27.416591,7.75000244 L30.750022,4.41673421 C31.083326,4.08333903 31.083326,3.58334391 30.750022,3.25004639 C30.4167179,2.9166512 29.9167131,2.9166512 29.5833114,3.25004639 L26.249978,6.58331462 C25.916674,6.9167098 25.916674,7.41660726 26.249978,7.75000244" id="Fill-12" fill="#A1A1A1"></path>
                </g>
            </g>
        </g>
    </g>
</svg>