<?xml version="1.0" encoding="UTF-8"?>
<svg width="35px" height="38px" viewBox="0 0 35 38" version="1.1" xmlns="http://www.w3.org/2000/svg" xmlns:xlink="http://www.w3.org/1999/xlink">
    <!-- Generator: Sketch 52.2 (67145) - http://www.bohemiancoding.com/sketch -->
    <title>Group 6</title>
    <desc>Created with Sketch.</desc>
    <defs>
        <polygon id="path-1" points="0.000216666667 0.000541666667 34.658 0.000541666667 34.658 37.9166667 0.000216666667 37.9166667"></polygon>
    </defs>
    <g id="new-pages" stroke="none" stroke-width="1" fill="none" fill-rule="evenodd">
        <g id="01_website_page_sborka_moscow_1" transform="translate(-92.000000, -573.000000)">
            <g id="Group" transform="translate(72.000000, 555.000000)">
                <g id="Group-6" transform="translate(20.000000, 18.000000)">
                    <g id="Group-3">
                        <mask id="mask-2" fill="white">
                            <use xlink:href="#path-1"></use>
                        </mask>
                        <g id="Clip-2"></g>
                        <path d="M32.4363,18.217875 L30.65855,18.217875 C30.2501333,18.217875 29.9186333,17.8852917 29.9186333,17.476875 C29.9186333,17.0684583 30.2501333,16.7369583 30.65855,16.7369583 L32.4363,16.7369583 C32.8447167,16.7369583 33.1773,17.0684583 33.1773,17.476875 C33.1773,17.8852917 32.8447167,18.217875 32.4363,18.217875 Z M26.0673833,25.475125 L8.58996667,25.475125 C7.69188333,25.475125 6.96063333,24.7449583 6.96063333,23.8457917 C6.96063333,22.9477083 7.69188333,22.2164583 8.58996667,22.2164583 L14.3663,22.2164583 C14.7758,22.2164583 15.1073,21.8849583 15.1073,21.4765417 C15.1073,21.0670417 14.7758,20.7355417 14.3663,20.7355417 L9.77513333,20.7355417 L9.77513333,6.553625 C9.77513333,3.75645833 12.0512167,1.48145833 14.8483833,1.48145833 L19.81005,1.48145833 C22.6072167,1.48145833 24.8822167,3.75645833 24.8822167,6.553625 L24.8822167,20.7355417 L20.29105,20.7355417 C19.8826333,20.7355417 19.55005,21.0670417 19.55005,21.4765417 C19.55005,21.8849583 19.8826333,22.2164583 20.29105,22.2164583 L26.0673833,22.2164583 C26.96655,22.2164583 27.6967167,22.9477083 27.6967167,23.8457917 C27.6967167,24.7449583 26.96655,25.475125 26.0673833,25.475125 Z M16.5882167,29.9189583 L18.0691333,29.9189583 L18.0691333,26.957125 L16.5882167,26.957125 L16.5882167,29.9189583 Z M17.3292167,36.4352083 C16.7572167,36.4352083 16.2924667,35.9704583 16.2924667,35.3984583 C16.2924667,34.8275417 16.7572167,34.3617083 17.3292167,34.3617083 C17.9012167,34.3617083 18.3659667,34.8275417 18.3659667,35.3984583 C18.3659667,35.9704583 17.9012167,36.4352083 17.3292167,36.4352083 Z M25.3513,36.4352083 C24.7803833,36.4352083 24.31455,35.9704583 24.31455,35.3984583 C24.31455,34.8275417 24.7803833,34.3617083 25.3513,34.3617083 C25.9233,34.3617083 26.38805,34.8275417 26.38805,35.3984583 C26.38805,35.9704583 25.9233,36.4352083 25.3513,36.4352083 Z M9.30605,36.4352083 C8.73513333,36.4352083 8.2693,35.9704583 8.2693,35.3984583 C8.2693,34.8275417 8.73513333,34.3617083 9.30605,34.3617083 C9.87805,34.3617083 10.3428,34.8275417 10.3428,35.3984583 C10.3428,35.9704583 9.87805,36.4352083 9.30605,36.4352083 Z M1.48113333,17.476875 C1.48113333,17.0684583 1.81263333,16.7369583 2.22105,16.7369583 L3.9988,16.7369583 C4.40721667,16.7369583 4.7398,17.0684583 4.7398,17.476875 C4.7398,17.8852917 4.40721667,18.217875 3.9988,18.217875 L2.22105,18.217875 C1.81263333,18.217875 1.48113333,17.8852917 1.48113333,17.476875 Z M34.6582167,17.476875 C34.6582167,16.2527083 33.66155,15.2560417 32.4363,15.2560417 L30.65855,15.2560417 C29.4343833,15.2560417 28.4377167,16.2527083 28.4377167,17.476875 C28.4377167,18.702125 29.4343833,19.6987917 30.65855,19.6987917 L30.7701333,19.6987917 L30.7701333,21.4017917 C30.7701333,22.3345417 30.0172167,23.092875 29.0877167,23.1047917 C28.7778833,21.8394583 27.6913,20.876375 26.3642167,20.749625 L26.3642167,6.553625 C26.3642167,2.939625 23.42405,0.000541666667 19.81005,0.000541666667 L14.8483833,0.000541666667 C11.2343833,0.000541666667 8.29421667,2.939625 8.29421667,6.553625 L8.29421667,20.749625 C6.96713333,20.876375 5.88055,21.8394583 5.57071667,23.1047917 C4.64013333,23.092875 3.88721667,22.3345417 3.88721667,21.4017917 L3.88721667,19.6987917 L3.9988,19.6987917 C5.22405,19.6987917 6.22071667,18.702125 6.22071667,17.476875 C6.22071667,16.2527083 5.22405,15.2560417 3.9988,15.2560417 L2.22105,15.2560417 C0.996883333,15.2560417 0.000216666667,16.2527083 0.000216666667,17.476875 C0.000216666667,18.702125 0.996883333,19.6987917 2.22105,19.6987917 L2.4063,19.6987917 L2.4063,21.4017917 C2.4063,23.151375 3.8233,24.574875 5.56963333,24.5857083 C5.90221667,25.9452917 7.13071667,26.9560417 8.58996667,26.9560417 L15.1073,26.9560417 L15.1073,29.9189583 L11.9103833,29.9189583 C10.1597167,29.9189583 8.7178,31.2720417 8.57805,32.989125 C7.54346667,33.3022083 6.78838333,34.2642083 6.78838333,35.3984583 C6.78838333,36.7872917 7.9183,37.9172083 9.30605,37.9172083 C10.6948833,37.9172083 11.8237167,36.7872917 11.8237167,35.3984583 C11.8237167,34.2750417 11.0848833,33.320625 10.06655,32.998875 C10.1954667,32.0964583 10.9733,31.399875 11.9103833,31.399875 L16.5882167,31.399875 L16.5882167,32.992375 C15.5601333,33.3097917 14.8104667,34.2674583 14.8104667,35.3984583 C14.8104667,36.7872917 15.9403833,37.9172083 17.3292167,37.9172083 C18.7169667,37.9172083 19.8468833,36.7872917 19.8468833,35.3984583 C19.8468833,34.2674583 19.0972167,33.3087083 18.0691333,32.992375 L18.0691333,31.399875 L22.7664667,31.399875 C23.7013833,31.399875 24.4781333,32.0932083 24.6103,32.992375 C23.5822167,33.3097917 22.8336333,34.2685417 22.8336333,35.3984583 C22.8336333,36.7872917 23.96355,37.9172083 25.3513,37.9172083 C26.7401333,37.9172083 27.87005,36.7872917 27.87005,35.3984583 C27.87005,34.2707083 27.1236333,33.3130417 26.0998833,32.9945417 C25.9612167,31.2752917 24.5203833,29.9189583 22.7664667,29.9189583 L19.55005,29.9189583 L19.55005,26.9560417 L26.0673833,26.9560417 C27.5277167,26.9560417 28.7551333,25.9452917 29.0888,24.5857083 C30.83405,24.574875 32.25105,23.151375 32.25105,21.4017917 L32.25105,19.6987917 L32.4363,19.6987917 C33.66155,19.6987917 34.6582167,18.702125 34.6582167,17.476875 Z" id="Fill-1" fill="#A1A1A1" mask="url(#mask-2)"></path>
                    </g>
                    <path d="M17.3288917,20.7357583 C17.1338917,20.7357583 16.943225,20.8148417 16.8056417,20.952425 C16.6680583,21.0900083 16.5878917,21.2817583 16.5878917,21.4767583 C16.5878917,21.670675 16.6680583,21.862425 16.8056417,22.0000083 C16.943225,22.1375917 17.1338917,22.216675 17.3288917,22.216675 C17.5238917,22.216675 17.7145583,22.1375917 17.8521417,22.0000083 C17.9908083,21.862425 18.0698917,21.670675 18.0698917,21.4767583 C18.0698917,21.2817583 17.9908083,21.0900083 17.8521417,20.952425 C17.7145583,20.8148417 17.5238917,20.7357583 17.3288917,20.7357583" id="Fill-4" fill="#A1A1A1"></path>
                </g>
            </g>
        </g>
    </g>
</svg>