<?xml version="1.0" encoding="UTF-8"?>
<svg width="54px" height="54px" viewBox="0 0 54 54" version="1.1" xmlns="http://www.w3.org/2000/svg" xmlns:xlink="http://www.w3.org/1999/xlink">
    <!-- Generator: Sketch 58 (84663) - https://sketch.com -->
    <title>Group 3</title>
    <desc>Created with Sketch.</desc>
    <defs>
        <polygon id="path-1" points="14 3 39.7895692 3 39.7895692 51.9045694 14 51.9045694"></polygon>
    </defs>
    <g id="Symbols" stroke="none" stroke-width="1" fill="none" fill-rule="evenodd">
        <g id="Group-4" transform="translate(-11.000000, -10.000000)">
            <g id="Group-3" transform="translate(11.000000, 10.000000)">
                <mask id="mask-2" fill="white">
                    <use xlink:href="#path-1"></use>
                </mask>
                <g id="Clip-2"></g>
                <path d="M32.2675439,10.5519125 L21.5219298,10.5519125 C21.1263002,10.5519125 20.8055556,10.2311678 20.8055556,9.83553821 C20.8055556,9.43990858 21.1263002,9.11916394 21.5219298,9.11916394 L32.2675439,9.11916394 C32.663269,9.11916394 32.9839181,9.43990858 32.9839181,9.83553821 C32.9839181,10.2311678 32.663269,10.5519125 32.2675439,10.5519125 L32.2675439,10.5519125 Z M20.8055556,7.05400019 C20.8055556,6.65837057 21.1263002,6.33762593 21.5219298,6.33762593 L32.2675439,6.33762593 C32.663269,6.33762593 32.9839181,6.65837057 32.9839181,7.05400019 C32.9839181,7.44962982 32.663269,7.77037446 32.2675439,7.77037446 L21.5219298,7.77037446 C21.1263002,7.77037446 20.8055556,7.44962982 20.8055556,7.05400019 L20.8055556,7.05400019 Z M38.3567251,16.6968754 C38.3567251,17.3243238 37.874653,17.8348598 37.2821637,17.8348598 L16.5073099,17.8348598 C15.9148207,17.8348598 15.4327485,17.3243238 15.4327485,16.6968754 L15.4327485,15.0279144 C15.4327485,14.4004661 15.9148207,13.88993 16.5073099,13.88993 L21.0741481,13.88993 C21.4697778,13.88993 21.7905224,13.5691854 21.7905224,13.1735558 C21.7905224,12.7779261 21.4697778,12.4571815 21.0741481,12.4571815 L18.119152,12.4571815 L18.119152,5.57072339 C18.119152,4.94327505 18.6012242,4.43273899 19.1937135,4.43273899 L34.5957602,4.43273899 C35.1882495,4.43273899 35.6703216,4.94327505 35.6703216,5.57072339 L35.6703216,12.457277 L23.8053489,12.457277 C23.4097193,12.457277 23.0889747,12.7780216 23.0889747,13.1736513 C23.0889747,13.5692809 23.4097193,13.8900255 23.8053489,13.8900255 L37.2821637,13.8900255 C37.874653,13.8900255 38.3567251,14.4005616 38.3567251,15.0280099 L38.3567251,16.6968754 Z M19.0146199,21.5436727 L34.7748538,21.5436727 L34.7748538,19.2677039 L19.0146199,19.2677039 L19.0146199,21.5436727 Z M25.8201754,36.5640353 L27.9692982,36.5640353 L27.9692982,22.9765168 L25.8201754,22.9765168 L25.8201754,36.5640353 Z M32.1780448,35.0297526 C32.5731014,35.0297526 32.8943236,35.3738988 32.8943236,35.7968462 C32.8943236,36.2197936 32.5731014,36.5639398 32.1780448,36.5639398 L29.4020468,36.5639398 L29.4020468,35.0296571 L32.1780448,35.0296571 L32.1780448,35.0297526 Z M25.8201754,47.5047897 L27.9692982,47.5047897 L27.9692982,37.9967838 L25.8201754,37.9967838 L25.8201754,47.5047897 Z M21.6115244,36.5640353 C21.2164678,36.5640353 20.8951501,36.2198891 20.8951501,35.7969417 C20.8951501,35.3739943 21.2164678,35.0298481 21.6115244,35.0298481 L24.3875224,35.0298481 L24.3875224,36.5641308 L21.6115244,36.5641308 L21.6115244,36.5640353 Z M37.2821637,12.457277 L37.1030702,12.457277 L37.1030702,5.57072339 C37.1030702,4.1532575 35.9783626,2.99999045 34.5957602,2.99999045 L19.1937135,2.99999045 C17.8112066,2.99999045 16.6864035,4.1532575 16.6864035,5.57072339 L16.6864035,12.457277 L16.5073099,12.457277 C15.1248031,12.457277 14,13.6105441 14,15.0280099 L14,16.696971 C14,18.1144368 15.1248031,19.2677039 16.5073099,19.2677039 L17.5818713,19.2677039 L17.5818713,21.7965051 C17.5818713,22.4471639 18.1040604,22.9765168 18.7460273,22.9765168 L20.2683704,22.9765168 L20.2683704,23.6787546 L17.0735322,25.3327195 C16.7222222,25.514583 16.5847739,25.946891 16.7667329,26.298201 C16.8940565,26.5442517 17.1443099,26.6853296 17.4035419,26.6853296 C17.5144366,26.6853296 17.6270507,26.6594446 17.7323099,26.6050002 L21.3141813,24.7506415 C21.551922,24.6275207 21.7012144,24.3822341 21.7012144,24.1145012 L21.7012144,22.9765168 L24.3876179,22.9765168 L24.3876179,33.5970996 L21.6116199,33.5970996 C20.4265458,33.5970996 19.4624971,34.5839768 19.4624971,35.7969417 C19.4624971,37.0100021 20.4265458,37.9967838 21.6116199,37.9967838 L24.3876179,37.9967838 L24.3876179,47.5048852 L21.6116199,47.5048852 C19.8834386,47.5048852 18.4774347,48.9491912 18.4774347,50.7245577 C18.4774347,51.3752166 18.9996238,51.9045694 19.6415906,51.9045694 L28.1261365,51.9045694 C28.5218616,51.9045694 28.8425107,51.5838248 28.8425107,51.1881951 C28.8425107,50.7925655 28.5218616,50.4718209 28.1261365,50.4718209 L19.9271852,50.4718209 C20.044384,49.6056766 20.7551228,48.9376337 21.6116199,48.9376337 L32.1781404,48.9376337 C33.0346374,48.9376337 33.7452807,49.6056766 33.862575,50.4718209 L30.9021345,50.4718209 C30.5065049,50.4718209 30.1857602,50.7925655 30.1857602,51.1881951 C30.1857602,51.5838248 30.5065049,51.9045694 30.9021345,51.9045694 L34.1481696,51.9045694 C34.7900409,51.9045694 35.3123255,51.3752166 35.3123255,50.7245577 C35.3123255,48.9491912 33.9063216,47.5048852 32.1781404,47.5048852 L29.4020468,47.5048852 L29.4020468,37.9968793 L32.1780448,37.9968793 C33.3630234,37.9968793 34.3270721,37.0100021 34.3270721,35.7969417 C34.3270721,34.5839768 33.3630234,33.5970996 32.1780448,33.5970996 L29.4020468,33.5970996 L29.4020468,22.9764212 L35.0434464,22.9764212 C35.6854133,22.9764212 36.2076979,22.4470684 36.2076979,21.7964096 L36.2076979,19.2676084 L37.2822593,19.2676084 C38.6648616,19.2676084 39.7895692,18.1143413 39.7895692,16.6968754 L39.7895692,15.0279144 C39.7895692,13.6104485 38.6647661,12.457277 37.2821637,12.457277 L37.2821637,12.457277 Z" id="Fill-1" fill="#A1A1A1" mask="url(#mask-2)"></path>
            </g>
        </g>
    </g>
</svg>