<?xml version="1.0" encoding="UTF-8"?>
<svg width="51px" height="34px" viewBox="0 0 51 34" version="1.1" xmlns="http://www.w3.org/2000/svg" xmlns:xlink="http://www.w3.org/1999/xlink">
    <!-- Generator: Sketch 52.2 (67145) - http://www.bohemiancoding.com/sketch -->
    <title>Group 8</title>
    <desc>Created with Sketch.</desc>
    <defs>
        <polygon id="path-1" points="0 0.185354839 50.2371702 0.185354839 50.2371702 33.9998903 0 33.9998903"></polygon>
    </defs>
    <g id="Symbols" stroke="none" stroke-width="1" fill="none" fill-rule="evenodd">
        <g id="Group-2" transform="translate(-12.000000, -21.000000)">
            <g id="Group-12">
                <g>
                    <g id="Group-8" transform="translate(12.000000, 21.000000)">
                        <g id="Group-3">
                            <mask id="mask-2" fill="white">
                                <use xlink:href="#path-1"></use>
                            </mask>
                            <g id="Clip-2"></g>
                            <path d="M48.1470383,27.2711806 C48.1470383,27.3819548 48.0363574,27.492729 47.9267617,27.492729 L2.20146383,27.492729 C2.09078298,27.492729 1.98118723,27.3819548 1.98118723,27.2711806 L1.98118723,14.2009226 C1.98118723,12.9769226 2.97080426,11.9766645 4.18178298,11.9766645 C5.3916766,11.9766645 6.38346383,12.9769226 6.38346383,14.2009226 L6.38346383,22.2095677 C6.38346383,22.766729 6.82293191,23.2109226 7.37308085,23.2109226 L42.7551447,23.2109226 C43.3052936,23.2109226 43.7447617,22.766729 43.7447617,22.2095677 L43.7447617,14.2009226 C43.7447617,12.9769226 44.7343787,11.9766645 45.9464426,11.9766645 C47.1563362,11.9766645 48.1470383,12.9769226 48.1470383,14.2009226 L48.1470383,27.2711806 Z M42.6998043,31.9993742 L44.9004,31.9993742 L44.9004,29.4965355 L42.6998043,29.4965355 L42.6998043,31.9993742 Z M5.17248511,31.9993742 L7.37308085,31.9993742 L7.37308085,29.4965355 L5.17248511,29.4965355 L5.17248511,31.9993742 Z M8.30844255,21.2082129 L23.7712085,21.2082129 L23.7712085,17.3706 L8.30844255,17.3706 L8.30844255,21.2082129 Z M25.7504426,21.2082129 L41.708017,21.2082129 L41.708017,17.3706 L25.7504426,17.3706 L25.7504426,21.2082129 Z M5.11714468,6.41382581 C5.17248511,2.91072903 7.42842128,2.18795484 9.29914468,2.18795484 L40.7184,2.18795484 C42.5891234,2.18795484 44.9004,2.91072903 44.9004,6.41382581 L44.9004,10.1406645 C43.0839319,10.5859548 41.708017,12.2552452 41.708017,14.2009226 L41.708017,15.3678903 L8.30952766,15.3678903 L8.30952766,14.2009226 C8.30952766,12.2552452 6.93361277,10.5859548 5.11714468,10.1406645 L5.11714468,6.41382581 Z M47.0467404,10.084729 L47.0467404,6.3589871 C47.0467404,1.79750323 43.9096979,0.185245161 40.9386766,0.185245161 L9.29914468,0.185245161 C6.3281234,0.185245161 3.19108085,1.79750323 3.19108085,6.3589871 L3.19108085,10.084729 C1.37569787,10.5300194 -0.000217021277,12.1993097 -0.000217021277,14.2009226 L-0.000217021277,27.2711806 C-0.000217021277,28.4940839 0.990485106,29.4954387 2.20146383,29.4954387 L3.24642128,29.4954387 L3.24642128,31.9993742 C3.24642128,33.1104065 4.12644255,33.9998903 5.22782553,33.9998903 L7.42842128,33.9998903 C8.52871915,33.9998903 9.40982553,33.1104065 9.40982553,31.9993742 L9.40982553,29.4954387 L40.8290809,29.4954387 L40.8290809,31.9993742 C40.8290809,33.1104065 41.708017,33.9998903 42.8094,33.9998903 L45.0099957,33.9998903 C46.1113787,33.9998903 46.9914,33.1104065 46.9914,31.9993742 L46.9914,29.4954387 L48.0363574,29.4954387 C49.2473362,29.4954387 50.2380383,28.4940839 50.2380383,27.2711806 L50.2380383,14.2009226 C50.2380383,12.1993097 48.8621234,10.5300194 47.0467404,10.084729 Z" id="Fill-1" fill="#A1A1A1" mask="url(#mask-2)"></path>
                        </g>
                        <path d="M14,10.0369308 C13.4546432,10.0369308 12.9641449,9.60021513 12.9641449,9 C12.9641449,8.40086052 13.3997849,7.9630692 14,7.9630692 C14.5453568,7.9630692 15.0358551,8.40086052 15.0358551,9 C15.0358551,9.60021513 14.5453568,10.0369308 14,10.0369308 M14,6 C12.3090714,6 11,7.30907135 11,9 C11,10.6371459 12.3639297,12 14,12 C15.6360703,12 17,10.689853 17,9 C17,7.36392972 15.6909286,6 14,6" id="Fill-4" fill="#A1A1A1"></path>
                        <path d="M36,10.0369308 C35.4546432,10.0369308 34.9641449,9.60021513 34.9641449,9 C34.9641449,8.40086052 35.4546432,7.9630692 36,7.9630692 C36.5453568,7.9630692 37.0358551,8.40086052 37.0358551,9 C37.0358551,9.60021513 36.6002151,10.0369308 36,10.0369308 M36,6 C34.3090714,6 33,7.30907135 33,9 C33.0548584,10.6371459 34.3639297,12 36,12 C37.6360703,12 39,10.689853 39,9 C39,7.36392972 37.6909286,6 36,6" id="Fill-6" fill="#A1A1A1"></path>
                    </g>
                </g>
            </g>
        </g>
    </g>
</svg>