<?xml version="1.0" encoding="UTF-8"?>
<svg width="52px" height="41px" viewBox="0 0 52 41" version="1.1" xmlns="http://www.w3.org/2000/svg" xmlns:xlink="http://www.w3.org/1999/xlink">
    <!-- Generator: Sketch 52.2 (67145) - http://www.bohemiancoding.com/sketch -->
    <title>Group 20</title>
    <desc>Created with Sketch.</desc>
    <defs>
        <polygon id="path-1" points="0 0.000247619048 51.5270476 0.000247619048 51.5270476 40.4463429 0 40.4463429"></polygon>
    </defs>
    <g id="Symbols" stroke="none" stroke-width="1" fill="none" fill-rule="evenodd">
        <g id="Group-2" transform="translate(-12.000000, -17.000000)">
            <g id="Group-20">
                <g transform="translate(12.000000, 17.000000)">
                    <mask id="mask-2" fill="white">
                        <use xlink:href="#path-1"></use>
                    </mask>
                    <g id="Clip-2"></g>
                    <path d="M1.66152381,38.784819 L16.6214286,38.784819 L16.6214286,1.66300952 L1.66152381,1.66300952 L1.66152381,38.784819 Z M17.4521905,0.000247619048 L0.830761905,0.000247619048 C0.371428571,0.000247619048 0,0.37167619 0,0.832247619 L0,39.615581 C0,40.0736762 0.371428571,40.4463429 0.830761905,40.4463429 L17.4521905,40.4463429 C17.9127619,40.4463429 18.2829524,40.0736762 18.2829524,39.615581 L18.2829524,0.832247619 C18.2829524,0.37167619 17.9127619,0.000247619048 17.4521905,0.000247619048 Z" id="Fill-1" fill="#A1A1A1" mask="url(#mask-2)"></path>
                    <path d="M40.4460952,38.784819 L49.8642857,38.784819 L49.8642857,1.66300952 L40.4460952,1.66300952 L40.4460952,38.784819 Z M50.6962857,0.000247619048 L39.6153333,0.000247619048 C39.156,0.000247619048 38.7833333,0.37167619 38.7833333,0.832247619 L38.7833333,39.615581 C38.7833333,40.0736762 39.156,40.4463429 39.6153333,40.4463429 L50.6962857,40.4463429 C51.154381,40.4463429 51.5270476,40.0736762 51.5270476,39.615581 L51.5270476,0.832247619 C51.5270476,0.37167619 51.154381,0.000247619048 50.6962857,0.000247619048 Z" id="Fill-3" fill="#A1A1A1" mask="url(#mask-2)"></path>
                    <path d="M39.6153333,5.54097143 L17.4521905,5.54097143 C16.9940952,5.54097143 16.6214286,5.9124 16.6214286,6.37173333 C16.6214286,6.83106667 16.9940952,7.20373333 17.4521905,7.20373333 L39.6153333,7.20373333 C40.0734286,7.20373333 40.4460952,6.83106667 40.4460952,6.37173333 C40.4460952,5.9124 40.0734286,5.54097143 39.6153333,5.54097143" id="Fill-4" fill="#A1A1A1" mask="url(#mask-2)"></path>
                    <path d="M39.6153333,38.7845714 L17.4521905,38.7845714 C16.9940952,38.7845714 16.6214286,39.1572381 16.6214286,39.6153333 C16.6214286,40.0734286 16.9940952,40.4460952 17.4521905,40.4460952 L39.6153333,40.4460952 C40.0734286,40.4460952 40.4460952,40.0734286 40.4460952,39.6153333 C40.4460952,39.1572381 40.0734286,38.7845714 39.6153333,38.7845714" id="Fill-5" fill="#A1A1A1" mask="url(#mask-2)"></path>
                    <path d="M50.6959143,36.0133429 L0.831628571,36.0133429 C0.372295238,36.0133429 -0.000371428571,36.3860095 -0.000371428571,36.8453429 C-0.000371428571,37.3034381 0.372295238,37.6761048 0.831628571,37.6761048 L50.6959143,37.6761048 C51.1552476,37.6761048 51.5266762,37.3034381 51.5266762,36.8453429 C51.5266762,36.3860095 51.1552476,36.0133429 50.6959143,36.0133429" id="Fill-6" fill="#A1A1A1" mask="url(#mask-2)"></path>
                    <path d="M50.6959143,27.7033714 L17.451819,27.7033714 C16.9937238,27.7033714 16.6222952,28.0748 16.6222952,28.5341333 C16.6222952,28.9922286 16.9937238,29.3648952 17.451819,29.3648952 L50.6959143,29.3648952 C51.1552476,29.3648952 51.5266762,28.9922286 51.5266762,28.5341333 C51.5266762,28.0748 51.1552476,27.7033714 50.6959143,27.7033714" id="Fill-7" fill="#A1A1A1" mask="url(#mask-2)"></path>
                    <path d="M42.3853238,30.501219 C41.9259905,30.501219 41.5545619,30.9011238 41.5545619,31.359219 C41.5545619,31.8173143 41.9259905,32.191219 42.3853238,32.191219 C42.843419,32.191219 43.2160857,31.8173143 43.2160857,31.359219 L43.2160857,31.3035048 C43.2160857,30.8454095 42.843419,30.501219 42.3853238,30.501219" id="Fill-8" fill="#A1A1A1" mask="url(#mask-2)"></path>
                    <path d="M28.5335143,30.501219 C28.075419,30.501219 27.7027524,30.9011238 27.7027524,31.359219 C27.7027524,31.8173143 28.075419,32.191219 28.5335143,32.191219 C28.9928476,32.191219 29.3642762,31.8173143 29.3642762,31.359219 L29.3642762,31.3035048 C29.3642762,30.8454095 28.9928476,30.501219 28.5335143,30.501219" id="Fill-9" fill="#A1A1A1" mask="url(#mask-2)"></path>
                    <path d="M11.9117143,19.3921619 C11.452381,19.3921619 11.0809524,19.7648286 11.0809524,20.2229238 L11.0809524,20.2786381 C11.0809524,20.7379714 11.452381,21.1094 11.9117143,21.1094 C12.3722857,21.1094 12.7437143,20.7379714 12.7437143,20.2786381 L12.7437143,20.2229238 C12.7437143,19.7648286 12.3722857,19.3921619 11.9117143,19.3921619" id="Fill-10" fill="#A1A1A1" mask="url(#mask-2)"></path>
                    <path d="M6.37173333,19.3921619 C5.9124,19.3921619 5.54097143,19.7648286 5.54097143,20.2229238 L5.54097143,20.2786381 C5.54097143,20.7379714 5.9124,21.1094 6.37173333,21.1094 C6.83106667,21.1094 7.20249524,20.7379714 7.20249524,20.2786381 L7.20249524,20.2229238 C7.20249524,19.7648286 6.83106667,19.3921619 6.37173333,19.3921619" id="Fill-11" fill="#A1A1A1" mask="url(#mask-2)"></path>
                    <path d="M42.3853238,19.3921619 C41.9259905,19.3921619 41.5545619,19.7648286 41.5545619,20.2229238 L41.5545619,20.2786381 C41.5545619,20.7379714 41.9259905,21.1094 42.3853238,21.1094 C42.843419,21.1094 43.2160857,20.7379714 43.2160857,20.2786381 L43.2160857,20.2229238 C43.2160857,19.7648286 42.843419,19.3921619 42.3853238,19.3921619" id="Fill-12" fill="#A1A1A1" mask="url(#mask-2)"></path>
                    <path d="M9.14172381,-0.000247619048 C8.68239048,-0.000247619048 8.3109619,0.372419048 8.3109619,0.831752381 L8.3109619,36.8454667 C8.3109619,37.3035619 8.68239048,37.6762286 9.14172381,37.6762286 C9.60105714,37.6762286 9.97248571,37.3035619 9.97248571,36.8454667 L9.97248571,0.831752381 C9.97248571,0.372419048 9.60105714,-0.000247619048 9.14172381,-0.000247619048" id="Fill-13" fill="#A1A1A1" mask="url(#mask-2)"></path>
                    <path d="M28.5335143,24.933381 C28.075419,24.933381 27.7027524,25.3048095 27.7027524,25.7641429 L27.7027524,28.5337619 C27.7027524,28.9918571 28.075419,29.3645238 28.5335143,29.3645238 C28.9928476,29.3645238 29.3642762,28.9918571 29.3642762,28.5337619 L29.3642762,25.7641429 C29.3642762,25.3048095 28.9928476,24.933381 28.5335143,24.933381" id="Fill-14" fill="#A1A1A1" mask="url(#mask-2)"></path>
                    <path d="M21.0538095,24.9330095 L36.0137143,24.9330095 L36.0137143,18.2844381 L21.0538095,18.2844381 L21.0538095,24.9330095 Z M36.8444762,16.6216762 L20.2230476,16.6216762 C19.7637143,16.6216762 19.3922857,16.9931048 19.3922857,17.4524381 L19.3922857,25.7637714 C19.3922857,26.2218667 19.7637143,26.5945333 20.2230476,26.5945333 L36.8444762,26.5945333 C37.3038095,26.5945333 37.6752381,26.2218667 37.6752381,25.7637714 L37.6752381,17.4524381 C37.6752381,16.9931048 37.3038095,16.6216762 36.8444762,16.6216762 Z" id="Fill-15" fill="#A1A1A1" mask="url(#mask-2)"></path>
                    <path d="M39.6153333,13.8509429 L17.4521905,13.8509429 C16.9940952,13.8509429 16.6214286,14.2236095 16.6214286,14.6829429 C16.6214286,15.1422762 16.9940952,15.5137048 17.4521905,15.5137048 L39.6153333,15.5137048 C40.0734286,15.5137048 40.4460952,15.1422762 40.4460952,14.6829429 C40.4460952,14.2236095 40.0734286,13.8509429 39.6153333,13.8509429" id="Fill-16" fill="#A1A1A1" mask="url(#mask-2)"></path>
                    <path d="M36.9196286,8.31467619 C36.4677238,8.27258095 36.0591524,8.60934286 36.0170571,9.0674381 L35.5181048,14.5522 C35.4760095,15.0090571 35.8127714,15.4126762 36.2708667,15.4560095 C36.2956286,15.4572476 36.3216286,15.4584857 36.3463905,15.4584857 C36.7710571,15.4584857 37.133819,15.1341048 37.1734381,14.7020095 L37.6723905,9.21724762 C37.7144857,8.76039048 37.3764857,8.35677143 36.9196286,8.31467619" id="Fill-17" fill="#A1A1A1" mask="url(#mask-2)"></path>
                    <path d="M35.2366857,14.5292952 L34.9593524,9.04453333 C34.9370667,8.5864381 34.5408762,8.23729524 34.0877333,8.25710476 C33.6296381,8.28062857 33.276781,8.67062857 33.3003048,9.12872381 L33.5764,14.6134857 C33.5986857,15.0579619 33.9664,15.4033905 34.4071619,15.4033905 C34.4195429,15.4033905 34.4344,15.4021524 34.448019,15.4021524 C34.9073524,15.3786286 35.2602095,14.9886286 35.2366857,14.5292952" id="Fill-18" fill="#A1A1A1" mask="url(#mask-2)"></path>
                    <path d="M32.5216667,14.4651619 L32.187381,9.09059048 C32.1601429,8.63249524 31.7763333,8.28335238 31.3083333,8.31182857 C30.849,8.34154286 30.5010952,8.73525714 30.5295714,9.19335238 L30.862619,14.5679238 C30.8898571,15.0086857 31.2563333,15.3479238 31.6909048,15.3479238 C31.7082381,15.3479238 31.7268095,15.3466857 31.7429048,15.3454476 C32.2022381,15.3169714 32.5501429,14.9232571 32.5216667,14.4651619" id="Fill-19" fill="#A1A1A1" mask="url(#mask-2)"></path>
                </g>
            </g>
        </g>
    </g>
</svg>