<?xml version="1.0" encoding="UTF-8"?>
<svg width="51px" height="51px" viewBox="0 0 51 51" version="1.1" xmlns="http://www.w3.org/2000/svg" xmlns:xlink="http://www.w3.org/1999/xlink">
    <!-- Generator: Sketch 52.2 (67145) - http://www.bohemiancoding.com/sketch -->
    <title>Group 19</title>
    <desc>Created with Sketch.</desc>
    <defs>
        <polygon id="path-1" points="0 -0.0004 50.7333333 -0.0004 50.7333333 50.7329333 0 50.7329333"></polygon>
    </defs>
    <g id="Symbols" stroke="none" stroke-width="1" fill="none" fill-rule="evenodd">
        <g id="Group-3" transform="translate(-12.000000, -12.000000)">
            <g id="Group-19">
                <g transform="translate(12.000000, 12.000000)">
                    <mask id="mask-2" fill="white">
                        <use xlink:href="#path-1"></use>
                    </mask>
                    <g id="Clip-2"></g>
                    <path d="M43.968,49.0409333 L49.0413333,49.0409333 L49.0413333,38.8956 L43.968,38.8956 L43.968,49.0409333 Z M37.2053333,49.0409333 L42.2786667,49.0409333 L42.2786667,38.8956 L37.2053333,38.8956 L37.2053333,49.0409333 Z M15.22,32.1302667 L16.0653333,32.1302667 L24.5213333,32.1302667 L35.5133333,32.1302667 L35.5133333,49.0409333 L15.22,49.0409333 L15.22,32.1302667 Z M1.69066667,49.0409333 L1.69066667,38.8956 L13.5293333,38.8956 L13.5293333,49.0409333 L13.528,49.0409333 L1.69066667,49.0409333 Z M1.692,37.2049333 L13.5293333,37.2049333 L13.5293333,32.1302667 L1.692,32.1302667 L1.692,37.2049333 Z M16.9106667,30.4396 L23.6746667,30.4396 L23.6746667,27.0569333 L16.9106667,27.0569333 L16.9106667,30.4396 Z M37.2053333,37.2049333 L49.0426667,37.2049333 L49.0426667,32.1302667 L37.2053333,32.1302667 L37.2053333,37.2049333 Z M49.888,30.4396 L49.0426667,30.4396 L49.0426667,21.9836 C49.0426667,20.1182667 47.5253333,18.6022667 45.66,18.6022667 C43.7933333,18.6022667 42.2773333,20.1182667 42.2773333,21.9836 L42.2773333,22.8289333 L43.968,22.8289333 L43.968,21.9836 C43.968,21.0516 44.7266667,20.2929333 45.66,20.2929333 C46.592,20.2929333 47.3506667,21.0516 47.3506667,21.9836 L47.3506667,27.0569333 L45.66,27.0569333 L45.66,28.7489333 L47.3506667,28.7489333 L47.3506667,30.4396 L36.3586667,30.4396 L25.3666667,30.4396 L25.3666667,28.7489333 L27.0573333,28.7489333 L27.0573333,27.0569333 L25.3666667,27.0569333 L25.3666667,26.2116 C25.3666667,25.7449333 24.988,25.3676 24.5213333,25.3676 L16.0653333,25.3676 C15.5986667,25.3676 15.22,25.7449333 15.22,26.2116 L15.22,27.0569333 L13.528,27.0569333 L13.528,28.7489333 L15.22,28.7489333 L15.22,30.4396 L14.3746667,30.4396 L0.845333333,30.4396 C0.378666667,30.4396 0,30.8169333 0,31.2849333 L0,49.8862667 C0,50.3556 0.378666667,50.7329333 0.845333333,50.7329333 L14.3746667,50.7329333 L36.3586667,50.7329333 L49.8866667,50.7329333 C50.3546667,50.7329333 50.7333333,50.3556 50.7333333,49.8862667 L50.7333333,31.2849333 C50.7333333,30.8169333 50.3546667,30.4396 49.888,30.4396 Z" id="Fill-1" fill="#A1A1A1" mask="url(#mask-2)"></path>
                    <path d="M18.6026667,45.6596 L32.1306667,45.6596 L32.1306667,38.8942667 L18.6026667,38.8942667 L18.6026667,45.6596 Z M32.9773333,37.2049333 L17.756,37.2049333 C17.2906667,37.2049333 16.9106667,37.5822667 16.9106667,38.0489333 L16.9106667,46.5049333 C16.9106667,46.9729333 17.2906667,47.3502667 17.756,47.3502667 L32.9773333,47.3502667 C33.444,47.3502667 33.8213333,46.9729333 33.8213333,46.5049333 L33.8213333,38.0489333 C33.8213333,37.5822667 33.444,37.2049333 32.9773333,37.2049333 Z" id="Fill-3" fill="#A1A1A1" mask="url(#mask-2)"></path>
                    <polygon id="Fill-4" fill="#A1A1A1" mask="url(#mask-2)" points="26.212 35.5129333 27.9026667 35.5129333 27.9026667 33.8209333 26.212 33.8209333"></polygon>
                    <polygon id="Fill-5" fill="#A1A1A1" mask="url(#mask-2)" points="22.8293333 35.5129333 24.5213333 35.5129333 24.5213333 33.8209333 22.8293333 33.8209333"></polygon>
                    <polygon id="Fill-6" fill="#A1A1A1" mask="url(#mask-2)" points="19.4466667 35.5129333 21.1386667 35.5129333 21.1386667 33.8209333 19.4466667 33.8209333"></polygon>
                    <polygon id="Fill-7" fill="#A1A1A1" mask="url(#mask-2)" points="29.5933333 35.5129333 31.2853333 35.5129333 31.2853333 33.8209333 29.5933333 33.8209333"></polygon>
                    <polygon id="Fill-8" fill="#A1A1A1" mask="url(#mask-2)" points="5.91866667 35.5129333 9.30133333 35.5129333 9.30133333 33.8209333 5.91866667 33.8209333"></polygon>
                    <polygon id="Fill-9" fill="#A1A1A1" mask="url(#mask-2)" points="5.91866667 42.2769333 9.30133333 42.2769333 9.30133333 40.5849333 5.91866667 40.5849333"></polygon>
                    <polygon id="Fill-10" fill="#A1A1A1" mask="url(#mask-2)" points="41.432 35.5129333 44.8146667 35.5129333 44.8146667 33.8209333 41.432 33.8209333"></polygon>
                    <polygon id="Fill-11" fill="#A1A1A1" mask="url(#mask-2)" points="38.8946667 44.8142667 40.5866667 44.8142667 40.5866667 42.2782667 38.8946667 42.2782667"></polygon>
                    <polygon id="Fill-12" fill="#A1A1A1" mask="url(#mask-2)" points="45.66 44.8142667 47.3506667 44.8142667 47.3506667 42.2782667 45.66 42.2782667"></polygon>
                    <path d="M17.2608,13.5285333 L19.1994667,11.5898667 C19.3581333,11.4325333 19.4474667,11.2165333 19.4474667,10.9925333 L19.4474667,1.6912 L31.2861333,1.6912 L31.2861333,10.9925333 C31.2861333,11.2165333 31.3741333,11.4325333 31.5328,11.5898667 L33.4728,13.5285333 L17.2608,13.5285333 Z M14.4381333,14.6978667 C14.5688,15.0125333 14.8781333,15.2205333 15.2194667,15.2205333 L35.5128,15.2205333 C35.8554667,15.2205333 36.1634667,15.0125333 36.2941333,14.6978667 C36.4261333,14.3818667 36.3528,14.0178667 36.1114667,13.7778667 L32.9768,10.6418667 L32.9768,0.844533333 C32.9768,0.3792 32.5981333,0.000533333333 32.1301333,0.000533333333 L18.6021333,0.000533333333 C18.1354667,0.000533333333 17.7568,0.3792 17.7568,0.844533333 L17.7568,10.6418667 L14.6221333,13.7765333 C14.3794667,14.0178667 14.3074667,14.3818667 14.4381333,14.6978667 Z" id="Fill-13" fill="#A1A1A1" mask="url(#mask-2)"></path>
                    <path d="M1.69106667,1.6912 L13.5284,1.6912 L13.5284,10.1472 L1.69106667,10.1472 L1.69106667,1.6912 Z M0.845733333,11.8365333 L14.3750667,11.8365333 C14.8404,11.8365333 15.2190667,11.4578667 15.2190667,10.9925333 L15.2190667,0.844533333 C15.2190667,0.3792 14.8404,-0.0008 14.3750667,-0.0008 L0.845733333,-0.0008 C0.379066667,-0.0008 -0.000933333333,0.3792 -0.000933333333,0.844533333 L-0.000933333333,10.9925333 C-0.000933333333,11.4578667 0.379066667,11.8365333 0.845733333,11.8365333 Z" id="Fill-14" fill="#A1A1A1" mask="url(#mask-2)"></path>
                    <polygon id="Fill-15" fill="#A1A1A1" mask="url(#mask-2)" points="10.1466667 8.4556 11.8386667 8.4556 11.8386667 5.07293333 10.1466667 5.07293333"></polygon>
                    <path d="M37.2053333,10.1476 L49.0426667,10.1476 L49.0426667,1.6916 L37.2053333,1.6916 L37.2053333,10.1476 Z M49.888,-0.0004 L36.3586667,-0.0004 C35.8906667,-0.0004 35.5133333,0.378266667 35.5133333,0.844933333 L35.5133333,10.9916 C35.5133333,11.4582667 35.8906667,11.8369333 36.3586667,11.8369333 L49.8866667,11.8369333 C50.3546667,11.8369333 50.7333333,11.4582667 50.7333333,10.9916 L50.7333333,0.844933333 C50.7333333,0.378266667 50.3546667,-0.0004 49.888,-0.0004 Z" id="Fill-16" fill="#A1A1A1" mask="url(#mask-2)"></path>
                    <polygon id="Fill-17" fill="#A1A1A1" mask="url(#mask-2)" points="38.8946667 8.4556 40.5866667 8.4556 40.5866667 5.07293333 38.8946667 5.07293333"></polygon>
                    <path d="M5.0732,18.6028 L5.0732,22.1321333 C4.75853333,22.2441333 4.47186667,22.4161333 4.22786667,22.6348 C3.98386667,22.4161333 3.6972,22.2441333 3.38253333,22.1321333 L3.38253333,18.6028 L5.0732,18.6028 Z M8.45586667,18.6028 L8.45586667,22.1321333 C8.13986667,22.2441333 7.8532,22.4161333 7.6092,22.6348 C7.3652,22.4161333 7.07986667,22.2428 6.76386667,22.1308 L6.76386667,18.6028 L8.45586667,18.6028 Z M9.29986667,25.3668 C8.83586667,25.3668 8.45586667,24.9868 8.45586667,24.5201333 C8.45586667,24.0548 8.83586667,23.6761333 9.29986667,23.6761333 C9.76653333,23.6761333 10.1465333,24.0548 10.1465333,24.5201333 C10.1465333,24.9868 9.76653333,25.3668 9.29986667,25.3668 Z M5.91853333,25.3668 C5.4532,25.3668 5.0732,24.9868 5.0732,24.5201333 C5.0732,24.0548 5.4532,23.6761333 5.91853333,23.6761333 C6.3852,23.6761333 6.76386667,24.0548 6.76386667,24.5201333 C6.76386667,24.9868 6.3852,25.3668 5.91853333,25.3668 Z M2.5372,25.3668 C2.07053333,25.3668 1.69053333,24.9868 1.69053333,24.5201333 C1.69053333,24.0548 2.07053333,23.6761333 2.5372,23.6761333 C3.00253333,23.6761333 3.38253333,24.0548 3.38253333,24.5201333 C3.38253333,24.9868 3.00253333,25.3668 2.5372,25.3668 Z M-0.000133333333,24.5201333 C-0.000133333333,25.9188 1.1372,27.0574667 2.5372,27.0574667 C3.18653333,27.0574667 3.77853333,26.8094667 4.22786667,26.4068 C4.6772,26.8094667 5.2692,27.0574667 5.91853333,27.0574667 C6.5692,27.0574667 7.15986667,26.8094667 7.6092,26.4068 C8.05986667,26.8094667 8.65186667,27.0574667 9.29986667,27.0574667 C10.6998667,27.0574667 11.8385333,25.9188 11.8385333,24.5201333 C11.8385333,23.4188 11.1305333,22.4814667 10.1465333,22.1321333 L10.1465333,18.6028 L15.2198667,18.6028 L15.2198667,16.9108 L10.1465333,16.9108 L10.1465333,15.2201333 L8.45586667,15.2201333 L8.45586667,16.9108 L6.76386667,16.9108 L6.76386667,15.2201333 L5.0732,15.2201333 L5.0732,16.9108 L3.38253333,16.9108 L3.38253333,15.2201333 L1.69053333,15.2201333 L1.69053333,16.9108 L-0.000133333333,16.9108 L-0.000133333333,18.6028 L1.69053333,18.6028 L1.69053333,22.1308 C0.707866667,22.4814667 -0.000133333333,23.4188 -0.000133333333,24.5201333 Z" id="Fill-18" fill="#A1A1A1" mask="url(#mask-2)"></path>
                </g>
            </g>
        </g>
    </g>
</svg>