<?xml version="1.0" encoding="UTF-8"?>
<svg width="46px" height="46px" viewBox="0 0 46 46" version="1.1" xmlns="http://www.w3.org/2000/svg" xmlns:xlink="http://www.w3.org/1999/xlink">
    <!-- Generator: Sketch 52.2 (67145) - http://www.bohemiancoding.com/sketch -->
    <title>Group 7</title>
    <desc>Created with Sketch.</desc>
    <g id="new-pages" stroke="none" stroke-width="1" fill="none" fill-rule="evenodd">
        <g id="01_website_page_sborka_moscow_2" transform="translate(-1050.000000, -403.000000)" fill="#83C150">
            <g id="Group" transform="translate(1035.000000, 388.000000)">
                <g id="Group-7" transform="translate(15.000000, 15.000000)">
                    <path d="M43.9999389,29.0000082 C43.9999389,31.7580431 41.7559404,33.9999837 38.9999735,33.9999837 C38.4479739,33.9999837 37.9999429,34.4480156 37.9999429,35.0000163 L37.9999429,42.5859954 L29.7080423,34.2920153 C29.5199799,34.1060151 29.2660114,33.9999837 28.999949,33.9999837 L6.99993274,33.9999837 C4.24405962,33.9999837 1.99996739,31.7580431 1.99996739,29.0000082 L1.99996739,6.99994701 C1.99996739,4.24200576 4.24405962,1.99997147 6.99993274,1.99997147 L38.9999735,1.99997147 C41.7559404,1.99997147 43.9999389,4.24200576 43.9999389,6.99994701 L43.9999389,29.0000082 Z M38.9999735,0 L6.99993274,0 C3.13996662,0 0,3.13997302 0,6.99994701 L0,29.0000082 C0,32.8600759 3.13996662,36.0000489 6.99993274,36.0000489 L28.5859493,36.0000489 L38.291974,45.7080621 C38.4839739,45.8979999 38.7400049,46 38.9999735,46 C39.1279422,46 39.2579733,45.9740312 39.3819107,45.9239686 C39.755973,45.7700309 40.0000041,45.4040304 40.0000041,45.0000611 L40.0000041,35.9300176 C43.388033,35.4420482 46,32.5200442 46,29.0000082 L46,6.99994701 C46,3.13997302 42.8600334,0 38.9999735,0 Z" id="Fill-1"></path>
                    <path d="M24,27.9999375 C23.448,27.9999375 22.9999688,27.5499375 22.9999688,27 C22.9999688,26.4499687 23.448,25.9999687 24,25.9999687 C24.552,25.9999687 25.0000312,26.4499687 25.0000312,27 C25.0000312,27.5499375 24.552,27.9999375 24,27.9999375 M24,24 C22.3459688,24 21,25.3459687 21,27 C21,28.6540312 22.3459688,30 24,30 C25.6539375,30 27,28.6540312 27,27 C27,25.3459687 25.6539375,24 24,24" id="Fill-3"></path>
                    <path d="M26.0000122,8.24706006 L25.1359139,18.7509478 C25.0939091,19.3820715 24.5937897,19.8750374 23.9837828,19.8750374 C23.3876524,19.8750374 22.8895958,19.3820715 22.845622,18.7339146 L22.0014947,8.26399363 C21.9815237,7.96446882 22.0755656,7.67968617 22.2674937,7.4629366 C22.4596093,7.24618702 22.7196077,7.12506226 22.9996708,7.12506226 L24.9998671,7.12506226 C25.2798365,7.12506226 25.5399286,7.24618702 25.7319504,7.4629366 C25.9239723,7.67968617 26.0179205,7.96446882 26.0000122,8.24706006 M24.9998671,5 L22.9996708,5 C22.1695138,5 21.371423,5.36984889 20.8053899,6.01581442 C20.2393567,6.65968816 19.9492612,7.53306146 20.0072991,8.4297433 L20.8533953,18.8996643 C20.9693773,20.6379441 22.3455026,22 23.9998158,22 C25.6398775,22 27.0160966,20.6379441 27.1301095,18.9166974 L27.9922389,8.41490153 C28.0522457,7.53515325 27.7621502,6.66177996 27.196117,6.01581442 C26.6300839,5.36984889 25.8300241,5 24.9998671,5" id="Fill-5"></path>
                </g>
            </g>
        </g>
    </g>
</svg>