<svg width="75" height="75" viewBox="0 0 75 75" fill="none" xmlns="http://www.w3.org/2000/svg">
<path fill-rule="evenodd" clip-rule="evenodd" d="M52.8828 24C53.5781 24 54.2227 24.3604 54.5859 24.9519L62 37V53C62 53.6758 61.6641 54.2732 61.1523 54.6353C60.8281 54.865 60.4297 55 60 55H15C13.8945 55 13 54.1045 13 53V18C13 17.5273 13.1641 17.0928 13.4375 16.7505C13.6758 16.4556 13.9922 16.2292 14.3555 16.1055C14.5586 16.0371 14.7734 16 15 16H42C43.1055 16 44 16.8955 44 18V24H52.8828ZM60 37L53 26H44V44H60V37ZM42 18V44H15V18H42ZM15 46V53H60V46H15Z" fill="#A1A1A1"/>
<path d="M29 54C29 56.2091 27.2091 58 25 58C22.7909 58 21 56.2091 21 54C21 51.7909 22.7909 50 25 50C27.2091 50 29 51.7909 29 54Z" fill="white" stroke="#A1A1A1" stroke-width="2"/>
<path d="M55 54C55 56.2091 53.2091 58 51 58C48.7909 58 47 56.2091 47 54C47 51.7909 48.7909 50 51 50C53.2091 50 55 51.7909 55 54Z" fill="white" stroke="#A1A1A1" stroke-width="2"/>
</svg>
