<svg width="75" height="75" viewBox="0 0 75 75" fill="none" xmlns="http://www.w3.org/2000/svg">
<path d="M21.1 29H53.9L58 61H17L21.1 29Z" stroke="#A1A1A1" stroke-width="2" stroke-linecap="round" stroke-linejoin="round"/>
<path d="M42.4004 39L32 53" stroke="#A1A1A1" stroke-width="2" stroke-linecap="round" stroke-linejoin="round"/>
<path d="M27 40C27 37.7909 28.7909 36 31 36V36C33.2091 36 35 37.7909 35 40V40C35 42.2091 33.2091 44 31 44V44C28.7909 44 27 42.2091 27 40V40Z" stroke="#A1A1A1" stroke-width="2" stroke-linecap="round" stroke-linejoin="round"/>
<path d="M40 51C40 48.7909 41.7909 47 44 47V47C46.2091 47 48 48.7909 48 51V51C48 53.2091 46.2091 55 44 55V55C41.7909 55 40 53.2091 40 51V51Z" stroke="#A1A1A1" stroke-width="2" stroke-linecap="round" stroke-linejoin="round"/>
<path d="M51 29L50.2133 24.6292C49.1058 18.4766 43.7515 14 37.5 14V14C31.2485 14 25.8942 18.4766 24.7867 24.6292L24 29" stroke="#A1A1A1" stroke-width="2" stroke-linecap="round" stroke-linejoin="round"/>
<path d="M47 29L46.3936 25.4891C45.6461 21.1614 41.8918 18 37.5 18V18C33.1082 18 29.3539 21.1614 28.6064 25.4891L28 29" stroke="#A1A1A1" stroke-width="2" stroke-linecap="round" stroke-linejoin="round"/>
</svg>
