<svg width="75" height="75" viewBox="0 0 75 75" fill="none" xmlns="http://www.w3.org/2000/svg">
<path d="M48 22V23H49H59C60.1046 23 61 23.8954 61 25C61 26.1046 60.1046 27 59 27H49H48V28V28.75C48 28.8978 47.9551 28.9432 47.9491 28.9491C47.9432 28.9551 47.8978 29 47.75 29H44H43V30V32.5C43 33.0228 42.8301 33.3807 42.6054 33.6054C42.3807 33.8301 42.0228 34 41.5 34H31.5C30.5228 34 29.6307 34.3301 28.9804 34.9804C28.3301 35.6307 28 36.5228 28 37.5V52.5C28 53.2638 27.3839 54 26.5 54H16.5C16.2002 54 15.8168 53.84 15.4884 53.5116C15.16 53.1832 15 52.7998 15 52.5V17.5C15 16.6161 15.7362 16 16.5 16H41.5C42.0228 16 42.3807 16.1699 42.6054 16.3946C42.8301 16.6193 43 16.9772 43 17.5V20V21H44H47.75C47.8978 21 47.9432 21.0449 47.9491 21.0509C47.9551 21.0568 48 21.1022 48 21.25V22Z" fill="white" stroke="#A1A1A1" stroke-width="2"/>
<path fill-rule="evenodd" clip-rule="evenodd" d="M42 21H44V29H42V21Z" fill="#A1A1A1"/>
<path fill-rule="evenodd" clip-rule="evenodd" d="M16 48H29V50H16V48Z" fill="#A1A1A1"/>
<path d="M15 50C15 49.4477 15.4477 49 16 49H36C36.5523 49 37 49.4477 37 50V58C37 58.5523 36.5523 59 36 59H16C15.4477 59 15 58.5523 15 58V50Z" fill="white" stroke="#A1A1A1" stroke-width="2"/>
</svg>
