<svg width="75" height="75" viewBox="0 0 75 75" fill="none" xmlns="http://www.w3.org/2000/svg">
<path d="M28.4348 31L16 52H60L47.5652 31" stroke="#A1A1A1" stroke-width="2"/>
<path d="M28 28H48V31H28V28Z" stroke="#A1A1A1" stroke-width="2"/>
<mask id="path-3-inside-1" fill="white">
<path d="M37 19H39V28H37V19Z"/>
</mask>
<path d="M37 19V17H35V19H37ZM39 19H41V17H39V19ZM39 28V30H41V28H39ZM37 28H35V30H37V28ZM37 21H39V17H37V21ZM37 19V28H41V19H37ZM39 26H37V30H39V26ZM39 28V19H35V28H39Z" fill="#A1A1A1" mask="url(#path-3-inside-1)"/>
<path d="M31 52V52.5C31 56.6421 34.3579 60 38.5 60V60C42.6421 60 46 56.6421 46 52.5V52" stroke="#A1A1A1" stroke-width="2"/>
</svg>
