<svg width="75" height="75" viewBox="0 0 75 75" fill="none" xmlns="http://www.w3.org/2000/svg">
<path d="M37 57C48.0457 57 57 48.0457 57 37C57 31.3925 54.6922 26.3239 50.9746 22.6923M37 17C25.9543 17 17 25.9543 17 37C17 42.4381 19.1704 47.3694 22.6923 50.9746" stroke="#A1A1A1" stroke-width="2" stroke-linecap="round" stroke-linejoin="round"/>
<path d="M32.0711 10.2927C31.6805 9.90218 31.0474 9.90218 30.6569 10.2927C30.2663 10.6832 30.2663 11.3164 30.6569 11.7069L32.0711 10.2927ZM37.7279 17.3638L38.435 18.0709C38.8256 17.6804 38.8256 17.0472 38.435 16.6567L37.7279 17.3638ZM30.6569 23.0206C30.2663 23.4111 30.2663 24.0443 30.6569 24.4348C31.0474 24.8254 31.6805 24.8254 32.0711 24.4348L30.6569 23.0206ZM30.6569 11.7069L37.0208 18.0709L38.435 16.6567L32.0711 10.2927L30.6569 11.7069ZM37.0208 16.6567L30.6569 23.0206L32.0711 24.4348L38.435 18.0709L37.0208 16.6567Z" fill="#A1A1A1"/>
<path d="M42.2929 50.2928C42.6835 49.9023 43.3167 49.9024 43.7072 50.2929C44.0976 50.6835 44.0976 51.3167 43.707 51.7072L42.2929 50.2928ZM36.9986 57L36.2394 57.6508C35.8993 57.2541 35.922 56.6623 36.2916 56.2928L36.9986 57ZM43.7592 63.3492C44.1186 63.7684 44.0701 64.3998 43.6508 64.7592C43.2316 65.1187 42.6002 65.0702 42.2408 64.6509L43.7592 63.3492ZM43.707 51.7072L37.7057 57.7072L36.2916 56.2928L42.2929 50.2928L43.707 51.7072ZM37.7578 56.3491L43.7592 63.3492L42.2408 64.6509L36.2394 57.6508L37.7578 56.3491Z" fill="#A1A1A1"/>
<circle cx="37" cy="37" r="10" stroke="#A1A1A1" stroke-width="2"/>
<path d="M39 37C39 38.1046 38.1046 39 37 39C35.8954 39 35 38.1046 35 37C35 35.8954 35.8954 35 37 35C37.3643 35 37.7058 35.0974 38 35.2676M39 37C39 36.2597 38.5978 35.6134 38 35.2676M39 37H43.5M38 35.2676L39.5 33" stroke="#A1A1A1" stroke-width="2" stroke-linecap="round" stroke-linejoin="round"/>
</svg>
