<svg width="75" height="75" viewBox="0 0 75 75" fill="none" xmlns="http://www.w3.org/2000/svg">
<path d="M21 41.1429H27V46H16V24H20V40.1429V41.1429H21Z" fill="white" stroke="#A1A1A1" stroke-width="2"/>
<path fill-rule="evenodd" clip-rule="evenodd" d="M15 41H17V45H26V41H28V45V47V54H26V47H17V54H15V47V45V41Z" fill="#A1A1A1"/>
<path d="M54 41.1429H48V46H59V24H55V40.1429V41.1429H54Z" fill="white" stroke="#A1A1A1" stroke-width="2"/>
<path fill-rule="evenodd" clip-rule="evenodd" d="M47 41H49V45H58V41H60V45V47V54H58V47H49V54H47V47V45V41Z" fill="#A1A1A1"/>
<path d="M25 30H50V33H25V30Z" fill="white" stroke="#A1A1A1" stroke-width="2"/>
<path d="M39 33V53H36V33H39Z" fill="white" stroke="#A1A1A1" stroke-width="2"/>
<path d="M33 28.5C33 26.0147 35.0147 24 37.5 24C39.9853 24 42 26.0147 42 28.5V30H33V28.5Z" fill="white" stroke="#A1A1A1" stroke-width="2"/>
</svg>
