<?xml version="1.0" encoding="UTF-8"?>
<svg width="25px" height="24px" viewBox="0 0 25 24" version="1.1" xmlns="http://www.w3.org/2000/svg" xmlns:xlink="http://www.w3.org/1999/xlink">
    <!-- Generator: Sketch 50.2 (55047) - http://www.bohemiancoding.com/sketch -->
    <title>Combined Shape</title>
    <desc>Created with Sketch.</desc>
    <defs></defs>
    <g id="Symbols" stroke="none" stroke-width="1" fill="none" fill-rule="evenodd">
        <g id="header-new" transform="translate(-1351.000000, -69.000000)" fill="#A1A1A1" fill-rule="nonzero">
            <g transform="translate(-25.000000, 0.000000)" id="cart">
                <g transform="translate(1376.000000, 60.000000)">
                    <path d="M0.99996184,11.0000021 C0.447698165,11.0000021 0,10.5523039 0,10.0000403 C0,9.44777659 0.447698165,9.00007843 0.99996184,9.00007843 L1.99992368,9.00007843 C3.62116414,8.98973217 5.07232044,10.0039381 5.61978554,11.5299819 L6.49975196,13.9998876 L23.9991223,13.9998876 C24.3204855,13.9995957 24.6224064,14.1537719 24.8105978,14.4142683 C24.9987891,14.6747647 25.0503156,15.0098343 24.9490861,15.3148374 L22.4041832,22.9495461 C21.9955229,24.173639 20.8497981,24.9992052 19.5592918,24.9994679 L10.4096028,24.9994679 C9.13956023,24.9980167 8.00805751,24.1969528 7.58471056,22.9995442 L3.70485862,12.2049561 C3.44756208,11.4839187 2.76549082,11.0018683 1.99992368,11.0000021 L0.99996184,11.0000021 Z M22.6141752,15.9998113 L7.20472506,15.9998113 L9.46963863,22.3345696 C9.61110974,22.7324733 9.98729887,22.9986071 10.4096028,22.9995442 L19.5592918,22.9995442 C19.9868307,22.9956511 20.3645932,22.7203667 20.4992559,22.3145703 L22.6141752,15.9998113 Z M6.99973288,29.9992771 C6.99973288,28.342486 8.34282738,26.9993915 9.9996184,26.9993915 C11.6564094,26.9993915 12.9995039,28.342486 12.9995039,29.9992771 C12.9995039,31.6560681 11.6564094,32.9991626 9.9996184,32.9991626 C8.34282738,32.9991626 6.99973288,31.6560681 6.99973288,29.9992771 Z M10.9995802,29.9992771 C10.9995802,29.4470134 10.5518821,28.9993152 9.9996184,28.9993152 C9.44735473,28.9993152 8.99965656,29.4470134 8.99965656,29.9992771 C8.99965656,30.5515407 9.44735473,30.9992389 9.9996184,30.9992389 C10.5518821,30.9992389 10.9995802,30.5515407 10.9995802,29.9992771 Z M15.9994276,29.9992771 C15.9994276,28.342486 17.3425221,26.9993915 18.9993131,26.9993915 C20.6561041,26.9993915 21.9991986,28.342486 21.9991986,29.9992771 C21.9991986,31.6560681 20.6561041,32.9991626 18.9993131,32.9991626 C17.3425221,32.9991626 15.9994276,31.6560681 15.9994276,29.9992771 Z M18.9993131,30.9992389 C19.5515768,30.9992389 19.999275,30.5515407 19.999275,29.9992771 C19.999275,29.4470134 19.5515768,28.9993152 18.9993131,28.9993152 C18.4470494,28.9993152 17.9993513,29.4470134 17.9993513,29.9992771 C17.9993513,30.5515407 18.4470494,30.9992389 18.9993131,30.9992389 Z" id="Combined-Shape"></path>
                </g>
            </g>
        </g>
    </g>
</svg>