<?xml version="1.0" encoding="UTF-8"?>
<svg width="27px" height="24px" viewBox="0 0 27 24" version="1.1" xmlns="http://www.w3.org/2000/svg" xmlns:xlink="http://www.w3.org/1999/xlink">
    <!-- Generator: Sketch 62 (91390) - https://sketch.com -->
    <title>preorder-2</title>
    <desc>Created with Sketch.</desc>
    <g id="Page-1" stroke="none" stroke-width="1" fill="none" fill-rule="evenodd">
        <g id="preorder-2" fill="#FFFFFF" fill-rule="nonzero">
            <path d="M10,18 C11.656,18 13,19.342 13,21 C13,22.656 11.656,24 10,24 C8.343,24 7,22.656 7,21 C7,19.342 8.343,18 10,18 Z M19,18 C20.656,18 22,19.342 22,21 C22,22.656 20.656,24 19,24 C17.343,24 16,22.656 16,21 C16,19.342 17.343,18 19,18 Z M10,20 C9.447,20 9,20.447 9,21 C9,21.552 9.447,22 10,22 C10.552,22 11,21.552 11,21 C11,20.447 10.552,20 10,20 Z M19,20 C18.447,20 18,20.447 18,21 C18,21.552 18.447,22 19,22 C19.552,22 20,21.552 20,21 C20,20.447 19.552,20 19,20 Z M2,-7.97702315e-05 C3.554,-0.01 4.951,0.921 5.547,2.342 L5.62,2.53 L6.5,5 L15.019,5 C15.006,5.165 15,5.332 15,5.5 C15,6.016 15.06,6.518 15.174,7 L7.204,7 L9.47,13.335 C9.597,13.693 9.914,13.945 10.284,13.991 L10.41,14 L19.56,14 C19.944,13.996 20.289,13.773 20.452,13.432 L20.499,13.315 L20.948,11.977 C21.13,11.992 21.314,12 21.5,12 C22.06,12 22.604,11.93 23.123,11.796 L22.404,13.95 C22.015,15.115 20.957,15.92 19.743,15.994 L19.559,15.999 L10.409,15.999 C9.203,15.999 8.122,15.275 7.653,14.176 L7.585,14 L3.705,3.205 C3.465,2.532 2.855,2.067 2.152,2.007 L2,2 L1,2 C0.448,2 0,1.552 0,1 C0,0.487 0.386,0.065 0.883,0.007 L1,-7.97702315e-05 L2,-7.97702315e-05 Z" id="Shape"></path>
            <path d="M21.5,0 C24.538,0 27,2.462 27,5.5 C27,8.538 24.538,11 21.5,11 C18.462,11 16,8.538 16,5.5 C16,2.462 18.462,0 21.5,0 Z M21.5,1.692 C19.397,1.692 17.692,3.397 17.692,5.5 C17.692,7.603 19.397,9.308 21.5,9.308 C23.603,9.308 25.308,7.603 25.308,5.5 C25.308,3.397 23.603,1.692 21.5,1.692 Z M22,3 L22,5.5 L23.32,6.592 L22.507,7.437 L21,6 L21,3 L22,3 Z" id="Shape"></path>
        </g>
    </g>
</svg>