<svg width="75" height="75" viewBox="0 0 75 75" fill="none" xmlns="http://www.w3.org/2000/svg">
<path d="M14.7227 35.4209V60.0001C14.7227 61.657 16.0658 63.0001 17.7227 63.0001H58.2626C59.9194 63.0001 61.2626 61.657 61.2626 60.0001V35.4209" stroke="#A1A1A1" stroke-width="2" stroke-linecap="round" stroke-linejoin="round"/>
<path d="M33.6844 35.4206H13V26.3547C13 24.6979 14.3431 23.3547 16 23.3547H59.9873C61.6442 23.3547 62.9873 24.6979 62.9873 26.3547V35.4206H42.3029" stroke="#A1A1A1" stroke-width="2" stroke-linecap="round" stroke-linejoin="round"/>
<path d="M33.6875 41.6643V23.3547H42.306V62.9998H33.6875V41.4536" stroke="#A1A1A1" stroke-width="2" stroke-linecap="round" stroke-linejoin="round"/>
<path d="M44.8912 23.355C44.8912 20.5357 44.0293 17.322 37.9964 17.322C31.9634 17.322 31.1016 20.5357 31.1016 23.355" stroke="#A1A1A1" stroke-width="2" stroke-linecap="round"/>
<path d="M43.5859 19.0455C43.5859 19.0455 47.4643 13.4435 54.3591 13.0126C61.2539 12.5816 60.392 23.3548 60.392 23.3548" stroke="#A1A1A1" stroke-width="2" stroke-linecap="round"/>
<path d="M31.9609 19.0455C31.9609 19.0455 28.0826 13.4435 21.1878 13.0126C14.293 12.5816 15.1549 23.3548 15.1549 23.3548" stroke="#A1A1A1" stroke-width="2" stroke-linecap="round"/>
</svg>
