<svg width="75" height="75" viewBox="0 0 75 75" fill="none" xmlns="http://www.w3.org/2000/svg">
<path d="M20.7586 19.8967H13V63.0001H62.9999V19.8967H55.2413M25.931 19.8967H35.4137M40.5861 19.8967H50.0689" stroke="#A1A1A1" stroke-width="2" stroke-linecap="round" stroke-linejoin="round"/>
<path d="M13 27.6553H62.9999" stroke="#A1A1A1" stroke-width="2"/>
<path d="M20.7578 15.5862C20.7578 14.1579 21.9157 13 23.344 13V13C24.7723 13 25.9302 14.1579 25.9302 15.5862V22.4827C25.9302 23.9111 24.7723 25.0689 23.344 25.0689V25.0689C21.9157 25.0689 20.7578 23.9111 20.7578 22.4827V15.5862Z" stroke="#A1A1A1" stroke-width="2" stroke-linecap="round" stroke-linejoin="round"/>
<path d="M50.0703 15.5862C50.0703 14.1579 51.2282 13 52.6565 13V13C54.0848 13 55.2427 14.1579 55.2427 15.5862V22.4827C55.2427 23.9111 54.0848 25.0689 52.6565 25.0689V25.0689C51.2282 25.0689 50.0703 23.9111 50.0703 22.4827V15.5862Z" stroke="#A1A1A1" stroke-width="2" stroke-linecap="round" stroke-linejoin="round"/>
<path d="M35.418 15.5862C35.418 14.1579 36.5759 13 38.0042 13V13C39.4325 13 40.5904 14.1579 40.5904 15.5862V22.4827C40.5904 23.9111 39.4325 25.0689 38.0042 25.0689V25.0689C36.5759 25.0689 35.418 23.9111 35.418 22.4827V15.5862Z" stroke="#A1A1A1" stroke-width="2" stroke-linecap="round" stroke-linejoin="round"/>
<circle cx="23.7724" cy="36.431" r="2.15517" stroke="#A1A1A1" stroke-width="2"/>
<circle cx="23.7724" cy="46.0517" r="2.15517" stroke="#A1A1A1" stroke-width="2"/>
<circle cx="23.7724" cy="55.6723" r="2.15517" stroke="#A1A1A1" stroke-width="2"/>
<circle cx="37.5731" cy="36.431" r="2.15517" stroke="#A1A1A1" stroke-width="2"/>
<circle cx="37.5731" cy="46.0517" r="2.15517" stroke="#A1A1A1" stroke-width="2"/>
<circle cx="37.5731" cy="55.6723" r="2.15517" stroke="#A1A1A1" stroke-width="2"/>
<circle cx="51.3622" cy="36.431" r="2.15517" stroke="#A1A1A1" stroke-width="2"/>
<circle cx="51.3622" cy="46.0517" r="2.15517" stroke="#A1A1A1" stroke-width="2"/>
<circle cx="51.3622" cy="55.6723" r="2.15517" stroke="#A1A1A1" stroke-width="2"/>
</svg>
