<?xml version="1.0" encoding="UTF-8"?>
<svg width="51px" height="35px" viewBox="0 0 51 35" version="1.1" xmlns="http://www.w3.org/2000/svg" xmlns:xlink="http://www.w3.org/1999/xlink">
    <!-- Generator: Sketch 62 (91390) - https://sketch.com -->
    <title>Shape</title>
    <desc>Created with Sketch.</desc>
    <g id="Page-1" stroke="none" stroke-width="1" fill="none" fill-rule="evenodd">
        <g id="delivery" fill="#000000" fill-rule="nonzero">
            <path d="M32.13,0 C32.61,0 33,0.387 33,0.866 L33,3.999 L41.003,4 C44.515,4 45.656,6.203 46.975,8.753 L50.891,16.866 C50.961,16.998 51,17.145 51,17.294 L51,30.13 C51,30.61 50.62,31 50.151,31 L44.972,31 C44.722,33.246 42.812,35 40.501,35 C38.189,35 36.277,33.246 36.028,31 L15.972,31 C15.722,33.247 13.812,35 11.5,35 C9.189,35 7.278,33.247 7.028,31 L0.87,31 C0.39,31 0,30.613 0,30.135 L0,0.865 C0,0.388 0.39,0 0.87,0 L32.13,0 Z M40.5,28 C39.123,28 38,29.122 38,30.5 C38,31.879 39.123,33 40.5,33 C41.877,33 43,31.879 43,30.5 C43,29.122 41.877,28 40.5,28 Z M11.5,28 C10.121,28 9,29.122 9,30.5 C9,31.879 10.121,33 11.5,33 C12.879,33 14,31.879 14,30.5 C14,29.122 12.879,28 11.5,28 Z M31.259,28.131 L15.325,28.131 C15.543,28.481 15.714,28.864 15.829,29.269 L31.259,29.269 L31.259,28.131 Z M7.675,28.131 L1.74,28.131 L1.74,29.27 L7.171,29.27 C7.263,28.945 7.391,28.635 7.551,28.345 L7.675,28.131 Z M37,5.74 L33,5.74 L33,29.26 L36.174,29.26 C36.694,27.445 38.331,26.096 40.289,26.005 L40.501,26 C42.551,26 44.287,27.38 44.826,29.26 L49.302,29.26 L49.302,17.522 L48.568,15.997 L48.508,16.001 L37.493,16.001 C37.221,16.001 37.001,15.777 37.001,15.501 L37.001,5.74 L37,5.74 Z M31.26,1.732 L1.74,1.732 L1.74,27.132 L8.52,27.132 C9.265,26.472 10.23,26.055 11.289,26.006 L11.5,26 C12.642,26 13.686,26.428 14.48,27.131 L31.26,27.131 L31.26,1.731 L31.26,1.732 Z M39.55,17 C39.798,17 40,17.224 40,17.5 C40,17.776 39.798,18 39.55,18 L38.45,18 C38.202,18 38,17.776 38,17.5 C38,17.224 38.202,17 38.45,17 L39.55,17 Z M42.392,6 L38,6 L38,15 L48,15 L44.845,8.385 C44.159,7.159 43.563,6.387 42.642,6.012 C42.562,6.004 42.479,6 42.392,6 Z" id="Shape"></path>
        </g>
    </g>
</svg>