<svg width="44" height="43" viewBox="0 0 44 43" fill="none" xmlns="http://www.w3.org/2000/svg">
<path d="M21.5557 0.00262508C24.9361 0.00262508 28.1518 0.776457 31.0369 2.16075C31.4892 2.36416 31.9445 2.60908 32.3957 2.85423L30.4183 4.60794L27.4516 1.55034L22.3415 6.03243L19.3319 2.81409L9.93381 11.168L15.9516 17.7279L13.6021 19.7628L19.5381 26.3229L17.1886 28.3604L25.6817 37.6917L30.7075 33.1265L35.0785 38.0184C34.2124 38.6704 33.2645 39.3236 32.235 39.8926C29.1023 41.6464 25.4742 42.6612 21.5985 42.6612C9.68614 42.6612 0.000126413 33.089 0.000126413 21.3132C-0.0403529 9.619 9.64595 0 21.557 0L21.5557 0.00262508ZM17.5983 20.0079L22.7525 15.4427L27.3686 20.538L22.2143 25.1005L17.5983 20.0079ZM21.2665 28.8102L26.3806 24.2049L31.0369 29.299L25.8826 33.8641L21.2665 28.8102ZM13.9327 11.3286L19.0829 6.76607L23.7017 11.8587L18.5475 16.424L13.9327 11.3286ZM23.371 8.88543L27.2026 5.46217L30.666 9.25093L26.8304 12.7143L23.3683 8.88543H23.371ZM30.2121 24.5717L34.0437 21.1498L37.5071 24.9787L33.6729 28.4034L30.2121 24.5717ZM33.5912 32.2737L37.4254 28.8504L40.8862 32.6392L37.0532 36.1026L33.5912 32.2737ZM35.1575 14.6689L37.7146 12.389L40.0213 14.9152L37.467 17.1964L35.1575 14.6689ZM31.8602 7.13157L34.4172 4.81023L36.7266 7.37786L34.1695 9.66045L31.8615 7.13296L31.8602 7.13157ZM38.4161 22.2102L40.9705 19.9276L43.3187 22.4538L40.7215 24.735L38.4161 22.2102ZM26.9161 16.5445L30.749 13.1226L34.211 16.9114L30.3795 20.3346L26.9161 16.5445Z" fill="#A1A1A1"/>
</svg>
