<svg width="75" height="75" viewBox="0 0 75 75" fill="none" xmlns="http://www.w3.org/2000/svg">
<path d="M43.7518 29.1208C51.7782 32.8858 57.5591 42.9597 57.5591 50.4598C57.5591 59.859 48.4796 63 37.2796 63C26.0795 63 17 59.859 17 50.4598C17 42.9597 22.7809 32.8858 30.8074 29.1208" stroke="#A1A1A1" stroke-width="2"/>
<path d="M43.7517 23.7352L47.2035 17.263C44.1832 17.263 43.8844 14.0465 42.8887 13.8111C38.2371 12.7118 36.5808 12.7476 31.6703 13.8111C30.5759 14.0482 29.9443 16.8315 27.3555 17.263L30.8073 23.7352" stroke="#A1A1A1" stroke-width="2" stroke-linecap="round" stroke-linejoin="round"/>
<path d="M29.9477 24.1665C35.0028 23.7728 39.5629 23.7692 44.6181 24.1665C45.0602 25.8114 44.1189 27.6262 43.7551 29.3443C38.7 30.1311 35.8658 30.0722 30.8107 29.3443C30.3063 27.6205 29.5084 25.8178 29.9477 24.1665Z" stroke="#A1A1A1" stroke-width="2" stroke-linecap="round" stroke-linejoin="round"/>
<path d="M35.9922 41.4258V52.6443" stroke="#A1A1A1" stroke-width="2" stroke-linecap="round" stroke-linejoin="round"/>
<path d="M35.9922 48.3295C38.8518 48.3295 41.1699 46.784 41.1699 44.8776C41.1699 42.9712 38.8518 41.4258 35.9922 41.4258" stroke="#A1A1A1" stroke-width="2" stroke-linecap="round" stroke-linejoin="round"/>
<path d="M34.2656 50.9185H37.7175" stroke="#A1A1A1" stroke-width="2" stroke-linecap="round" stroke-linejoin="round"/>
</svg>
