<?xml version="1.0" encoding="UTF-8"?>
<svg width="19px" height="14px" viewBox="0 0 19 14" version="1.1" xmlns="http://www.w3.org/2000/svg" xmlns:xlink="http://www.w3.org/1999/xlink">
    <!-- Generator: Sketch 50.2 (55047) - http://www.bohemiancoding.com/sketch -->
    <title>Combined Shape</title>
    <desc>Created with Sketch.</desc>
    <defs></defs>
    <g id="Symbols" stroke="none" stroke-width="1" fill="none" fill-rule="evenodd">
        <g id="UI/badge/delivery" transform="translate(-10.000000, -5.000000)" fill="#83C150" fill-rule="nonzero">
            <path d="M23,5 L23,13 L10,13 L10,5 L23,5 Z M15.9499909,17 C15.7183558,15.8588798 14.709479,15 13.5,15 C12.290521,15 11.2816442,15.8588798 11.0500091,17 L10.0408163,17 L10.0408163,14 L24,14 L24,8 L26,8 L29,11 L29,17 L27.9499909,17 C27.7183558,15.8588798 26.709479,15 25.5,15 C24.290521,15 23.2816442,15.8588798 23.0500091,17 L15.9499909,17 Z M13.5,19 C12.6715729,19 12,18.3284271 12,17.5 C12,16.6715729 12.6715729,16 13.5,16 C14.3284271,16 15,16.6715729 15,17.5 C15,18.3284271 14.3284271,19 13.5,19 Z M25.5,19 C24.6715729,19 24,18.3284271 24,17.5 C24,16.6715729 24.6715729,16 25.5,16 C26.3284271,16 27,16.6715729 27,17.5 C27,18.3284271 26.3284271,19 25.5,19 Z" id="Combined-Shape"></path>
        </g>
    </g>
</svg>