<svg width="46" height="42" viewBox="0 0 46 42" fill="none" xmlns="http://www.w3.org/2000/svg">
<rect x="4.79297" y="1" width="13.6552" height="3.03448" stroke="#A1A1A1" stroke-width="2"/>
<path d="M19.2076 12.6554V9.70571C19.2076 8.15326 18.8461 6.62213 18.1518 5.23357L17.6903 4.31055H5.5524L5.09088 5.23357C4.39661 6.62213 4.03516 8.15326 4.03516 9.70571V19.8623C4.03516 20.9097 4.88427 21.7588 5.93171 21.7588V21.7588C6.97914 21.7588 7.82826 20.9097 7.82826 19.8623V14.3517C7.82826 13.3121 8.41564 12.3617 9.3455 11.8968L9.50568 11.8167C10.3374 11.4008 10.8627 10.5508 10.8627 9.62089V9.62089" stroke="#A1A1A1" stroke-width="2" stroke-linecap="round" stroke-linejoin="round"/>
<path d="M4.03448 12.6553H1V29.3449H37.4138M8.58621 12.6553H45V29.3449H41.9655" stroke="#A1A1A1" stroke-width="2"/>
<rect x="41.207" y="41" width="13.6552" height="3.03448" transform="rotate(-180 41.207 41)" stroke="#A1A1A1" stroke-width="2"/>
<path d="M26.7924 29.3446V32.2943C26.7924 33.8467 27.1539 35.3779 27.8482 36.7664L28.3097 37.6895H40.4476L40.9091 36.7664C41.6034 35.3779 41.9648 33.8467 41.9648 32.2943V22.1377C41.9648 21.0903 41.1157 20.2412 40.0683 20.2412V20.2412C39.0209 20.2412 38.1717 21.0903 38.1717 22.1377V27.6483C38.1717 28.6879 37.5844 29.6383 36.6545 30.1032L36.4943 30.1833C35.6626 30.5992 35.1373 31.4492 35.1373 32.3791V32.3791" stroke="#A1A1A1" stroke-width="2" stroke-linecap="round" stroke-linejoin="round"/>
<path d="M22 16V26" stroke="#A1A1A1" stroke-width="2"/>
<path d="M21 16.5C28 16.5 27 21.4829 21.9648 21.4829" stroke="#A1A1A1" stroke-width="2"/>
<path d="M25 24C25 24 21.9526 24 20 24" stroke="#A1A1A1" stroke-width="2"/>
</svg>
