<svg width="47" height="46" viewBox="0 0 47 46" fill="none" xmlns="http://www.w3.org/2000/svg">
<path d="M32.8621 16.5517V1H1V23H29.4483" stroke="#A1A1A1" stroke-width="2" stroke-linecap="round" stroke-linejoin="round"/>
<rect x="25.2773" y="38.9312" width="19.7241" height="6.06897" stroke="#A1A1A1" stroke-width="2" stroke-linecap="round" stroke-linejoin="round"/>
<path d="M21.4844 23V29.1563C21.4844 31.8646 23.0984 34.3124 25.5878 35.3793V35.3793C26.32 35.6931 26.7947 36.413 26.7947 37.2096V38.931" stroke="#A1A1A1" stroke-width="2" stroke-linecap="round" stroke-linejoin="round"/>
<path d="M1 5.55176H32.8621M32.8621 10.1035H1" stroke="#A1A1A1" stroke-width="2" stroke-linecap="round" stroke-linejoin="round"/>
<path d="M43.484 38.9313V25.4432C43.484 19.7616 40.2739 14.5676 35.1922 12.0268L32.8633 10.8623" stroke="#A1A1A1" stroke-width="2" stroke-linecap="round" stroke-linejoin="round"/>
<path d="M39.3539 28.3302L32.3366 16.176C31.6034 14.9061 29.9796 14.4709 28.7096 15.2042V15.2042C27.4397 15.9374 27.0045 17.5612 27.7377 18.8312L30.9619 24.4156" stroke="#A1A1A1" stroke-width="2" stroke-linecap="round" stroke-linejoin="round"/>
<path d="M30.9622 24.4156C28.4223 25.882 27.552 29.1298 29.0185 31.6697C29.4257 32.375 29.9703 32.9516 30.599 33.3851" stroke="#A1A1A1" stroke-width="2" stroke-linecap="round" stroke-linejoin="round"/>
</svg>
