<?xml version="1.0" encoding="UTF-8"?>
<svg width="40px" height="40px" viewBox="0 0 40 40" version="1.1" xmlns="http://www.w3.org/2000/svg" xmlns:xlink="http://www.w3.org/1999/xlink">
    <!-- Generator: Sketch 52.2 (67145) - http://www.bohemiancoding.com/sketch -->
    <title>UI/atoms/icons/credit-2</title>
    <desc>Created with Sketch.</desc>
    <g id="Page-1" stroke="none" stroke-width="1" fill="none" fill-rule="evenodd">
        <g id="lift" transform="translate(-937.000000, -280.000000)">
            <g id="Group-Copy-3" transform="translate(937.000000, 280.000000)">
                <g id="UI/atoms/icons/credit-2">
                    <path d="M28.2922078,33 C26.3246753,33 25,31.4553073 25,29.5 C25,27.5642458 26.3441558,26 28.3311688,26 C30.2987013,26 31.6233766,27.5446927 31.6233766,29.5 C31.6233766,31.4162011 30.2792208,33 28.2922078,33 Z M26.3636364,39.8435754 L36.3181818,26.1564246 L38.6363636,26.1564246 L28.6818182,39.8435754 L26.3636364,39.8435754 Z M36.6688312,40 C34.7012987,40 33.3766234,38.4553073 33.3766234,36.5 C33.3766234,34.5642458 34.7207792,33 36.7077922,33 C38.6753247,33 40,34.5446927 40,36.5 C40,38.4162011 38.6558442,40 36.6688312,40 Z M28.3311688,31.2206704 C29.1493506,31.2206704 29.5779221,30.4189944 29.5779221,29.5 C29.5779221,28.5810056 29.0714286,27.7793296 28.2922078,27.7793296 C27.474026,27.7793296 27.0454545,28.5614525 27.0454545,29.5 C27.0454545,30.4189944 27.5519481,31.2206704 28.3311688,31.2206704 Z M36.7077922,38.2206704 C37.525974,38.2206704 37.9545455,37.4189944 37.9545455,36.5 C37.9545455,35.5810056 37.4480519,34.7793296 36.6688312,34.7793296 C35.8506494,34.7793296 35.4220779,35.5614525 35.4220779,36.5 C35.4220779,37.4189944 35.9285714,38.2206704 36.7077922,38.2206704 Z" id="Combined-Shape" fill="#A1A1A1" fill-rule="nonzero"></path>
                    <path d="M22,39.9012495 C21.3421875,39.9665611 20.6749988,40 20,40 C8.954305,40 0,31.045695 0,20 C0,8.954305 8.954305,0 20,0 C31.045695,0 40,8.954305 40,20 C40,20.6749988 39.9665611,21.3421875 39.9012495,22 L37.8901424,22 C37.9627334,21.3433323 38,20.6760182 38,20 C38,10.0588745 29.9411255,2 20,2 C10.0588745,2 2,10.0588745 2,20 C2,29.9411255 10.0588745,38 20,38 C20.6760182,38 21.3433323,37.9627334 22,37.8901424 L22,39.9012495 Z" id="Combined-Shape" fill="#A1A1A1"></path>
                    <polygon id="Path" stroke="#979797" fill="#D8D8D8" points="10.4482759 11.7061721 9.70804521 12.4444444 20.5862069 23.2938279 29.2919548 14.6111111 28.5517241 13.8728387 20.5862069 21.8172832"></polygon>
                </g>
            </g>
        </g>
    </g>
</svg>