<svg width="53" height="45" viewBox="0 0 53 45" fill="none" xmlns="http://www.w3.org/2000/svg">
<path d="M31 26V11L22 1H1V41H18" stroke="#A1A1A1" stroke-width="2"/>
<mask id="path-2-inside-1" fill="white">
<path fill-rule="evenodd" clip-rule="evenodd" d="M25 10.9971H5V12.9971H25V10.9971ZM25 15.9971H5V17.9971H25V15.9971Z"/>
</mask>
<path d="M5 10.9971V8.99707C3.89543 8.99707 3 9.8925 3 10.9971H5ZM25 10.9971H27C27 9.8925 26.1046 8.99707 25 8.99707V10.9971ZM5 12.9971H3C3 14.1016 3.89543 14.9971 5 14.9971V12.9971ZM25 12.9971V14.9971C26.1046 14.9971 27 14.1016 27 12.9971H25ZM5 15.9971V13.9971C3.89543 13.9971 3 14.8925 3 15.9971H5ZM25 15.9971H27C27 14.8925 26.1046 13.9971 25 13.9971V15.9971ZM5 17.9971H3C3 19.1016 3.89543 19.9971 5 19.9971V17.9971ZM25 17.9971V19.9971C26.1046 19.9971 27 19.1016 27 17.9971H25ZM5 12.9971H25V8.99707H5V12.9971ZM7 12.9971V10.9971H3V12.9971H7ZM25 10.9971H5V14.9971H25V10.9971ZM23 10.9971V12.9971H27V10.9971H23ZM5 17.9971H25V13.9971H5V17.9971ZM7 17.9971V15.9971H3V17.9971H7ZM25 15.9971H5V19.9971H25V15.9971ZM23 15.9971V17.9971H27V15.9971H23Z" fill="#A1A1A1" mask="url(#path-2-inside-1)"/>
<rect x="19" y="27" width="33" height="17" stroke="#A1A1A1" stroke-width="2"/>
<path d="M35 31V41" stroke="#A1A1A1" stroke-width="2"/>
<path d="M34 31.5C41 31.5 40 36.4829 34.9648 36.4829" stroke="#A1A1A1" stroke-width="2"/>
<path d="M38 39C38 39 34.9526 39 33 39" stroke="#A1A1A1" stroke-width="2"/>
<circle cx="10" cy="31" r="3" stroke="#A1A1A1" stroke-width="2" stroke-linecap="round" stroke-linejoin="round"/>
</svg>
