<?xml version="1.0" encoding="UTF-8"?>
<svg width="40px" height="38px" viewBox="0 0 40 38" version="1.1" xmlns="http://www.w3.org/2000/svg" xmlns:xlink="http://www.w3.org/1999/xlink">
    <!-- Generator: Sketch 52.2 (67145) - http://www.bohemiancoding.com/sketch -->
    <title>Combined Shape</title>
    <desc>Created with Sketch.</desc>
    <g id="Symbols" stroke="none" stroke-width="1" fill="none" fill-rule="evenodd">
        <g id="UI/atoms/icons/installment" transform="translate(0.000000, -1.000000)" fill="#A1A1A1" fill-rule="nonzero">
            <path d="M40,22 L38,22 L38,3 L2,3 L2,32 L24,32 L24,34 L0,34 L0,1 L40,1 L40,22 Z M1,5 L39,5 L39,7 L1,7 L1,5 Z M38.5275174,33.5 C38.832213,33.9632157 39,34.4695498 39,35 C39,37.209139 36.0898509,39 32.5,39 C28.9101491,39 26,37.209139 26,35 C26,34.4695498 26.167787,33.9632157 26.4724826,33.5 C26.8210995,34.0299874 27.3489398,34.5035297 28.0097546,34.8921658 C28.0032789,34.9285742 28,34.9645545 28,35 C28,35.8472236 29.8732616,37 32.5,37 C35.1267384,37 37,35.8472236 37,35 C37,34.9645545 36.9967211,34.9285742 36.9902454,34.8921658 C37.6510602,34.5035297 38.1789005,34.0299874 38.5275174,33.5 Z M38.5275174,29.5 C38.832213,29.9632157 39,30.4695498 39,31 C39,33.209139 36.0898509,35 32.5,35 C28.9101491,35 26,33.209139 26,31 C26,30.4695498 26.167787,29.9632157 26.4724826,29.5 C26.8210995,30.0299874 27.3489398,30.5035297 28.0097546,30.8921658 C28.0032789,30.9285742 28,30.9645545 28,31 C28,31.8472236 29.8732616,33 32.5,33 C35.1267384,33 37,31.8472236 37,31 C37,30.9645545 36.9967211,30.9285742 36.9902454,30.8921658 C37.6510602,30.5035297 38.1789005,30.0299874 38.5275174,29.5 Z M32.5,31 C28.9101491,31 26,29.209139 26,27 C26,24.790861 28.9101491,23 32.5,23 C36.0898509,23 39,24.790861 39,27 C39,29.209139 36.0898509,31 32.5,31 Z M32.5,29 C35.1267384,29 37,27.8472236 37,27 C37,26.1527764 35.1267384,25 32.5,25 C29.8732616,25 28,26.1527764 28,27 C28,27.8472236 29.8732616,29 32.5,29 Z M31,18 L25,18 L25,16 L29,16 L29,12 L31,12 L31,18 Z M23,18 L17,18 L17,16 L21,16 L21,12 L23,12 L23,18 Z M15,18 L9,18 L9,16 L13,16 L13,12 L15,12 L15,18 Z M23,26 L17,26 L17,24 L21,24 L21,20 L23,20 L23,26 Z M15,26 L9,26 L9,24 L13,24 L13,20 L15,20 L15,26 Z" id="Combined-Shape"></path>
        </g>
    </g>
</svg>