<?xml version="1.0" encoding="UTF-8"?>
<svg width="30px" height="30px" viewBox="0 0 30 30" version="1.1" xmlns="http://www.w3.org/2000/svg" xmlns:xlink="http://www.w3.org/1999/xlink">
    <!-- Generator: Sketch 50.2 (55047) - http://www.bohemiancoding.com/sketch -->
    <title>discommend</title>
    <desc>Created with Sketch.</desc>
    <defs></defs>
    <g id="Page-1" stroke="none" stroke-width="1" fill="none" fill-rule="evenodd">
        <g id="discommend">
            <path d="M10.2216899,14.0388404 C10.392195,14.0210156 10.4862857,14.0026205 10.5229841,13.9866767 C10.5336822,13.9820307 10.5619513,13.958531 10.6292834,13.8772764 C10.6521432,13.8493318 10.6521432,13.8493318 10.6777507,13.8165847 C10.7205463,13.7613149 10.7672878,13.6973212 10.8329023,13.6047894 C10.9259639,13.4727401 10.9785374,13.3984343 11.0298033,13.3281539 C11.2076183,13.086255 11.3706688,12.8974594 11.5973744,12.6742291 C11.816488,12.4577932 12.1065862,12.1992259 12.4432158,11.9189165 C12.5242639,11.851577 12.5955164,11.7931802 12.7464261,11.6699716 C13.0540814,11.4184876 13.2021837,11.2934199 13.3292159,11.1755527 C13.5109825,11.0071238 13.6392707,10.8599028 13.7530079,10.700164 C13.8387776,10.579818 13.8776342,10.50903 13.9091673,10.4204946 C13.9479626,10.3122223 13.9812795,10.1625652 13.9919046,10.0529858 C13.9960369,10.0111099 13.9971871,9.9765578 13.9978616,9.88786847 C13.9988998,9.75134794 14.0010923,9.69030636 14.0152624,9.58486005 C14.0607731,9.26109101 14.2025806,8.99072552 14.4232828,8.76668923 C14.6069242,8.57942337 14.8398964,8.42586479 15.0990024,8.33366001 C15.3301776,8.25080879 15.5550966,8.22066858 15.8234805,8.21462767 C16.1107614,8.20699156 16.3543966,8.22843499 16.6051717,8.30926481 C16.8975093,8.4030552 17.1383654,8.56172714 17.3670149,8.78272255 C17.5777812,8.98755543 17.7531115,9.22114054 17.8901873,9.50104159 C18.0196818,9.76546211 18.1175142,10.0791957 18.1780018,10.3948718 C18.2367944,10.7055912 18.2515115,10.9916924 18.2237284,11.3172902 C18.1949522,11.6589308 18.1216131,12.0248901 18.0081979,12.3569357 C17.9247173,12.6007764 17.8173965,12.8329728 17.6848816,13.0598225 C18.0535536,13.0695338 18.4358222,13.0921394 18.462403,13.0938072 C18.9589382,13.1172251 19.2288727,13.1521789 19.6369489,13.3084311 C20.440025,13.6159285 21.0183342,14.2584864 21.1872771,15.2213404 C21.2520775,15.5906565 21.2662144,15.9500806 21.2317918,16.3140766 C21.205137,16.5959337 20.9714188,17.4660999 20.6466171,18.3428462 C20.2985121,19.2824958 19.854748,20.2325503 19.7271694,20.5623265 C18.6670984,23.3024903 15.6387302,23.505051 12.9122555,22.291034 C12.0604413,21.9117469 11.007939,21.7169506 9.75,21.7169506 L8.75,21.7169506 L8.75,14.1580359 L10.2216899,14.0388404 Z" id="Shape" stroke="#F30000" stroke-width="2" transform="translate(15.000000, 15.606635) scale(-1, 1) rotate(-180.000000) translate(-15.000000, -15.606635) "></path>
        </g>
    </g>
</svg>