<svg xmlns="http://www.w3.org/2000/svg" width="40" height="40" viewBox="0 0 40 40">
    <g fill="none" fill-rule="evenodd">
        <g fill="#7F7F7F" fill-rule="nonzero">
            <g>
                <g>
                    <g>
                        <g>
                            <path d="M12.397.961L1.503 11.855c-.123.123-.212.276-.257.444l-1.21 4.438c-.204.746.48 1.431 1.227 1.228l4.438-1.21c.168-.046.321-.135.444-.258L17.04 5.603c.829-.829 1.153-2.037.85-3.17C17.584 1.3 16.698.415 15.566.112c-1.133-.304-2.341.02-3.17.85zm2.653 1.083c.442.118.788.464.906.906l.03.149c.058.397-.074.802-.362 1.09L4.918 14.894l-2.493.68.68-2.493L13.811 2.376c.288-.288.693-.42 1.09-.363l.149.03z" transform="translate(-637 -687) translate(421 548) translate(0 133) translate(216 6) translate(11 11)"/>
                        </g>
                    </g>
                </g>
            </g>
        </g>
    </g>
</svg>
