<?xml version="1.0" encoding="UTF-8"?>
<svg width="24px" height="22px" viewBox="0 0 24 22" version="1.1" xmlns="http://www.w3.org/2000/svg" xmlns:xlink="http://www.w3.org/1999/xlink">
    <!-- Generator: Sketch 50.2 (55047) - http://www.bohemiancoding.com/sketch -->
    <title>Shape</title>
    <desc>Created with Sketch.</desc>
    <defs></defs>
    <g id="Symbols" stroke="none" stroke-width="1" fill="none" fill-rule="evenodd">
        <g id="header-new" transform="translate(-1193.000000, -70.000000)" fill="#A1A1A1" fill-rule="nonzero">
            <g transform="translate(-25.000000, 0.000000)" id="fav">
                <g transform="translate(1218.000000, 60.000000)">
                    <path d="M21.9504238,12.0597515 C20.6382433,10.7472374 18.8584642,10.0098635 17.0026661,10.0098635 C15.1468679,10.0098635 13.3670888,10.7472374 12.0549083,12.0597515 L12.004931,12.1097364 L11.9549536,12.0597515 C9.22790284,9.32124347 4.79752967,9.31229186 2.05943819,12.0397575 C-0.678653291,14.7672231 -0.68760354,19.1982702 2.03944725,21.9367782 L11.2802594,31.6888425 C11.4689678,31.8875135 11.7309437,32 12.004931,32 C12.2789183,32 12.5408941,31.8875135 12.7296026,31.6888425 L21.9504238,21.9567722 C23.2627382,20.6443921 24,18.8643423 24,17.0082618 C24,15.1521814 23.2627382,13.3721316 21.9504238,12.0597515 Z M12.004931,29.5594835 L3.47379721,20.562192 C2.20786436,19.2996382 1.71155616,17.4575205 2.17182712,15.7297468 C2.63209807,14.0019732 3.97902206,12.6510335 5.70522585,12.1858136 C7.43142965,11.7205938 9.27466181,12.2117718 10.5405946,13.4743256 L11.3002503,14.2290984 C11.4877336,14.416819 11.7421408,14.5222968 12.0074298,14.5222968 C12.2727189,14.5222968 12.5271261,14.416819 12.7146094,14.2290984 L13.4692674,13.4743256 C14.7129914,12.1125975 16.6054059,11.5465034 18.3924505,12.0016119 C20.179495,12.4567205 21.570756,13.8590717 22.0118649,15.649878 C22.4529738,17.4406844 21.8722458,19.3289209 20.5010806,20.562192 L12.004931,29.5594835 Z" id="Shape"></path>
                </g>
            </g>
        </g>
    </g>
</svg>