<svg width="22" height="20" viewBox="0 0 22 20" fill="none" xmlns="http://www.w3.org/2000/svg">
<path fill-rule="evenodd" clip-rule="evenodd" d="M10.7731 1.69477C8.26173 -0.615968 4.33652 -0.564713 1.88782 1.85432C-0.622099 4.33384 -0.630303 8.36206 1.86949 10.8516L10.3402 19.7171L10.4321 19.8008C10.5936 19.929 10.7952 20 11.0045 20C11.2557 20 11.4958 19.8977 11.6688 19.7171L20.328 10.6549C21.4013 9.4861 22 7.95924 22 6.37115C22 4.6838 21.3242 3.06557 20.1212 1.8725C18.9184 0.679307 17.2869 0.00896682 15.5858 0.00896682C13.8846 0.00896682 12.2532 0.679307 11.0503 1.8725L11.0045 1.91794L10.7731 1.69477ZM3.29341 3.2771C5.02207 1.56938 7.82578 1.575 9.54742 3.28958L11.0045 4.73489L12.413 3.33787L12.6283 3.133C13.4369 2.41161 14.49 2.00893 15.5858 2.00893C16.7599 2.00893 17.8849 2.47119 18.7127 3.29236C19.5376 4.11047 20 5.21768 20 6.37112L19.9939 6.60111C19.9368 7.6709 19.4826 8.68629 18.7129 9.44973L11.004 17.517L3.15688 9.30381C1.57022 7.55783 1.62754 4.92279 3.29341 3.2771Z" fill="#7F7F7F"/>
</svg>
