<?xml version="1.0" encoding="UTF-8"?>
<svg width="22px" height="20px" viewBox="0 0 22 20" version="1.1" xmlns="http://www.w3.org/2000/svg" xmlns:xlink="http://www.w3.org/1999/xlink">
    <title>Shape</title>
    <g id="Page-1" stroke="none" stroke-width="1" fill="none" fill-rule="evenodd">
        <g id="Shape" fill="#FF6464" fill-rule="nonzero">
            <path d="M1.88781343,1.85432051 C4.33651382,-0.56471321 8.26173112,-0.615968218 10.7730482,1.69477049 L11.0045149,1.91793719 L11.0503316,1.87250385 C12.2531651,0.679303657 13.884632,0.00896688277 15.5857823,0.00896688277 C17.2869992,0.00896688277 18.9183328,0.679303657 20.1211664,1.87250385 C21.3241666,3.06557071 22,4.6838043 22,6.37115457 C22,7.95923816 21.4013332,9.48610508 20.3279997,10.6549053 L11.6687983,19.7171734 C11.495815,19.8976734 11.2556816,20 11.0045149,20 C10.7952315,20 10.5935815,19.9290068 10.4320648,19.8008401 L10.3402315,19.7171734 L1.86949676,10.851622 C-0.630302981,8.36207156 -0.622098646,4.33383758 1.88781343,1.85432051 Z" id="Path"></path>
        </g>
    </g>
</svg>