<svg xmlns="http://www.w3.org/2000/svg" width="75" height="75" fill="none" viewBox="0 0 75 75">
    <path fill="#000" fill-rule="evenodd" d="M38.077 11.619c13.953 0 25.304 11.352 25.304 25.304 0 13.954-11.352 25.304-25.304 25.304-4.61 0-9.11-1.252-13.047-3.626l-11.006 3.574c-.109.036-.222.052-.331.052-.311 0-.613-.134-.82-.38-.281-.334-.334-.802-.133-1.188l4.721-9.063c-3.07-4.3-4.687-9.358-4.687-14.671 0-13.955 11.35-25.306 25.303-25.306zm0 2.453c-12.598 0-22.85 10.254-22.85 22.851 0 4.618 1.346 9.011 3.917 12.796l.313.45.875 1.225-3.859 7.405 8.865-2.877.958.578c3.559 2.146 7.62 3.275 11.78 3.275 12.598 0 22.852-10.253 22.852-22.852 0-12.597-10.254-22.851-22.851-22.851zm4.32 14.88c1.625 0 3.183.645 4.332 1.796 1.15 1.147 1.795 2.706 1.795 4.33 0 1.625-.645 3.184-1.795 4.332l-7.854 7.854c-.483.483-1.267.483-1.75 0L29.27 39.41c-2.392-2.393-2.392-6.27 0-8.662 2.392-2.394 6.271-2.394 8.663 0l.066.065.067-.065c1.072-1.074 2.5-1.708 4.007-1.787l.325-.009zm0 2.476c-.968 0-1.896.384-2.58 1.07l-.942.941c-.483.483-1.267.483-1.75 0l-.943-.94c-1.425-1.426-3.735-1.426-5.161 0-1.424 1.423-1.424 3.735 0 5.16l6.978 6.977 6.979-6.977c.623-.622.998-1.445 1.06-2.318l.01-.263c0-.968-.384-1.895-1.07-2.58-.685-.684-1.612-1.07-2.58-1.07z" clip-rule="evenodd"/>
</svg>
