<?xml version="1.0" encoding="UTF-8"?>
<svg width="42px" height="42px" viewBox="0 0 42 42" version="1.1" xmlns="http://www.w3.org/2000/svg" xmlns:xlink="http://www.w3.org/1999/xlink">
    <!-- Generator: Sketch 52.2 (67145) - http://www.bohemiancoding.com/sketch -->
    <title>Group 10</title>
    <desc>Created with Sketch.</desc>
    <defs>
        <polygon id="path-1" points="0 0 41.9999754 0 41.9999754 41.9999754 0 41.9999754"></polygon>
    </defs>
    <g id="new-pages" stroke="none" stroke-width="1" fill="none" fill-rule="evenodd">
        <g id="lifemebel_index" transform="translate(-1014.000000, -3064.000000)">
            <g id="Group-10" transform="translate(1014.000000, 3064.000000)">
                <path d="M25,16 C24.448,16 24,16.448 24,17 C24,17.552 24.448,18 25,18 C25.552,18 26,17.552 26,17 C26,16.448 25.552,16 25,16" id="Fill-1" fill="#83BF4E"></path>
                <g id="Group-5">
                    <mask id="mask-2" fill="white">
                        <use xlink:href="#path-1"></use>
                    </mask>
                    <g id="Clip-4"></g>
                    <path d="M39.8785652,39.8785652 C39.5685691,40.1886434 39.1566082,40.3593504 38.7187254,40.3593504 C38.2808426,40.3593504 37.8689637,40.1886434 37.5589676,39.8785652 L30.2750027,32.5946004 C31.1057332,31.8817488 31.8817488,31.1058152 32.5945184,30.2750848 L39.8787293,37.5592957 C40.1886434,37.8687996 40.3593504,38.2805965 40.3593504,38.7187254 C40.3593504,39.1569363 40.1886434,39.5687332 39.8785652,39.8785652 Z M1.64060039,16.4062254 C1.64060039,8.26445977 8.26445977,1.64060039 16.4062254,1.64060039 C24.547991,1.64060039 31.1718504,8.26445977 31.1718504,16.4062254 C31.1718504,19.5377684 30.1997801,22.5312527 28.3604754,25.0633934 C27.4403309,26.3311043 26.3311863,27.4403309 25.0634754,28.3603934 C25.0634754,28.3604754 25.0633934,28.3604754 25.0633934,28.3605574 C22.5312527,30.1997801 19.5377684,31.1718504 16.4062254,31.1718504 C8.26445977,31.1718504 1.64060039,24.547991 1.64060039,16.4062254 Z M26.784491,29.1040887 C27.6335965,28.4096121 28.4096121,27.6335145 29.1040887,26.784491 L31.4313973,29.1117996 C30.7236316,29.9472059 29.9472059,30.7237137 29.1117996,31.4313973 L26.784491,29.1040887 Z M41.0387332,36.3987996 L30.0891199,25.4493504 C31.8728895,22.7624988 32.8124754,19.6510535 32.8124754,16.4062254 C32.8124754,7.35990117 25.4527137,-2.4609375e-05 16.4062254,-2.4609375e-05 C7.35990117,-2.4609375e-05 -2.4609375e-05,7.35990117 -2.4609375e-05,16.4062254 C-2.4609375e-05,25.4527137 7.35990117,32.8124754 16.4062254,32.8124754 C19.6510535,32.8124754 22.7625809,31.8728074 25.4493504,30.089202 L28.4758113,33.115827 C28.4762215,33.1161551 28.4766316,33.1165652 28.4772059,33.1170574 L36.3987176,41.0387332 C37.0187918,41.6585613 37.8426316,41.9999754 38.7187254,41.9999754 C39.5949012,41.9999754 40.418741,41.6585613 41.0384871,41.0389793 C41.6584793,40.4193973 41.9999754,39.5954754 41.9999754,38.7187254 C41.9999754,37.8420574 41.6584793,37.0181355 41.0387332,36.3987996 Z" id="Fill-3" fill="#83BF4E" mask="url(#mask-2)"></path>
                </g>
                <path d="M16,27.375 C9.727825,27.375 4.625,22.272175 4.625,16 C4.625,9.727825 9.727825,4.625 16,4.625 C22.272175,4.625 27.375,9.727825 27.375,16 C27.375,22.272175 22.272175,27.375 16,27.375 M29,16 C29,8.83171875 23.1682812,3 16,3 C8.83171875,3 3,8.83171875 3,16 C3,23.1682812 8.83171875,29 16,29 C23.1682812,29 29,23.1682812 29,16" id="Fill-6" fill="#83BF4E"></path>
                <path d="M25.4772449,14.9410564 C25.8971811,14.7662553 26.1069863,14.2557934 25.9455789,13.8008339 C25.2439742,11.8232245 24.0223786,10.1323914 22.4127046,8.91125376 C20.7647361,7.66090908 18.8289882,7 16.8147773,7 C16.3648573,7 16,7.39513363 16,7.88238863 C16,8.36964363 16.3648573,8.76477725 16.8147773,8.76477725 C20.1634304,8.76477725 23.2213711,11.0429282 24.4244712,14.4338595 C24.5488877,14.7846972 24.8576883,15 25.1852288,15 C25.2822687,15 25.3811012,14.9810286 25.4772449,14.9410564" id="Fill-8" fill="#83BF4E"></path>
            </g>
        </g>
    </g>
</svg>