<?xml version="1.0" encoding="UTF-8"?>
<svg width="39px" height="39px" viewBox="0 0 39 39" version="1.1" xmlns="http://www.w3.org/2000/svg" xmlns:xlink="http://www.w3.org/1999/xlink">
    <!-- Generator: Sketch 52.2 (67145) - http://www.bohemiancoding.com/sketch -->
    <title>inscription</title>
    <desc>Created with Sketch.</desc>
    <g id="Page-1" stroke="none" stroke-width="1" fill="none" fill-rule="evenodd">
        <g id="inscription" fill="#83C150" fill-rule="nonzero">
            <path d="M37.304296,24.5869635 C37.304296,26.9252974 35.4017756,28.8260731 33.0651949,28.8260731 C32.5971953,28.8260731 32.2173429,29.2059263 32.2173429,29.6739269 L32.2173429,36.1055178 L25.1872533,29.0736651 C25.027809,28.9159693 24.8124879,28.8260731 24.5869133,28.8260731 L5.93472558,28.8260731 C3.59822446,28.8260731 1.69562453,26.9252974 1.69562453,24.5869635 L1.69562453,5.93473768 C1.69562453,3.59648314 3.59822446,1.69562799 5.93472558,1.69562799 L33.0651949,1.69562799 C35.4017756,1.69562799 37.304296,3.59648314 37.304296,5.93473768 L37.304296,24.5869635 Z M33.0651949,0 L5.93472558,0 C2.66214561,0 0,2.66215104 0,5.93473768 L0,24.5869635 C0,27.8596296 2.66214561,30.5217806 5.93472558,30.5217806 L24.2359135,30.5217806 L32.4649345,38.7524874 C32.627717,38.9135217 32.8447868,39 33.0651949,39 C33.1736901,39 33.2839339,38.977983 33.3890112,38.9355386 C33.706151,38.8050262 33.913047,38.4947214 33.913047,38.1522257 L33.913047,30.4624062 C36.7855062,30.048693 39,27.5713418 39,24.5869635 L39,5.93473768 C39,2.66215104 36.3378544,0 33.0651949,0 Z" id="Fill-1"></path>
            <path d="M20.0416667,24.194388 C19.5433333,24.194388 19.1388607,23.788138 19.1388607,23.2916666 C19.1388607,22.7951107 19.5433333,22.3888607 20.0416667,22.3888607 C20.54,22.3888607 20.9444727,22.7951107 20.9444727,23.2916666 C20.9444727,23.788138 20.54,24.194388 20.0416667,24.194388 M20.0416667,20.5833334 C18.548444,20.5833334 17.3333333,21.798444 17.3333333,23.2916666 C17.3333333,24.7848893 18.548444,26 20.0416667,26 C21.5348047,26 22.75,24.7848893 22.75,23.2916666 C22.75,21.798444 21.5348047,20.5833334 20.0416667,20.5833334" id="Fill-3"></path>
            <path d="M22.2083432,7.02329976 L21.5062633,15.7250499 C21.4721344,16.2478926 21.0657874,16.6562809 20.5701569,16.6562809 C20.0858009,16.6562809 19.6811299,16.2478926 19.6454012,15.7109391 L18.9595477,7.03732806 C18.9433214,6.7891923 19.0197304,6.55326942 19.175672,6.37370728 C19.331766,6.19414513 19.5430145,6.09380157 19.7705659,6.09380157 L21.3957254,6.09380157 C21.6232005,6.09380157 21.8345253,6.19414513 21.9905431,6.37370728 C22.1465609,6.55326942 22.2228937,6.7891923 22.2083432,7.02329976 M21.3957254,4.33333333 L19.7705659,4.33333333 C19.0960633,4.33333333 18.4476145,4.63972775 17.9877126,5.17486587 C17.5278107,5.70827107 17.2921081,6.43180091 17.3392638,7.17464028 L18.026717,15.8482513 C18.1209524,17.2882968 19.2390542,18.4166666 20.5831837,18.4166666 C21.9157338,18.4166666 23.0339118,17.2882968 23.1265473,15.8623621 L23.8270274,7.1623449 C23.875783,6.43353382 23.6400804,5.71000398 23.1801784,5.17486587 C22.7202765,4.63972775 22.0702279,4.33333333 21.3957254,4.33333333" id="Fill-5"></path>
        </g>
    </g>
</svg>