<svg xmlns="http://www.w3.org/2000/svg" width="75" height="75" viewBox="0 0 75 75">
    <path fill-rule="evenodd" d="M29 17c.885 0 2 1.132 2 3v4c0 1.867-1.115 3-2 3h-2c-.886 0-2-1.133-2-3l-.001-1H20v9h35v-9h-5.001L50 24c0 1.867-1.116 3-2 3h-2c-.886 0-2-1.133-2-3l-.001-1H31v-2h12.999L44 20c0-1.868 1.114-3 2-3h2c.884 0 2 1.132 2 3l-.001 1H56c.58 0 .945.328.994.87L57 22v36c0 .576-.324.944-.87.994L56 59H19c-.579 0-.945-.328-.994-.87L18 58V22c0-.576.325-.944.87-.994L19 21h5.999L25 20c0-1.868 1.114-3 2-3h2zm26 33.888L48.888 57H55v-6.112zm-27.001-.889H20V57h8l-.001-7.001zm9.001 0h-8.001L29 57h8v-7.001zm9 0h-8V57h8v-7.001zm9 0h-8V57h.111l7-7 .889.888v-.889zM27.999 42H20v6.999h7.999V42zM37 42h-8.001v6.999H37V42zm9 0h-8v6.999h8V42zm9 0h-8v6.999h8V42zm-27.001-8H20v7h7.999v-7zM37 34h-8.001v7H37v-7zm9 0h-8v7h8v-7zm9 0h-8v7h8v-7zm-7.667-15h-.666c-.386 0-.667.358-.667.875v4.25c0 .517.28.875.667.875h.666c.386 0 .667-.358.667-.875v-4.25c0-.517-.281-.875-.667-.875zm-19 0h-.666c-.386 0-.667.358-.667.875v4.25c0 .517.281.875.667.875h.666c.386 0 .667-.358.667-.875v-4.25c0-.517-.281-.875-.667-.875z"/>
</svg>
