<svg xmlns="http://www.w3.org/2000/svg" width="100" height="100" viewBox="0 0 100 100">
    <path fill="#F4F5F6" fill-rule="evenodd" d="M70.207 27.5c.58 0 1.052.471 1.052 1.052l-.001 20.186h5.19c.58 0 1.052.61 1.052 1.19v20.297c0 .581-.471 1.052-1.052 1.052h-3.98v2.173c0 .139-.093.255-.22.29l-.08.01h-4.336c-.138 0-.255-.093-.29-.22l-.011-.08v-2.173H32.474v2.173c0 .139-.093.255-.22.29l-.08.01h-4.342c-.138 0-.23 0-.29-.22l-.011-.08v-2.173h-3.979c-.58 0-1.052-.47-1.052-1.052V49.929c0-.581.471-1.191 1.052-1.191h5.25V28.552c0-.58.472-1.052 1.053-1.052h40.352zM32.492 51.25h-7.47v17.46h49.974l.016-17.46h-7.499l.018 8.942c0 .583-.471 1.053-1.052 1.053H33.544c-.581 0-1.052-.47-1.052-1.053V51.25zm32.544 3.801H35.043l-.046 3.699H64.99l.046-3.699zm3.703-25.091H31.217v18.778h2.773c.581 0 1.053.61 1.053 1.19l-.077 3.853h29.993l.04-3.852c0-.581.47-1.191 1.052-1.191h2.688V29.96z"/>
</svg>
