<svg xmlns="http://www.w3.org/2000/svg" width="75" height="75" viewBox="0 0 75 75">
    <path fill-rule="evenodd" d="M43.082 20v1.747H22.776v33.506h27.448V41.217H52v14.91c0 .445-.339.812-.777.866l-.111.007H21.888c-.452 0-.826-.333-.881-.764l-.007-.11V20.874c0-.446.339-.813.777-.867l.111-.007h21.194zm13.184-3.235l4.943 4.947c.51.51.791 1.189.791 1.91 0 .721-.281 1.4-.791 1.91L43.152 43.605c-.075.076-.167.132-.266.168L30.944 47.96c-.077.027-.156.04-.235.04-.185 0-.366-.073-.502-.208-.192-.193-.257-.479-.167-.736l4.184-11.95c.036-.1.092-.192.168-.267l18.057-18.074c1.019-1.02 2.798-1.02 3.817 0zM36.028 36.028l-.014.016-3.201 9.14 9.133-3.202.017-.019-5.935-5.935zm14.994-15.006L37.028 35.028l5.935 5.935 13.994-14.006-5.935-5.935zm2.92-2.908l-.079.065-1.842 1.842 5.936 5.936 1.836-1.837c.11-.11.176-.24.199-.386l.008-.112c0-.153-.045-.292-.132-.411l-.074-.086-4.944-4.947c-.213-.214-.649-.235-.908-.064z"/>
</svg>
