<svg xmlns="http://www.w3.org/2000/svg" width="160" height="160" viewBox="0 0 160 160">
    <path fill="#FFF" fill-rule="evenodd" d="M104.296 50c.942 0 1.704.73 1.704 1.63v26.738c0 .902-.762 1.632-1.704 1.632l-16.297-.001V84h34.323c.928 0 1.678.754 1.678 1.686v22.628c0 .93-.75 1.686-1.678 1.686H37.678c-.928 0-1.678-.756-1.678-1.686V85.686c0-.932.75-1.686 1.678-1.686h34.321v-4.001L55.704 80C54.762 80 54 79.27 54 78.368V51.63c0-.9.762-1.63 1.704-1.63h48.592zM59.999 88H40v18h19.999V88zM98 88H61.999v8H98v2H61.999v8H98V88zm22 0h-20v18h20V88zm-38 14v2h-4v-2h4zm0-10v2h-4v-2h4zm2-12h-8v4h8v-4zm18.064-26H58v22.001h44.064V54z"/>
</svg>
