<svg xmlns="http://www.w3.org/2000/svg" width="21" height="20" viewBox="0 0 21 20">
    <path fill="#FFF" fill-rule="evenodd" d="M9 2c.552 0 1 .448 1 1 0 .513-.386.936-.883.993L9 4H2.778c-.394 0-.72.293-.77.672L2 4.778v12.444c0 .394.293.72.672.77l.106.008h12.444c.394 0 .72-.293.77-.672l.008-.106V11c0-.552.448-1 1-1 .513 0 .936.386.993.883L18 11v6.222c0 1.478-1.153 2.685-2.609 2.773l-.169.005H2.778C1.3 20 .093 18.847.005 17.391L0 17.222V4.778C0 3.3 1.153 2.093 2.609 2.005L2.778 2H9zM14.793.914c1.219-1.219 3.195-1.219 4.414 0 1.22 1.22 1.22 3.195 0 4.414l-9.5 9.5c-.128.129-.289.22-.464.263l-4 1c-.733.184-1.396-.48-1.213-1.212l1-4c.044-.176.135-.337.263-.465zm3 1.414c-.438-.437-1.148-.437-1.586 0l-9.304 9.304-.529 2.115 2.114-.529 9.305-9.304c.407-.406.436-1.048.087-1.488z"/>
</svg>
