<svg xmlns="http://www.w3.org/2000/svg" width="160" height="160" viewBox="0 0 160 160">
    <path fill="#FFF" fill-rule="evenodd" d="M110.445 56c.911 0 1.65.738 1.65 1.65V74l2.415.008c.914 0 1.653.738 1.653 1.65l-.002 4.34 4.189.002c.911 0 1.65.738 1.65 1.65v20.792c0 .91-.739 1.648-1.65 1.648l-6.757-.002.002 3.44c0 .217-.147.4-.347.455l-.125.017h-5.173c-.217 0-.4-.147-.456-.347l-.017-.125-.002-3.44H53.592l.002 3.44c0 .217-.147.4-.347.455l-.126.017H47.95c-.217 0-.4-.147-.456-.347l-.017-.125-.002-3.44-7.822.002c-.911 0-1.652-.738-1.652-1.648V81.65c0-.912.741-1.65 1.652-1.65l4.417-.002.002-4.34c0-.912.739-1.65 1.652-1.65l2.29-.002.002-16.356c0-.912.739-1.65 1.65-1.65h60.78zm7.658 28H42.005v16h76.098V84zm-6.25-6.04l-63.84.04v2l63.84-.04v-2zm-3.763-18.025H52.018v14.073l12.015-.073V64c.337.085 29.416.085 30.04 0v9.935l14.017.073V59.935zM92.07 66H66.036v8.008H92.07V66z"/>
</svg>
