<svg xmlns="http://www.w3.org/2000/svg" width="74" height="74" viewBox="0 0 74 74">
    <g fill="none" fill-rule="evenodd">
        <path fill="#000" d="M22.2 1.973c-11.153 0-20.226 9.075-20.226 20.228 0 11.152 9.073 20.225 20.226 20.225 11.153 0 20.227-9.073 20.227-20.225 0-11.153-9.074-20.228-20.227-20.228m0 42.427C9.96 44.4 0 34.442 0 22.2 0 9.96 9.96 0 22.2 0c12.241 0 22.2 9.959 22.2 22.2 0 12.242-9.959 22.2-22.2 22.2" transform="translate(14.8 14.8)"/>
        <path fill="#83C150" fill-rule="nonzero" d="M30.873 17.518c.387.411.367 1.058-.044 1.445L20.003 29.146l-5.445-5.122c-.411-.387-.431-1.034-.044-1.445.387-.411 1.034-.431 1.445-.044l4.043 3.803 9.425-8.864c.412-.387 1.059-.367 1.446.044z" transform="translate(14.8 14.8)"/>
    </g>
</svg>
