<svg xmlns="http://www.w3.org/2000/svg" width="80" height="80" viewBox="0 0 80 80">
    <path fill="#F4F5F6" fill-rule="evenodd" d="M46.132 17c2.59 0 4.701 2.09 4.733 4.672l1.879 13.872c.1 1.733-.479 3.319-1.626 4.533-.187.198-.385.38-.592.55 1.481.569 2.534 2.007 2.534 3.687v1.804c0 .47-.38.882-.85.882h-7.277v2.107c0 .469-.38.85-.85.85h-3.065v2.931c.469 0 .85.38.85.85v2.005l10.623 2.936c.368.102.623.437.623.819v2.652c0 .47-.38.85-.849.85-.47 0-.85-.38-.85-.85v-2.005l-10.624-2.936c-.368-.102-.623-.437-.623-.819v-1.317c-.036.005-.073.007-.11.007-.036 0-.073-.002-.11-.007v1.317c0 .382-.255.717-.623.819L28.7 60.145v2.005c0 .47-.38.85-.85.85-.469 0-.85-.38-.85-.85v-2.652c0-.382.256-.717.624-.819l10.624-2.936v-2.005c0-.437.328-.795.751-.844v-2.937h-3.137c-.47 0-.85-.381-.85-.85V47h-7.107c-.469 0-.85-.412-.85-.882v-1.804c0-1.68 1.054-3.119 2.535-3.69-.207-.166-.405-.35-.592-.547-1.147-1.214-1.726-2.8-1.632-4.467l1.884-13.938C29.283 19.09 31.394 17 33.983 17h12.149zm-3.103 30h-6.127v1h6l.127-1zm6.078-5H31.009c-1.243 0-2.254 1.071-2.254 2.314v.66h22.606v-.66c0-1.243-1.012-2.314-2.254-2.314zm-2.975-22.976H33.983c-1.612 0-2.935.94-3.028 2.531l-.005.178c0 .038-.003.076-.008.113l-1.885 13.925c-.062 1.13.354 2.268 1.176 3.139.822.87 1.935 1.09 3.133 1.09H46.75c1.198 0 2.31-.22 3.133-1.09.822-.871 1.238-2.009 1.169-3.205l-1.879-13.859-.005-.056-.002-.057c0-1.673-1.361-2.709-3.034-2.709z"/>
</svg>
