<svg xmlns="http://www.w3.org/2000/svg" width="75" height="75" viewBox="0 0 75 75">
    <path fill-rule="evenodd" d="M37.5 15C49.907 15 60 25.093 60 37.5S49.907 60 37.5 60C25.094 60 15 49.907 15 37.5S25.094 15 37.5 15zm0 2C26.196 17 17 26.197 17 37.5 17 48.805 26.196 58 37.5 58S58 48.804 58 37.5C58 26.198 48.804 17 37.5 17zm.03 10c.553.018.986.495.97 1.066l-.001 8.437 8.498-.003c.571.017 1.02.478 1.003 1.03-.018.553-.495.986-1.066.97l-8.435-.001v8.435c.017.57-.416 1.048-.969 1.066-.515.016-.951-.374-1.02-.89l-.005-8.611h-8.439c-.57.017-1.048-.416-1.066-.969-.016-.515.374-.951.89-1.02l8.614-.006-.004-8.501c.017-.571.478-1.02 1.03-1.003z"/>
</svg>
