<?xml version="1.0" encoding="UTF-8"?>
<svg width="196px" height="24px" viewBox="0 0 196 24" version="1.1" xmlns="http://www.w3.org/2000/svg" xmlns:xlink="http://www.w3.org/1999/xlink">
    <!-- Generator: Sketch 62 (91390) - https://sketch.com -->
    <title>Group</title>
    <desc>Created with Sketch.</desc>
    <g id="Page-1" stroke="none" stroke-width="1" fill="none" fill-rule="evenodd">
        <g id="Group" transform="translate(0.046000, 0.735000)" fill-rule="nonzero">
            <path d="M155.474,11.265 L155.474,8.545 L150.05,8.545 L150.05,0.065 L146.946,0.065 L146.946,11.265 L155.474,11.265 Z M159.552,11.265 L159.552,4.865 L162.4,9.217 L162.464,9.217 L165.328,4.833 L165.328,11.265 L168.416,11.265 L168.416,0.065 L165.136,0.065 L162.464,4.401 L159.792,0.065 L156.512,0.065 L156.512,11.265 L159.552,11.265 Z M172.974,11.265 L172.974,8.145 L169.806,8.145 L169.806,11.265 L172.974,11.265 Z M177.468,11.265 L177.468,7.873 L178.828,7.873 L181.084,11.265 L184.668,11.265 L181.996,7.361 C183.532,6.71033333 184.3,5.56366667 184.3,3.921 C184.3,2.81166667 183.969333,1.92633333 183.308,1.265 C182.508,0.465 181.292,0.065 179.66,0.065 L179.66,0.065 L174.364,0.065 L174.364,11.265 L177.468,11.265 Z M179.516,5.441 L177.468,5.441 L177.468,2.753 L179.5,2.753 C180.033333,2.753 180.446667,2.865 180.74,3.089 C181.033333,3.313 181.18,3.64366667 181.18,4.081 C181.18,4.50766667 181.033333,4.841 180.74,5.081 C180.446667,5.321 180.038667,5.441 179.516,5.441 L179.516,5.441 Z M190.618,11.473 C192.271333,11.473 193.559333,11.0436667 194.482,10.185 C195.404667,9.32633333 195.866,8.02233333 195.866,6.273 L195.866,6.273 L195.866,0.065 L192.714,0.065 L192.714,6.369 C192.714,7.137 192.53,7.713 192.162,8.097 C191.794,8.481 191.29,8.673 190.65,8.673 C190.01,8.673 189.506,8.473 189.138,8.073 C188.77,7.673 188.586,7.07833333 188.586,6.289 L188.586,6.289 L188.586,0.065 L185.434,0.065 L185.434,6.353 C185.434,8.05966667 185.887333,9.33966667 186.794,10.193 C187.700667,11.0463333 188.975333,11.473 190.618,11.473 Z" id="LM.RU" fill="#000000"></path>
            <path d="M6.27,23.265 L6.27,10.065 L12.144,19.041 L12.276,19.041 L18.183,9.999 L18.183,23.265 L24.552,23.265 L24.552,0.165 L17.787,0.165 L12.276,9.108 L6.765,0.165 L0,0.165 L0,23.265 L6.27,23.265 Z M32.938,23.265 L34.588,19.14 L43.498,19.14 L45.181,23.265 L52.045,23.265 L42.211,0 L36.04,0 L26.206,23.265 L32.938,23.265 Z M41.65,14.157 L36.469,14.157 L39.076,7.59 L41.65,14.157 Z M60.101,23.265 L60.101,16.269 L62.906,16.269 L67.559,23.265 L74.951,23.265 L69.44,15.213 C72.608,13.871 74.192,11.506 74.192,8.118 C74.192,5.83 73.51,4.004 72.146,2.64 C70.496,0.99 67.988,0.165 64.622,0.165 L64.622,0.165 L53.699,0.165 L53.699,23.265 L60.101,23.265 Z M64.325,11.253 L60.101,11.253 L60.101,5.709 L64.292,5.709 C65.392,5.709 66.2445,5.94 66.8495,6.402 C67.4545,6.864 67.757,7.546 67.757,8.448 C67.757,9.328 67.4545,10.0155 66.8495,10.5105 C66.2445,11.0055 65.403,11.253 64.325,11.253 L64.325,11.253 Z M83.238,23.265 L83.238,17.292 L85.581,14.685 L91.389,23.265 L99.078,23.265 L90.036,10.098 L98.781,0.165 L91.191,0.165 L83.238,9.537 L83.238,0.165 L76.836,0.165 L76.836,23.265 L83.238,23.265 Z M119.08,23.265 L119.08,17.82 L106.672,17.82 L106.672,14.157 L117.76,14.157 L117.76,9.108 L106.672,9.108 L106.672,5.61 L118.915,5.61 L118.915,0.165 L100.336,0.165 L100.336,23.265 L119.08,23.265 Z M133.802,23.265 L133.802,5.775 L140.732,5.775 L140.732,0.165 L120.47,0.165 L120.47,5.775 L127.4,5.775 L127.4,23.265 L133.802,23.265 Z" id="MARKET" fill="#83C150"></path>
        </g>
    </g>
</svg>