<?xml version="1.0" encoding="UTF-8"?>
<svg width="16px" height="18px" viewBox="0 0 16 18" version="1.1" xmlns="http://www.w3.org/2000/svg" xmlns:xlink="http://www.w3.org/1999/xlink">
    <!-- Generator: Sketch 62 (91390) - https://sketch.com -->
    <title>marketplace-export</title>
    <desc>Created with Sketch.</desc>
    <g id="Page-1" stroke="none" stroke-width="1" fill="none" fill-rule="evenodd">
        <g id="marketplace-export" fill="#FFFFFF" fill-rule="nonzero">
            <path d="M15.4285713,9.72525454 L15.4285713,14.1428571 C15.4285713,16.1974284 13.8227143,17.8765714 11.7977143,17.9935713 L11.5714286,18 L3.85714284,18 C1.80257142,18 0.123428571,16.3941428 0.00642857141,14.3691428 L0,14.1428571 L0,9.72525454 L2.57142856,9.72525454 L2.57142856,14.1428571 C2.57142856,14.8024286 3.06771427,15.3462857 3.70671427,15.4195714 L3.85714284,15.4285713 L11.5714286,15.4285713 C12.231,15.4285713 12.774857,14.9322857 12.8481428,14.2932856 L12.8571428,14.1428571 L12.8571428,9.72525454 L15.4285713,9.72525454 Z M7.71428568,0 L7.81071425,0.00385714284 L7.97271426,0.0257142856 L8.11542854,0.0642857141 L8.25814282,0.120857142 L8.38414282,0.187714285 L8.5178571,0.282857142 L8.62328568,0.376714284 L13.7661428,5.5195714 L11.9481428,7.33757139 L8.99999996,4.38942855 L8.99999996,12.8571428 L6.42857141,12.8571428 L6.42857141,4.38942855 L3.48042856,7.33757139 L1.66242857,5.5195714 L6.80528568,0.376714284 C6.85028568,0.33042857 6.89914284,0.289285713 6.94928568,0.251999999 L7.09071426,0.160714285 L7.2385714,0.0899999996 L7.3735714,0.0449999998 L7.52528569,0.0128571428 L7.71428568,0 Z" id="Shape"></path>
        </g>
    </g>
</svg>