<?xml version="1.0" encoding="UTF-8"?>
<svg width="46px" height="41px" viewBox="0 0 46 41" version="1.1" xmlns="http://www.w3.org/2000/svg" xmlns:xlink="http://www.w3.org/1999/xlink">
    <!-- Generator: Sketch 50.2 (55047) - http://www.bohemiancoding.com/sketch -->
    <title>Group</title>
    <desc>Created with Sketch.</desc>
    <defs></defs>
    <g id="Symbols" stroke="none" stroke-width="1" fill="none" fill-rule="evenodd">
        <g id="icons/ic_table2" transform="translate(-15.000000, -17.000000)">
            <g id="Group">
                <rect id="Rectangle-13-Copy" x="0" y="0" width="75" height="75"></rect>
                <g id="desk-1" transform="translate(15.000000, 17.000000)" fill="#A1A1A1">
                    <path d="M46,16 L31,16 L31,14 L40,14 L40,0 L19,0 L19,14 L29,14 L29,16 L0,16 L0,18 L2,18 L2,41 L4,41 L4,23 L6,23 L6,41 L18,41 L18,23 L42,23 L42,41 L44,41 L44,18 L46,18 L46,16 Z M21,12 L38,12 L38,2 L21,2 L21,12 Z M8,39 L8,35 L16,35 L16,39 L8,39 Z M8,33 L8,29 L16,29 L16,33 L8,33 Z M8,27 L8,23 L16,23 L16,27 L8,27 Z M4,21 L4,18 L42,18 L42,21 L4,21 Z" id="Fill-1"></path>
                </g>
            </g>
        </g>
    </g>
</svg>