<?xml version="1.0" encoding="UTF-8"?>
<svg width="46px" height="36px" viewBox="0 0 46 36" version="1.1" xmlns="http://www.w3.org/2000/svg" xmlns:xlink="http://www.w3.org/1999/xlink">
    <!-- Generator: Sketch 50.2 (55047) - http://www.bohemiancoding.com/sketch -->
    <title>Group</title>
    <desc>Created with Sketch.</desc>
    <defs></defs>
    <g id="Symbols" stroke="none" stroke-width="1" fill="none" fill-rule="evenodd">
        <g id="icons/ic_table4" transform="translate(-15.000000, -20.000000)">
            <g id="Group">
                <rect id="Rectangle-13-Copy" x="0" y="0" width="75" height="75"></rect>
                <g id="table-3" transform="translate(15.000000, 20.000000)"></g>
                <path d="M54,20 L22,20 C18.1397914,20 15,23.1402837 15,27 C15,27.5522902 15.4481231,27.9999479 16,28 L33,28 L35,45 C33.7919905,45.9419985 33.0001579,47.376261 33,49 L33,50 L28,50 C25.2437846,50.0000977 22.9998879,52.2441284 23,55 C22.9998879,55.5523423 23.448011,56 24,56 L52,56 C52.551989,56 53.0002293,55.5523423 53,55 C53.0002293,52.2441284 50.7562154,50.0000977 48,50 L43,50 L43,49 C42.9999592,47.374386 42.2080095,45.9419985 41,45 L43,28 L60,28 C60.5518769,27.9999479 61,27.5522902 61,27 C61,23.1402837 57.8597399,20 54,20 Z M42,52 L48,52 C49.4535303,52 50.5802219,52.8358139 51,54 L25,54 C25.4193031,52.8358139 26.5461135,52 28,52 L42,52 Z M38.0000713,46.0001237 C39.6536844,46.0001237 40.9999287,47.3460265 41.0000713,49.0001237 L41.0000713,50.0001237 L35.0000713,50.0000977 L35.0000713,49.0001237 C35.0000713,47.3460265 36.3458469,46.0001237 38.0000713,46.0001237 Z M35,28 L41,28 L39,44 C38.7685567,43.9204819 38.3893102,43.8728175 38,44 C37.6088601,43.8728175 37.2319312,43.9223419 37,44 L35,28 Z M17,26 C17.4681896,23.7197937 19.4957945,22 22,22 L54,22 C56.5036167,22 58.5335767,23.7197937 59,26 L17,26 Z" id="Fill-1" fill="#A1A1A1"></path>
            </g>
        </g>
    </g>
</svg>