<?xml version="1.0" encoding="UTF-8"?>
<svg width="40px" height="50px" viewBox="0 0 40 50" version="1.1" xmlns="http://www.w3.org/2000/svg" xmlns:xlink="http://www.w3.org/1999/xlink">
    <!-- Generator: Sketch 52.2 (67145) - http://www.bohemiancoding.com/sketch -->
    <title>Group 10</title>
    <desc>Created with Sketch.</desc>
    <defs>
        <polygon id="path-1" points="0 49.3617021 40 49.3617021 40 0 0 0"></polygon>
    </defs>
    <g id="new-pages" stroke="none" stroke-width="1" fill="none" fill-rule="evenodd">
        <g id="lifemebel_index" transform="translate(-1012.000000, -2622.000000)">
            <g id="UI/elements/services-Copy" transform="translate(1012.000000, 2622.000000)">
                <g id="Group-10">
                    <path d="M5.06424679,14.2318511 C5.06424679,12.9026168 6.18117245,11.8207107 7.55375284,11.8207107 L19.1708062,11.8207107 L19.1708062,22.0926037 L7.71606312,19.8744167 L7.38983871,21.450358 L15.7693473,23.0735277 L5.06424679,23.0735277 L5.06424679,14.2318511 Z M34.9363948,14.2318511 L34.9363948,22.0926037 L23.4816517,19.8744167 L23.1554273,21.450358 L31.5349359,23.0735277 L20.8298353,23.0735277 L20.8298353,11.8207107 L32.4468887,11.8207107 C33.8194691,11.8207107 34.9363948,12.9026168 34.9363948,14.2318511 Z M36.5957447,23.877034 L36.5957447,14.2318511 C36.5957447,12.0158391 34.7349504,10.212766 32.4468887,10.212766 L7.55375284,10.212766 C5.26569117,10.212766 3.40425532,12.0158391 3.40425532,14.2318511 L3.40425532,23.877034 C3.40425532,24.3207336 3.77506694,24.6808511 4.23473221,24.6808511 L35.7659093,24.6808511 C36.2249331,24.6808511 36.5957447,24.3207336 36.5957447,23.877034 Z" id="Fill-1" fill="#83C04E"></path>
                    <mask id="mask-2" fill="white">
                        <use xlink:href="#path-1"></use>
                    </mask>
                    <g id="Clip-4"></g>
                    <path d="M14.3739368,6.24104336 L25.6269954,6.24104336 L25.6269954,4.82278642 L14.3739368,4.82278642 L14.3739368,6.24104336 Z M13.5701025,7.65957447 L26.430519,7.65957447 C26.8748495,7.65957447 27.2340426,7.34154276 27.2340426,6.95058308 L27.2340426,4.11324671 C27.2340426,3.72228703 26.8748495,3.40425532 26.430519,3.40425532 L13.5701025,3.40425532 C13.1251505,3.40425532 12.7659574,3.72228703 12.7659574,4.11324671 L12.7659574,6.95058308 C12.7659574,7.34154276 13.1251505,7.65957447 13.5701025,7.65957447 Z" id="Fill-3" fill="#83C04E" mask="url(#mask-2)"></path>
                    <path d="M5.9569204,33.6173174 C5.9569204,32.3503935 7.10283633,31.319445 8.5103093,31.319445 C9.91811126,31.319445 11.0636982,32.3503935 11.0636982,33.6173174 C11.0636982,34.883649 9.91811126,35.9151897 8.5103093,35.9151897 C7.10283633,35.9151897 5.9569204,34.883649 5.9569204,33.6173174 M12.7659574,33.6173174 C12.7659574,31.5053829 10.8567556,29.787234 8.5103093,29.787234 C6.16419202,29.787234 4.25531915,31.5053829 4.25531915,33.6173174 C4.25531915,35.7286597 6.16419202,37.4468085 8.5103093,37.4468085 C10.8567556,37.4468085 12.7659574,35.7286597 12.7659574,33.6173174" id="Fill-5" fill="#83C04E" mask="url(#mask-2)"></path>
                    <path d="M31.4891972,35.9151305 C30.0817787,35.9151305 28.936236,34.883846 28.936236,33.6171693 C28.936236,32.3501965 30.0817787,31.3195042 31.4891972,31.3195042 C32.8969448,31.3195042 34.0421584,32.3501965 34.0421584,33.6171693 C34.0421584,34.883846 32.8969448,35.9151305 31.4891972,35.9151305 M31.4891972,29.787234 C29.1431706,29.787234 27.2340426,31.5051532 27.2340426,33.6171693 C27.2340426,35.7285932 29.1431706,37.4468085 31.4891972,37.4468085 C33.8355528,37.4468085 35.7446809,35.7285932 35.7446809,33.6171693 C35.7446809,31.5051532 33.8355528,29.787234 31.4891972,29.787234" id="Fill-6" fill="#83C04E" mask="url(#mask-2)"></path>
                    <path d="M2.19139931,34.3970605 L2.19139931,7.19952858 C2.19139931,4.11154248 4.73389816,1.59996396 7.85780782,1.59996396 L32.1421922,1.59996396 C35.2661018,1.59996396 37.8086007,4.11154248 37.8086007,7.19952858 L37.8086007,34.3970605 C37.8086007,37.4844281 35.2661018,39.9966251 32.1421922,39.9966251 L7.85780782,39.9966251 C4.73389816,39.9966251 2.19139931,37.4844281 2.19139931,34.3970605 Z M38.855015,49.3617021 L40,48.2302239 L33.2008105,41.5118596 C36.7168126,41.0022461 39.427664,38.0107402 39.427664,34.3970605 L39.427664,7.19952858 C39.427664,3.23023261 36.1598097,0 32.1421922,0 L7.85780782,0 C3.84019026,0 0.572336048,3.23023261 0.572336048,7.19952858 L0.572336048,34.3970605 C0.572336048,38.0107402 3.28350036,41.0022461 6.79887661,41.5118596 L0,48.2302239 L1.1446721,49.3617021 L9.00247991,41.5962798 L11.5700126,41.5962798 L4.8571898,48.2302239 L6.00154897,49.3617021 L13.8590439,41.5962798 L26.1406432,41.5962798 L33.998451,49.3617021 L35.1431231,48.2302239 L28.4299874,41.5962798 L30.9975201,41.5962798 L38.855015,49.3617021 Z" id="Fill-7" fill="#83C04E" mask="url(#mask-2)"></path>
                    <polygon id="Fill-8" fill="#83C04E" mask="url(#mask-2)" points="14.4680851 28.0851064 23.8297872 28.0851064 23.8297872 25.5319149 14.4680851 25.5319149"></polygon>
                    <polygon id="Fill-9" fill="#83C04E" mask="url(#mask-2)" points="14.4680851 30.6382979 23.8297872 30.6382979 23.8297872 28.0851064 14.4680851 28.0851064"></polygon>
                </g>
            </g>
        </g>
    </g>
</svg>