<?xml version="1.0" encoding="UTF-8"?>
<svg width="15px" height="3px" viewBox="0 0 15 3" version="1.1" xmlns="http://www.w3.org/2000/svg" xmlns:xlink="http://www.w3.org/1999/xlink">
    <!-- Generator: Sketch 52.2 (67145) - http://www.bohemiancoding.com/sketch -->
    <title>Combined Shape</title>
    <desc>Created with Sketch.</desc>
    <g id="Symbols" stroke="none" stroke-width="1" fill="none" fill-rule="evenodd">
        <g id="colors" transform="translate(-105.000000, -6.000000)" fill="#A1A1A1">
            <g transform="translate(8.000000, 1.000000)" id="Combined-Shape">
                <path d="M98.5,5 C99.3284271,5 100,5.67157288 100,6.5 C100,7.32842712 99.3284271,8 98.5,8 C97.6715729,8 97,7.32842712 97,6.5 C97,5.67157288 97.6715729,5 98.5,5 Z M104.5,5 C105.328427,5 106,5.67157288 106,6.5 C106,7.32842712 105.328427,8 104.5,8 C103.671573,8 103,7.32842712 103,6.5 C103,5.67157288 103.671573,5 104.5,5 Z M110.5,5 C111.328427,5 112,5.67157288 112,6.5 C112,7.32842712 111.328427,8 110.5,8 C109.671573,8 109,7.32842712 109,6.5 C109,5.67157288 109.671573,5 110.5,5 Z"></path>
            </g>
        </g>
    </g>
</svg>