<svg xmlns="http://www.w3.org/2000/svg" width="75" height="75" viewBox="0 0 75 75">
    <g fill="none" fill-rule="evenodd" transform="translate(14 14)">
        <path fill="#83C150" fill-rule="nonzero" d="M44.996 0l.186.016c.39.071.711.34.845.705 1.111 3.055 1.817 9.408-1.017 13.45-1.593 2.276-3.967 3.427-7.055 3.427-.44 0-.869-.031-1.286-.09-.574-1.034-1.245-2.005-2-2.904.94.52 2.062.795 3.286.795 2.331 0 4.098-.838 5.254-2.488 1.847-2.639 1.907-6.858 1.168-10.011-1.02.503-2.278.777-3.619 1.023l-1.768.317c-3.471.639-6.554 1.497-6.98 5.342-.105.93.038 1.83.413 2.646.63-.475 1.313-.896 2.037-1.257l.094-.12c.363-.484 1.007-1.597.403-2.808-.131-.26-.154-.559-.06-.84.094-.28.29-.505.555-.636.511-.251 1.21-.034 1.472.494.415.83.558 1.74.428 2.658 2.112-1.016 3.575-2.406 4.451-4.222.255-.524.943-.76 1.468-.511.265.126.465.35.561.627.097.277.08.576-.047.84-.59 1.22-1.405 2.304-2.438 3.236.422.23.66.717.55 1.207-.105.468-.49.804-.955.853l-.118.006-.297-.032c-.337-.023-1.862.006-3.528.546l-.218.073-.232.09c-.911.336-1.749.772-2.5 1.296l-.098.07c-1.33-1.407-2.878-2.606-4.591-3.542.506-.9.689-1.84.518-2.81-.324-1.833-1.806-3.565-3.398-4.659-.321.694-.819 1.37-1.367 2.056l-.479.592c-.824 1.011-1.483 1.884-1.866 2.704C22.025 8.047 21.268 8 20.5 8h-.052c.42-1.267 1.25-2.418 2.05-3.422l.89-1.1c.65-.815 1.217-1.605 1.26-2.167v-.126c-.031-.392.154-.769.47-.99.322-.221.737-.257 1.09-.092 1.968.917 4.204 2.856 5.28 5.253 1.863-2.174 4.901-2.88 7.486-3.351l1.678-.303c1.528-.29 2.93-.646 3.506-1.32.18-.207.429-.34.7-.373l.138-.008zM26.37 6.028c.603-.072 1.15.36 1.221.963.107.903.072 1.691-.027 2.408-.692-.288-1.404-.533-2.134-.734.037-.44.037-.907-.023-1.415-.071-.601.36-1.148.963-1.222z"/>
        <circle cx="19" cy="28" r="18" stroke="#83C150" stroke-width="2"/>
        <path fill="#83C150" fill-rule="nonzero" d="M14.176 32v-1.815H10.04v-1.221h3.696v-1.683H10.04v-1.166h4.081V24.3H7.928V32h6.248zm4.796.154c1.705 0 2.684-.737 3.41-1.738l-1.606-1.144c-.462.561-.935.935-1.738.935-1.078 0-1.837-.902-1.837-2.057 0-1.144.759-2.057 1.837-2.057.737 0 1.254.341 1.694.891l1.562-1.21c-.682-.946-1.661-1.628-3.234-1.628-2.332 0-4.059 1.76-4.059 4.004 0 2.321 1.771 4.004 3.971 4.004zm8.195 0c2.376 0 4.158-1.793 4.158-4.004 0-2.233-1.76-4.004-4.136-4.004-2.376 0-4.158 1.793-4.158 4.004 0 2.233 1.76 4.004 4.136 4.004zm.022-1.925c-1.166 0-1.969-.968-1.969-2.079 0-1.133.781-2.079 1.947-2.079 1.177 0 1.98.968 1.98 2.079 0 1.133-.781 2.079-1.958 2.079z"/>
    </g>
</svg>
