<svg xmlns="http://www.w3.org/2000/svg" width="75" height="75" viewBox="0 0 75 75">
    <g fill="none" fill-rule="evenodd">
        <g>
            <path fill="#83C150" fill-rule="nonzero" d="M35 40v1H6v-1h29zm0-2v1H6v-1h29zm0-4v1H6v-1h29zm0-2v1H6v-1h29zm0-4v1H6v-1h29zm0-2v1H6v-1h29zm0-4v1H6v-1h29zm0-2v1H6v-1h29zm0-4v1H6v-1h29zm0-2v1H6v-1h29zm0-4v1H6v-1h29zm0-2v1H6V8h29z" transform="translate(17 13)"/>
            <path fill="#FFF" stroke="#83C150" stroke-width="2" d="M36 1c1.105 0 2.105.448 2.828 1.172.673.672 1.107 1.582 1.165 2.593L40 5v39c0 1.073-.423 2.048-1.11 2.766-.634.662-1.493 1.106-2.453 1.21l-.243.02L5 48c-1.105 0-2.105-.448-2.828-1.172-.673-.672-1.107-1.582-1.165-2.593L1 44V5c0-1.105.448-2.105 1.172-2.828.672-.673 1.582-1.107 2.593-1.165L5 1h31zm-1 3h0H6l-.176.008c-.464.04-.883.239-1.208.564-.33.328-.568.796-.616 1.382h0V43l.008.176c.04.464.239.883.564 1.208.328.33.796.568 1.382.616H35l.176-.008c.464-.04.883-.239 1.208-.564.33-.328.568-.796.616-1.382h0V6l-.008-.182c-.043-.48-.256-.91-.578-1.232C36.052 4.224 35.552 4 35 4h0z" transform="translate(17 13)"/>
        </g>
        <g transform="translate(44 44)">
            <circle cx="10.5" cy="10.5" r="10.5" fill="#FFF"/>
            <path fill="#83C150" fill-rule="nonzero" d="M10.5 2c4.687 0 8.5 3.813 8.5 8.5 0 4.687-3.813 8.5-8.5 8.5C5.815 19 2 15.187 2 10.5 2 5.814 5.814 2 10.5 2zm0 1.81c-3.687 0-6.69 3.002-6.69 6.69 0 3.688 3.003 6.69 6.69 6.69 3.688 0 6.69-3.002 6.69-6.69 0-3.688-3.002-6.69-6.69-6.69zm3.644 4.615c.336.372.325.961-.026 1.318l-3.68 3.587c-.163.167-.38.26-.608.26h-.035c-.24-.011-.466-.125-.625-.315l-2.085-1.81c-.322-.385-.288-.975.076-1.316.364-.34.92-.304 1.243.08l1.426 1.235 3.069-3.066c.35-.355.908-.343 1.245.027z"/>
        </g>
    </g>
</svg>
