<svg xmlns="http://www.w3.org/2000/svg" width="80" height="80" viewBox="0 0 80 80">
    <path fill-rule="evenodd" d="M40.452 18v14.81c1.19.295 2.162 1.194 2.546 2.371 9.08 1.586 15.858 9.31 16.204 18.583.009.231-.077.456-.237.622-.161.166-.382.26-.613.26H47.019C46.458 58.261 43.323 61 39.6 61s-6.857-2.739-7.418-6.354H20.85c-.231 0-.453-.094-.613-.26-.161-.166-.246-.391-.237-.622.345-9.273 7.122-16.997 16.203-18.583.383-1.177 1.356-2.076 2.545-2.371V18h1.703zm4.816 36.753H33.935c.58 2.611 2.916 4.546 5.666 4.546 2.75 0 5.085-1.935 5.667-4.546zM39.6 34.408c-.933 0-1.731.703-1.854 1.636-.051.377-.345.675-.722.73-8.264 1.193-14.558 7.923-15.27 16.171h35.692c-.711-8.248-7.006-14.978-15.27-16.171-.376-.055-.671-.353-.721-.73-.123-.933-.921-1.636-1.855-1.636z"/>
</svg>
