<svg xmlns="http://www.w3.org/2000/svg" width="75" height="75" viewBox="0 0 75 75">
    <path fill-rule="evenodd" d="M45 26c2.17 0 4 1.87 4 4v18c0 2.024-1.652 3.812-3.677 3.986l2.623 6.111c.138.322.003.7-.303.846-.08.038-.166.057-.25.057-.23 0-.452-.14-.553-.376l-1.087-2.533c-.09.056-.194.09-.305.09H29.346l-1.198 2.47c-.108.222-.32.349-.541.349-.093 0-.188-.022-.276-.07-.298-.16-.417-.546-.265-.86L30.01 52H30c-2.17 0-4-1.87-4-4V30c0-2.13 1.83-4 4-4h15zm-7.5-9C49.355 17 59 26.777 59 38.794c0 6.065-2.523 11.904-6.923 16.02-.134.124-.303.186-.47.186-.188 0-.374-.076-.511-.227-.26-.285-.242-.73.04-.994 4.115-3.85 6.476-9.312 6.476-14.985 0-11.241-9.022-20.387-20.112-20.387-11.09 0-20.112 9.146-20.112 20.387 0 5.587 2.186 10.8 6.156 14.679.276.27.284.715.018.994-.266.28-.706.289-.982.019C18.337 50.34 16 44.766 16 38.794 16 26.777 25.645 17 37.5 17zm6.497 35H31.373l-1.407 2.902h15.277L43.997 52zM45 28H30c-1.005 0-2 1.023-2 2v18c0 .977.995 2 2 2h15c1.005 0 2-1.023 2-2V30c0-.977-.995-2-2-2zM31.5 45c.828 0 1.5.672 1.5 1.5s-.672 1.5-1.5 1.5-1.5-.672-1.5-1.5.672-1.5 1.5-1.5zm12 0c.828 0 1.5.672 1.5 1.5s-.672 1.5-1.5 1.5-1.5-.672-1.5-1.5.672-1.5 1.5-1.5zm.625-13C44.982 32 46 33.005 46 34v6c0 .995-1.018 2-1.875 2h-13.25C30.018 42 29 40.995 29 40v-6c0-.995 1.018-2 1.875-2h13.25zM44 33H31c-.499 0-1 .506-1 1v6c0 .494.501 1 1 1h13c.499 0 1-.506 1-1v-6c0-.494-.501-1-1-1zm-3.924-4c.234 0 .424.224.424.5s-.19.5-.424.5h-5.152c-.234 0-.424-.224-.424-.5s.19-.5.424-.5h5.152z"/>
</svg>
