<svg width="18" height="18" viewBox="0 0 18 18" fill="none" xmlns="http://www.w3.org/2000/svg">
<path d="M2.24951 3.375H5.62451V10.6875H2.24951C2.10033 10.6875 1.95725 10.6282 1.85176 10.5227C1.74627 10.4173 1.68701 10.2742 1.68701 10.125V3.9375C1.68701 3.78832 1.74627 3.64524 1.85176 3.53975C1.95725 3.43426 2.10033 3.375 2.24951 3.375V3.375Z" stroke="#A1A1A1" stroke-linecap="round" stroke-linejoin="round"/>
<path d="M5.62451 10.6875L8.43701 16.3125C8.73249 16.3125 9.02507 16.2543 9.29805 16.1412C9.57103 16.0282 9.81907 15.8624 10.028 15.6535C10.2369 15.4446 10.4027 15.1965 10.5157 14.9235C10.6288 14.6506 10.687 14.358 10.687 14.0625V12.375H15.0376C15.1971 12.375 15.3548 12.3411 15.5002 12.2755C15.6457 12.2099 15.7754 12.1141 15.881 11.9945C15.9866 11.8749 16.0655 11.7343 16.1126 11.5819C16.1596 11.4294 16.1737 11.2687 16.1539 11.1105L15.3102 4.36046C15.2762 4.08838 15.144 3.83808 14.9384 3.65661C14.7328 3.47514 14.4681 3.375 14.1939 3.375H5.62451" stroke="#A1A1A1" stroke-linecap="round" stroke-linejoin="round"/>
</svg>
