<svg width="50" height="50" viewBox="0 0 50 50" fill="none" xmlns="http://www.w3.org/2000/svg">
    <path fill-rule="evenodd" clip-rule="evenodd" d="m25.394 25.546.237.003.257.012.276.02.293.028.31.037.324.045.338.055.174.03.355.068.365.078.374.087.381.097.193.052.389.112.196.06.394.128c.066.022.132.044.198.068l.396.143C33.945 27.84 37 30.02 37 33.654v3.611c0 .295-.19.551-.464.626-3.41.927-7.134 1.417-10.876 1.468l-.66.005c-3.962 0-7.925-.491-11.536-1.473a.642.642 0 0 1-.464-.626v-3.61c0-3.637 3.055-5.817 6.156-6.986l.396-.143c.066-.024.132-.046.198-.068l.394-.128.196-.06.39-.112a17.4 17.4 0 0 1 .192-.052l.38-.097.375-.087.365-.078.355-.068.174-.03.338-.055.324-.045.31-.037.293-.028.276-.02.257-.012.237-.003h.788zM25.393 27h-.789c-4.52 0-9.98 2.692-10.147 6.477l-.004.178v2.992l.553.136c2.94.697 6.119 1.077 9.346 1.122l.647.005c3.449 0 6.857-.384 9.991-1.127l.554-.137v-2.991c0-3.818-5.39-6.569-9.938-6.653L25.392 27zM25 11c3.81 0 6.91 3.1 6.91 6.91 0 3.743-2.994 6.801-6.713 6.905l-.197.003c-3.81 0-6.909-3.099-6.909-6.909a6.918 6.918 0 0 1 6.713-6.906l.196-.003zM25 12.455a5.463 5.463 0 0 0-5.454 5.455A5.462 5.462 0 0 0 25 23.364a5.462 5.462 0 0 0 5.454-5.454A5.463 5.463 0 0 0 25 12.455z" fill="#000"/>
</svg>
