<svg width="18" height="18" viewBox="0 0 18 18" fill="none" xmlns="http://www.w3.org/2000/svg">
<path d="M2.24951 7.3125H5.62451V14.625H2.24951C2.10033 14.625 1.95725 14.5657 1.85176 14.4602C1.74627 14.3548 1.68701 14.2117 1.68701 14.0625V7.875C1.68701 7.72582 1.74627 7.58274 1.85176 7.47725C1.95725 7.37176 2.10033 7.3125 2.24951 7.3125V7.3125Z" stroke="#A1A1A1" stroke-linecap="round" stroke-linejoin="round"/>
<path d="M5.62451 7.3125L8.43701 1.6875C8.73249 1.6875 9.02507 1.7457 9.29805 1.85877C9.57103 1.97184 9.81907 2.13758 10.028 2.34651C10.2369 2.55544 10.4027 2.80348 10.5157 3.07646C10.6288 3.34944 10.687 3.64203 10.687 3.9375V5.625H15.0376C15.1971 5.625 15.3548 5.65892 15.5002 5.72452C15.6457 5.79012 15.7754 5.88589 15.881 6.00547C15.9866 6.12506 16.0655 6.26573 16.1126 6.41815C16.1596 6.57057 16.1737 6.73125 16.1539 6.88954L15.3102 13.6395C15.2762 13.9116 15.144 14.1619 14.9384 14.3434C14.7328 14.5249 14.4681 14.625 14.1939 14.625H5.62451" stroke="#A1A1A1" stroke-linecap="round" stroke-linejoin="round"/>
</svg>
