<svg width="50" height="50" viewBox="0 0 50 50" fill="none" xmlns="http://www.w3.org/2000/svg">
    <path fill-rule="evenodd" clip-rule="evenodd" d="m17.037 20.58-4.079-2.354L25 11.274l3.676 2.123-11.639 7.184zm-.654.994-3.861-2.23v13.897l11.865 6.85V26.195l-3.744-2.162v3.325a.34.34 0 0 1-.506.296l-3.581-2.013a.34.34 0 0 1-.173-.296v-3.771zm3.581 2.067v3.138l-2.903-1.633v-3.18l2.903 1.675zm.61-1.019-2.87-1.656 11.64-7.184 2.869 1.657-11.64 7.183zm.667.386L25 25.178l12.041-6.952-4.16-2.402-11.64 7.184zm4.333 3.21v13.897L37.48 33.24V19.344l-11.906 6.874zm-13.943 7.88 13.066 7.543c.09.053.207.08.31.08a.59.59 0 0 0 .297-.08l13.066-7.543a.593.593 0 0 0 .297-.514V18.316c0-.03-.002-.06-.007-.09a.594.594 0 0 0-.29-.605l-13.066-7.543a.63.63 0 0 0-.607 0L11.631 17.62a.595.595 0 0 0-.297.515v15.448c0 .212.113.408.297.514z" fill="#000"/>
</svg>
