<svg xmlns="http://www.w3.org/2000/svg" width="80" height="80" viewBox="0 0 80 80">
    <path fill-rule="evenodd" d="M58.15 18c.47 0 .85.38.85.848v42.305c0 .468-.38.847-.85.847h-36.3c-.47 0-.85-.379-.85-.847V18.848c0-.468.38-.848.85-.848h36.3zM39.023 53.947H22.996v6.06h16.07l-.044-6.06zm18.024 0H41.02v6.06h16.037l-.011-6.06zm-25.068 3.03v1h-2.003v-1h2.003zm18.085 0v1h-2.004v-1h2.004zM39.066 26.024h-8.864v1.614c.145.037.285.087.417.154l.128.073 3.45 1.504c.4.243.553.642.444 1.023-.099.344-.385.586-.73.631l-.118.008h-8.15c-.394 0-.435-.253-.549-.63-.1-.34-.29-.695-.027-.92l.094-.07 3.451-1.56c.136-.091.303-.153.483-.197l.137-.03v-1.6h-6.236v27h16.026l.044-27zm17.99-6.052H41.02v33h16.026l.01-33zM44.05 36.025v3h-1.002v-3h1.002zM30.296 28.72c-.427-.256-.794-.25-1.114-.083l-.105.062-3.017 1.363h7.315l-3.079-1.342zm8.77-8.748h-16.07v5.083h16.07v-5.083z"/>
</svg>
