<svg xmlns="http://www.w3.org/2000/svg" width="80" height="80" viewBox="0 0 80 80">
    <path fill-rule="evenodd" d="M52.148 25c.471 0 .852.365.852.815v13.37c0 .45-.381.815-.852.815l-8.149-.001V42h17.162c.464 0 .839.377.839.843v11.314c0 .465-.375.843-.839.843H18.839c-.464 0-.839-.378-.839-.843V42.843c0-.466.375-.843.839-.843h17.16v-2.001L27.852 40c-.471 0-.852-.365-.852-.816v-13.37c0-.45.381-.814.852-.814h24.296zM29.999 44H20v9h9.999v-9zM49 44H30.999v4H49v1H30.999v4H49v-9zm11 0H50v9h10v-9zm-19 7v1h-2v-1h2zm0-5v1h-2v-1h2zm1-6h-4v2h4v-2zm9.032-13H29v11h22.032V27z"/>
</svg>
