<svg xmlns="http://www.w3.org/2000/svg" width="75" height="75" viewBox="0 0 75 75">
    <g fill="#83C150">
        <path d="M4.33 17.416L5.926 18.7c-.138.17-.274.344-.406.52-2.239 2.976-3.467 6.586-3.467 10.384 0 9.585 7.811 17.354 17.447 17.354s17.447-7.77 17.447-17.354c0-3.684-1.156-7.192-3.268-10.115l-.258-.348 1.637-1.232C37.6 21.25 39 25.323 39 29.604 39 40.316 30.27 49 19.5 49S0 40.316 0 29.604c0-4.243 1.374-8.281 3.876-11.608l.225-.292.23-.288zm27.302 8.03c.46 1.326.697 2.727.697 4.158 0 7.048-5.744 12.76-12.829 12.76-7.085 0-12.829-5.712-12.829-12.76 0-1.26.184-2.494.54-3.677l.143-.44.971.329c-.414 1.209-.628 2.484-.628 3.788 0 6.484 5.285 11.74 11.803 11.74 6.518 0 11.803-5.256 11.803-11.74 0-1.171-.173-2.32-.508-3.416l-.133-.41.97-.332z" transform="translate(18 13)"/>
        <path d="M24 0v5l4.977-.03v3.055l.567.001c.458 0 .911.076 1.343.225 1.992.685 3.124 2.75 2.653 4.79l-.053.204-.063.2L27.28 31.24c-1.148 3.298-4.271 5.51-7.78 5.51-3.298 0-6.266-1.957-7.567-4.964l-.11-.268-.103-.278-6.144-17.795c-.15-.43-.226-.881-.226-1.336 0-2.096 1.592-3.836 3.684-4.06l.211-.017.21-.006.561-.001V4.97L15 5V0h9zm5.544 10.004H9.485l-.151.004c-1.08.062-1.931 1.019-1.931 2.101 0 .17.021.34.064.505l.049.163 6.137 17.776.09.242c.923 2.357 3.208 3.913 5.757 3.913 2.55 0 4.827-1.555 5.752-3.9l.088-.236 6.135-17.767.046-.143c.294-1.036-.276-2.191-1.305-2.545-.162-.056-.33-.091-.5-.105l-.172-.008zM19.5 26.542c1.7 0 3.079 1.37 3.079 3.062 0 1.692-1.379 3.063-3.079 3.063-1.7 0-3.079-1.371-3.079-3.063 0-1.691 1.379-3.062 3.079-3.062zm0 2.041c-.567 0-1.026.457-1.026 1.021 0 .564.46 1.021 1.026 1.021.567 0 1.026-.457 1.026-1.02 0-.565-.46-1.022-1.026-1.022zm7.472-21.608H12.038v1.05h14.934v-1.05zM22 2.042L17 2v3l5-.03V2.042z" transform="translate(18 13)"/>
    </g>
</svg>
