<svg width="50" height="50" viewBox="0 0 50 50" fill="none" xmlns="http://www.w3.org/2000/svg">
    <path fill-rule="evenodd" clip-rule="evenodd" d="M39.756 25.833C39.756 17.654 33.102 11 24.923 11c-8.178 0-14.833 6.654-14.833 14.833 0 3.116.949 6.08 2.748 8.6l-2.767 5.313a.63.63 0 0 0 .753.89l6.451-2.096a14.795 14.795 0 0 0 7.648 2.127c8.18 0 14.833-6.655 14.833-14.834zm-28.23 0c0-7.385 6.01-13.395 13.395-13.395s13.395 6.01 13.395 13.395-6.01 13.395-13.395 13.395c-2.438 0-4.82-.662-6.905-1.92l-.562-.338-5.197 1.687 2.262-4.341-.512-.718-.184-.264a13.25 13.25 0 0 1-2.296-7.5z" fill="#000"/>
    <path d="m25.142 30.46-.696-.62c-2.471-2.199-4.102-3.648-4.102-5.427 0-1.45 1.16-2.589 2.639-2.589.834 0 1.636.381 2.159.984a2.896 2.896 0 0 1 2.159-.984c1.478 0 2.639 1.14 2.639 2.589 0 1.779-1.632 3.228-4.103 5.43l-.695.617z" stroke="#000" stroke-width=".806"/>
</svg>
