<svg width="74" height="74" fill="none" xmlns="http://www.w3.org/2000/svg">
    <path fill-rule="evenodd" clip-rule="evenodd" d="M37 16.772c-11.152 0-20.226 9.075-20.226 20.228 0 11.152 9.074 20.225 20.227 20.225S57.227 48.152 57.227 37c0-11.153-9.073-20.228-20.226-20.228zM37 59.2c-12.24 0-22.2-9.958-22.2-22.2 0-12.241 9.96-22.2 22.2-22.2 12.242 0 22.2 9.959 22.2 22.2 0 12.242-9.958 22.2-22.2 22.2z" fill="#000"/>
    <path d="M44.227 32.273a1.022 1.022 0 1 1 1.402 1.49L34.803 43.944l-5.445-5.122a1.022 1.022 0 0 1 1.401-1.49l4.043 3.803 9.425-8.863z" fill="#83C150"/>
</svg>
