<svg width="345" height="75" viewBox="0 0 345 75" fill="none" xmlns="http://www.w3.org/2000/svg">
<g filter="url(#filter0_d_1001_16456)">
<rect x="8.33887" y="18.96" width="36.0639" height="36.04" rx="18.02" fill="white"/>
</g>
<rect x="14.7026" y="25.3201" width="23.3354" height="23.32" rx="11" fill="white" stroke="#83C150" stroke-width="7"/>
<g clip-path="url(#clip0_1001_16456)">
<g filter="url(#filter1_d_1001_16456)">
<path fill-rule="evenodd" clip-rule="evenodd" d="M60.4391 13C57.6777 13 55.4391 15.2386 55.4391 18V31.5564L49.4331 37.5564L55.4391 43.5564V57C55.4391 59.7614 57.6777 62 60.4391 62H276.666C279.428 62 281.666 59.7614 281.666 57V18C281.666 15.2386 279.428 13 276.666 13H60.4391Z" fill="black" fill-opacity="0.7"/>
</g>
<path d="M80.4554 42H96.1354V30.8H93.0314V39.28H89.8474V30.8H86.7434V39.28H83.5594V30.8H80.4554V42ZM102.032 42.208C104.816 42.208 106.832 40.144 106.832 37.68C106.832 35.184 104.832 33.152 102.064 33.152C99.2796 33.152 97.2636 35.216 97.2636 37.68C97.2636 40.176 99.2636 42.208 102.032 42.208ZM102.064 39.632C100.992 39.632 100.224 38.736 100.224 37.68C100.224 36.608 100.928 35.728 102.032 35.728C103.104 35.728 103.872 36.624 103.872 37.68C103.872 38.752 103.168 39.632 102.064 39.632ZM110.356 44.608C112.084 44.608 112.9 43.808 113.652 41.792L116.82 33.344H113.7L112.068 38.56L110.34 33.344H107.156L110.548 41.84C110.356 42.112 110.148 42.192 109.844 42.192C109.508 42.192 108.996 42.016 108.516 41.728L107.572 43.856C108.372 44.304 109.284 44.608 110.356 44.608ZM117.491 44.56H120.531V40.944C121.091 41.6 121.859 42.192 123.171 42.192C125.219 42.192 126.995 40.48 126.995 37.664C126.995 34.864 125.219 33.152 123.155 33.152C121.859 33.152 121.123 33.776 120.531 34.496V33.344H117.491V44.56ZM122.227 39.648C121.251 39.648 120.467 38.832 120.467 37.68C120.467 36.512 121.251 35.696 122.227 35.696C123.219 35.696 124.003 36.512 124.003 37.648C124.003 38.848 123.219 39.648 122.227 39.648ZM130.544 44.608C132.272 44.608 133.088 43.808 133.84 41.792L137.008 33.344H133.888L132.256 38.56L130.528 33.344H127.344L130.736 41.84C130.544 42.112 130.336 42.192 130.032 42.192C129.696 42.192 129.184 42.016 128.704 41.728L127.76 43.856C128.56 44.304 129.472 44.608 130.544 44.608ZM137.679 42H140.671V37.792L142.719 40.672L144.831 37.728V42H147.871V33.344H144.783L142.767 36.336L140.767 33.344H137.679V42ZM154.121 42.16C156.297 42.16 157.801 40.784 157.801 33.952V33.52H160.409V42H163.513V30.8H154.905V32.352C154.905 39.136 154.073 39.584 153.193 39.584C153.049 39.584 152.617 39.552 152.473 39.52L152.265 41.904C152.505 41.984 153.305 42.16 154.121 42.16ZM167.481 42.192C168.617 42.192 169.433 41.76 170.025 41.104V42H173.033V37.024C173.033 35.808 172.761 34.912 172.105 34.272C171.417 33.584 170.361 33.216 168.809 33.216C167.321 33.216 166.281 33.488 165.305 33.888L165.929 36.032C166.697 35.728 167.401 35.552 168.313 35.552C169.481 35.552 170.041 36.064 170.041 36.96V37.104C169.545 36.928 168.761 36.768 167.961 36.768C165.929 36.768 164.569 37.696 164.569 39.488C164.569 41.248 165.833 42.192 167.481 42.192ZM168.569 40.288C167.945 40.288 167.497 39.936 167.497 39.344C167.497 38.672 168.009 38.24 168.889 38.24C169.337 38.24 169.769 38.336 170.073 38.464V38.864C170.073 39.728 169.449 40.288 168.569 40.288ZM174.259 42H177.059L179.939 37.664V42H182.883V33.344H180.083L177.203 37.68V33.344H174.259V42ZM178.643 32.64C180.083 32.64 181.059 31.776 181.283 30.256L179.699 29.968C179.507 30.528 179.203 30.896 178.643 30.896C178.083 30.896 177.779 30.528 177.587 29.968L176.003 30.256C176.227 31.776 177.203 32.64 178.643 32.64ZM189.037 44.56H192.077V41.6C192.429 41.84 193.053 42.144 193.757 42.144C195.805 42.144 197.261 40.48 197.261 37.664C197.261 34.864 195.805 33.2 193.741 33.2C193.037 33.2 192.429 33.536 192.077 33.824V30.8H189.037V33.824C188.669 33.536 188.061 33.2 187.373 33.2C185.309 33.2 183.853 34.864 183.853 37.632C183.853 40.48 185.309 42.144 187.357 42.144C188.045 42.144 188.669 41.84 189.037 41.6V44.56ZM188.301 39.696C187.309 39.696 186.845 38.848 186.845 37.68C186.845 36.512 187.309 35.648 188.301 35.648C188.557 35.648 188.813 35.712 189.037 35.824V39.536C188.813 39.648 188.557 39.696 188.301 39.696ZM192.813 39.696C192.541 39.696 192.301 39.648 192.077 39.536V35.824C192.301 35.712 192.541 35.648 192.813 35.648C193.805 35.648 194.269 36.512 194.269 37.648C194.269 38.848 193.805 39.696 192.813 39.696ZM198.244 42H201.236V37.792L203.284 40.672L205.396 37.728V42H208.436V33.344H205.348L203.332 36.336L201.332 33.344H198.244V42ZM214.04 42.208C215.768 42.208 216.968 41.504 217.8 40.448L216.12 39.056C215.496 39.664 214.92 39.936 214.2 39.936C213.256 39.936 212.568 39.456 212.328 38.512H218.12C218.136 38.304 218.136 38.08 218.136 37.888C218.136 35.344 216.76 33.152 213.768 33.152C211.208 33.152 209.4 35.152 209.4 37.68C209.4 40.4 211.32 42.208 214.04 42.208ZM212.28 36.96C212.44 36.016 212.984 35.392 213.784 35.392C214.616 35.392 215.176 36 215.288 36.96H212.28ZM223.695 42.208C226.383 42.208 228.335 40.224 228.335 37.808C228.335 35.424 226.399 33.872 224.207 33.872C222.447 33.872 221.439 34.8 221.231 35.152C221.263 34.72 221.615 33.696 223.167 33.408L227.711 32.576L227.343 30.224L222.927 30.944C219.551 31.488 219.071 34.32 219.071 36.848C219.071 40.352 220.607 42.208 223.695 42.208ZM223.727 39.632C222.751 39.632 222.047 38.816 222.047 37.84C222.047 36.848 222.687 36.048 223.695 36.048C224.671 36.048 225.375 36.864 225.375 37.84C225.375 38.832 224.735 39.632 223.727 39.632ZM233.587 42.208C235.315 42.208 236.515 41.504 237.347 40.448L235.667 39.056C235.043 39.664 234.467 39.936 233.747 39.936C232.803 39.936 232.115 39.456 231.875 38.512H237.667C237.683 38.304 237.683 38.08 237.683 37.888C237.683 35.344 236.307 33.152 233.315 33.152C230.755 33.152 228.947 35.152 228.947 37.68C228.947 40.4 230.867 42.208 233.587 42.208ZM231.827 36.96C231.987 36.016 232.531 35.392 233.331 35.392C234.163 35.392 234.723 36 234.835 36.96H231.827ZM239.355 42.112C241.195 42.112 242.603 41.216 242.603 35.984V35.76H244.203V42H247.243V33.344H239.771V35.008C239.771 39.456 239.179 39.68 238.635 39.68C238.555 39.68 238.475 39.68 238.139 39.632L238.011 41.984C238.379 42.048 239.035 42.112 239.355 42.112ZM248.55 42H253.19C255.286 42 256.63 40.88 256.63 39.008C256.63 37.056 255.11 36.064 253.062 36.064H251.59V33.344H248.55V42ZM251.59 39.856V38.016H252.534C253.27 38.016 253.702 38.352 253.702 38.912C253.702 39.536 253.27 39.856 252.534 39.856H251.59Z" fill="white"/>
</g>
<defs>
<filter id="filter0_d_1001_16456" x="0.338867" y="14.96" width="52.064" height="52.04" filterUnits="userSpaceOnUse" color-interpolation-filters="sRGB">
<feFlood flood-opacity="0" result="BackgroundImageFix"/>
<feColorMatrix in="SourceAlpha" type="matrix" values="0 0 0 0 0 0 0 0 0 0 0 0 0 0 0 0 0 0 127 0" result="hardAlpha"/>
<feOffset dy="4"/>
<feGaussianBlur stdDeviation="4"/>
<feColorMatrix type="matrix" values="0 0 0 0 0 0 0 0 0 0 0 0 0 0 0 0 0 0 0.2 0"/>
<feBlend mode="normal" in2="BackgroundImageFix" result="effect1_dropShadow_1001_16456"/>
<feBlend mode="normal" in="SourceGraphic" in2="effect1_dropShadow_1001_16456" result="shape"/>
</filter>
<filter id="filter1_d_1001_16456" x="39.4331" y="8" width="252.233" height="69" filterUnits="userSpaceOnUse" color-interpolation-filters="sRGB">
<feFlood flood-opacity="0" result="BackgroundImageFix"/>
<feColorMatrix in="SourceAlpha" type="matrix" values="0 0 0 0 0 0 0 0 0 0 0 0 0 0 0 0 0 0 127 0" result="hardAlpha"/>
<feOffset dy="5"/>
<feGaussianBlur stdDeviation="5"/>
<feColorMatrix type="matrix" values="0 0 0 0 0 0 0 0 0 0 0 0 0 0 0 0 0 0 0.2 0"/>
<feBlend mode="normal" in2="BackgroundImageFix" result="effect1_dropShadow_1001_16456"/>
<feBlend mode="normal" in="SourceGraphic" in2="effect1_dropShadow_1001_16456" result="shape"/>
</filter>
<clipPath id="clip0_1001_16456">
<rect width="295.296" height="75" fill="white" transform="translate(49.4331)"/>
</clipPath>
</defs>
</svg>
