<svg xmlns="http://www.w3.org/2000/svg" width="80" height="80" viewBox="0 0 80 80">
    <path fill-rule="evenodd" d="M55.223 28c.455 0 .825.369.825.825V37l1.207.004c.457 0 .826.369.826.825v2.17l2.094.001c.456 0 .825.369.825.825v10.396c0 .455-.37.824-.825.824l-3.378-.001v1.72c0 .108-.073.2-.173.228l-.063.008h-2.586c-.109 0-.2-.074-.228-.173l-.008-.063-.001-1.72H26.796l.001 1.72c0 .108-.074.2-.174.228l-.062.008h-2.587c-.108 0-.2-.074-.227-.173l-.009-.063v-1.72l-3.912.001c-.456 0-.826-.369-.826-.824V40.825c0-.456.37-.825.826-.825l2.208-.001.001-2.17c0-.456.37-.825.826-.825l1.145-.001.001-8.178c0-.456.37-.825.825-.825h30.39zm3.828 14H21.003v8H59.05v-8zm-3.125-3.02l-31.92.02v1l31.92-.02v-1zm-1.88-9.012H26.008v7.036l6.008-.036V32c.168.042 14.708.042 15.019 0v4.968l7.01.036v-7.036zM46.034 33H33.018v4.004h13.017V33z"/>
</svg>
