<svg width="50" height="50" viewBox="0 0 50 50" fill="none" xmlns="http://www.w3.org/2000/svg">
    <path fill-rule="evenodd" clip-rule="evenodd" d="M19.978 38.347a.684.684 0 1 1 1.368.002.684.684 0 0 1-1.368-.002zm-1.57 0a2.256 2.256 0 0 0 2.254 2.253 2.256 2.256 0 0 0 2.253-2.254 2.255 2.255 0 0 0-2.253-2.252 2.255 2.255 0 0 0-2.254 2.252zm16.958 0a.684.684 0 1 1 1.367.003.684.684 0 0 1-1.367-.003zm-1.57 0A2.256 2.256 0 0 0 36.05 40.6a2.256 2.256 0 0 0 2.254-2.253 2.255 2.255 0 0 0-2.254-2.253 2.255 2.255 0 0 0-2.254 2.253zM19.251 34.414h17.94c.38 0 .686-.303.686-.677a.681.681 0 0 0-.687-.677H19.804l-.393-1.768h18.712a.688.688 0 0 0 .683-.556l2.183-12.308a.65.65 0 0 0-.134-.522.7.7 0 0 0-.49-.258l-24.372-1.963a.743.743 0 0 0-.054-.002l-.747-3.358a.683.683 0 0 0-.558-.522L9.8 11.008a.691.691 0 0 0-.79.557.679.679 0 0 0 .565.779l4.376.719 4.629 20.819c.069.31.349.532.671.532zm-3.008-17.366 23.255 1.873-1.957 11.033H19.113l-2.87-12.906z" fill="#000"/>
</svg>
