<?xml version="1.0" encoding="UTF-8"?>
<svg width="43px" height="42px" viewBox="0 0 43 42" version="1.1" xmlns="http://www.w3.org/2000/svg" xmlns:xlink="http://www.w3.org/1999/xlink">
    <!-- Generator: Sketch 62 (91390) - https://sketch.com -->
    <title>metro</title>
    <desc>Created with Sketch.</desc>
    <g id="Page-1" stroke="none" stroke-width="1" fill="none" fill-rule="evenodd">
        <g id="metro" fill="#FFFFFF">
            <path d="M29,9 C31.17,9 33,10.87 33,13 L33,31 C33,33.024 31.348,34.812 29.323,34.986 L31.946,41.097 C32.084,41.419 31.949,41.797 31.643,41.943 C31.563,41.981 31.477,42 31.393,42 C31.163,42 30.941,41.86 30.84,41.624 L29.753,39.091 C29.663,39.147 29.559,39.181 29.448,39.181 L13.346,39.181 L12.148,41.651 C12.04,41.873 11.828,42 11.607,42 C11.514,42 11.419,41.978 11.331,41.93 C11.033,41.77 10.914,41.384 11.066,41.07 L14.01,35 L14,35 C11.83,35 10,33.13 10,31 L10,13 C10,10.87 11.83,9 14,9 L29,9 Z M21.5,0 C33.355,0 43,9.777 43,21.794 C43,27.859 40.477,33.698 36.077,37.814 C35.943,37.938 35.774,38 35.607,38 C35.419,38 35.233,37.924 35.096,37.773 C34.836,37.488 34.854,37.043 35.136,36.779 C39.251,32.929 41.612,27.467 41.612,21.794 C41.612,10.553 32.59,1.407 21.5,1.407 C10.41,1.407 1.388,10.553 1.388,21.794 C1.388,27.381 3.574,32.594 7.544,36.473 C7.82,36.743 7.828,37.188 7.562,37.467 C7.296,37.747 6.856,37.756 6.58,37.486 C2.337,33.34 0,27.766 0,21.794 C0,9.777 9.645,0 21.5,0 Z M27.997,35 L15.373,35 L13.966,37.902 L29.243,37.902 L27.997,35 Z M29,11 L14,11 C12.995,11 12,12.023 12,13 L12,31 C12,31.977 12.995,33 14,33 L29,33 C30.005,33 31,31.977 31,31 L31,13 C31,12.023 30.005,11 29,11 Z M15.5,28 C16.328,28 17,28.672 17,29.5 C17,30.328 16.328,31 15.5,31 C14.672,31 14,30.328 14,29.5 C14,28.672 14.672,28 15.5,28 Z M27.5,28 C28.328,28 29,28.672 29,29.5 C29,30.328 28.328,31 27.5,31 C26.672,31 26,30.328 26,29.5 C26,28.672 26.672,28 27.5,28 Z M28.125,15 C28.982,15 30,16.005 30,17 L30,23 C30,23.995 28.982,25 28.125,25 L14.875,25 C14.018,25 13,23.995 13,23 L13,17 C13,16.005 14.018,15 14.875,15 L28.125,15 Z M28,16 L15,16 C14.501,16 14,16.506 14,17 L14,23 C14,23.494 14.501,24 15,24 L28,24 C28.499,24 29,23.494 29,23 L29,17 C29,16.506 28.499,16 28,16 Z M24.076,12 C24.31,12 24.5,12.224 24.5,12.5 C24.5,12.776 24.31,13 24.076,13 L18.924,13 C18.69,13 18.5,12.776 18.5,12.5 C18.5,12.224 18.69,12 18.924,12 L24.076,12 Z" id="Shape"></path>
        </g>
    </g>
</svg>