<svg xmlns="http://www.w3.org/2000/svg" width="75" height="75" viewBox="0 0 75 75">
    <g fill="none" fill-rule="evenodd">
        <g>
            <path stroke="#83C150" stroke-width="2" d="M36 10c1.105 0 2.105.448 2.828 1.172C39.552 11.895 40 12.895 40 14h0v30c0 1.105-.448 2.105-1.172 2.828C38.105 47.552 37.105 48 36 48h0H5c-1.105 0-2.105-.448-2.828-1.172C1.448 46.105 1 45.105 1 44h0V14c0-1.105.448-2.105 1.172-2.828C2.895 10.448 3.895 10 5 10h0z" transform="translate(17 13)"/>
            <path fill="#FFF" stroke="#83C150" stroke-width="2" d="M36 1c1.105 0 2.105.448 2.828 1.172C39.552 2.895 40 3.895 40 5h0v35c0 1.105-.448 2.105-1.172 2.828C38.105 43.552 37.105 44 36 44h0H5c-1.105 0-2.105-.448-2.828-1.172C1.448 42.105 1 41.105 1 40h0V5c0-1.105.448-2.105 1.172-2.828C2.895 1.448 3.895 1 5 1h31z" transform="translate(17 13)"/>
            <path fill="#83C150" fill-rule="nonzero" d="M14.333 33.5L16 35.167l-.833.833-1.667-1.667.833-.833zm-1.666 0l.833.833L11.833 36 11 35.167l1.667-1.667zm15.666 0L30 35.167l-.833.833-1.667-1.667.833-.833zm-1.666 0l.833.833L25.833 36 25 35.167l1.667-1.667zM11.833 31l1.667 1.667-.833.833L11 31.833l.833-.833zm3.334 0l.833.833-1.667 1.667-.833-.833L15.167 31zm10.666 0l1.667 1.667-.833.833L25 31.833l.833-.833zm3.334 0l.833.833-1.667 1.667-.833-.833L29.167 31zm-14.834-8.5L16 24.167l-.833.833-1.667-1.667.833-.833zm-1.666 0l.833.833L11.833 25 11 24.167l1.667-1.667zm16.5-2.5l.833.833-1.666 1.667L30 24.167l-.833.833-1.667-1.667.833-.833-.833-.833L29.167 20zm-2.5 2.5l.833.833L25.833 25 25 24.167l1.667-1.667zM11.833 20l1.667 1.667-.833.833L11 20.833l.833-.833zm3.334 0l.833.833-1.667 1.667-.833-.833L15.167 20zm10.666 0l1.667 1.667-.833.833L25 20.833l.833-.833zm-11.5-8.5L16 13.167l-.833.833-1.667-1.667.833-.833zm-1.666 0l.833.833L11.833 14 11 13.167l1.667-1.667zm16.5-2.5l.833.833-1.666 1.667L30 13.167l-.833.833-1.667-1.667.833-.833-.833-.833L29.167 9zm-2.5 2.5l.833.833L25.833 14 25 13.167l1.667-1.667zM11.833 9l1.667 1.667-.833.833L11 9.833 11.833 9zm3.334 0l.833.833-1.667 1.667-.833-.833L15.167 9zm10.666 0l1.667 1.667-.833.833L25 9.833 25.833 9z" transform="translate(17 13)"/>
        </g>
        <g transform="translate(44 44)">
            <circle cx="10.5" cy="10.5" r="10.5" fill="#FFF"/>
            <path fill="#83C150" fill-rule="nonzero" d="M10.5 2c4.687 0 8.5 3.813 8.5 8.5 0 4.687-3.813 8.5-8.5 8.5C5.815 19 2 15.187 2 10.5 2 5.814 5.814 2 10.5 2zm0 1.81c-3.687 0-6.69 3.002-6.69 6.69 0 3.688 3.003 6.69 6.69 6.69 3.688 0 6.69-3.002 6.69-6.69 0-3.688-3.002-6.69-6.69-6.69zm3.644 4.615c.336.372.325.961-.026 1.318l-3.68 3.587c-.163.167-.38.26-.608.26h-.035c-.24-.011-.466-.125-.625-.315l-2.085-1.81c-.322-.385-.288-.975.076-1.316.364-.34.92-.304 1.243.08l1.426 1.235 3.069-3.066c.35-.355.908-.343 1.245.027z"/>
        </g>
    </g>
</svg>
