<?xml version="1.0" encoding="UTF-8"?>
<svg width="30px" height="40px" viewBox="0 0 30 40" version="1.1" xmlns="http://www.w3.org/2000/svg" xmlns:xlink="http://www.w3.org/1999/xlink">
    <!-- Generator: Sketch 62 (91390) - https://sketch.com -->
    <title>Shape</title>
    <desc>Created with Sketch.</desc>
    <g id="Page-1" stroke="none" stroke-width="1" fill="none" fill-rule="evenodd">
        <g id="file-large" fill="#A1A1A1">
            <path d="M30,0 L30,40 L0,40 L0,0 L30,0 Z M28,2 L2,2 L2,38 L28,38 L28,2 Z M17,21 L17,22 L7,22 L7,21 L17,21 Z M23,17 L23,18 L7,18 L7,17 L23,17 Z M23,13 L23,14 L7,14 L7,13 L23,13 Z M23,9 L23,10 L7,10 L7,9 L23,9 Z" id="Shape"></path>
        </g>
    </g>
</svg>