<svg xmlns="http://www.w3.org/2000/svg" width="80" height="80" viewBox="0 0 80 80">
    <path fill-rule="evenodd" d="M51.958 19c.645 0 1.042.42 1.042 1.167v3.666c0 .748-.397 1.167-1.042 1.167h-1.854l1.895 36.107c.012.233-.072.46-.234.63-.163.168-.387.263-.621.263h-3.55c-.456 0-.832-.354-.856-.805L46 56H34l-.737 5.195c-.024.45-.4.805-.856.805h-3.55c-.235 0-.46-.095-.622-.264-.16-.17-.246-.396-.234-.629L29.895 25h-1.853C27.397 25 27 24.58 27 23.833v-3.666c0-.748.397-1.167 1.042-1.167h23.916zm-3.73 6h-1.789l1.314 26.093c.012.235-.07.465-.228.635-.158.17-.377.267-.606.267H33.081c-.229 0-.448-.096-.607-.267-.157-.17-.239-.4-.227-.635L33.559 25h-1.788L30 60h1.789l.277-5.211c.024-.457.39-.814.835-.814H47.1c.445 0 .811.357.835.814L48.21 60H50l-1.772-35zm-3.39 0h-9.676L34 50h12l-1.162-25zM51 21H29v2h22v-2z"/>
</svg>
