<svg xmlns="http://www.w3.org/2000/svg" width="80" height="80" viewBox="0 0 80 80">
    <path fill-rule="evenodd" d="M26 60.79c0 .097-.066.178-.156.203l-.057.007h-2.573c-.098 0-.181-.065-.206-.154L23 60.79V59h-3.171c-.459 0-.829-.363-.829-.81V20.81c0-.448.37-.811.829-.811H61.17c.457 0 .829.363.829.811V58.19c0 .447-.372.81-.829.81H58v1.79c0 .097-.067.178-.157.203l-.057.007h-2.573c-.098 0-.18-.065-.205-.154L55 60.79V59H26v1.79zm34-14.82H21V57h39V45.97zm-18 5.06v.94h-3v-.94h3zm18-17.06H21v11.06h39V33.97zm-18 5.06v.94h-3v-.94h3zM60 22H21v11.03h39V22zm-18 5.03v.94h-3v-.94h3z"/>
</svg>
