<svg width="50" height="50" viewBox="0 0 50 50" fill="none" xmlns="http://www.w3.org/2000/svg">
    <path fill-rule="evenodd" clip-rule="evenodd" d="M28.636 12.182v1.272h5.21l-.119 24.819H15.273V13.454H21v-1.272h-6.423a.577.577 0 0 0-.577.577v26.209c0 .319.258.577.577.577h19.846a.577.577 0 0 0 .577-.577V12.759a.577.577 0 0 0-.577-.577h-5.787z" fill="#000"/>
    <path d="m17.818 25.544 1.432 1.432 2.387-2.386M17.818 31.273l1.432 1.432 2.387-2.387M17.818 19.818l1.432 1.432 2.387-2.387" stroke="#000" stroke-width=".7" stroke-linecap="round" stroke-linejoin="round"/>
    <path fill-rule="evenodd" clip-rule="evenodd" d="M24.5 9c1.13 0 2.078.753 2.045 1.91 1.668.087 2.727 1.25 2.727 2.544v.637c0 .387-.262.636-.682.636h-8.182c-.42 0-.681-.25-.681-.636v-.636c0-1.295 1.058-2.458 2.727-2.546C22.42 9.753 23.369 9 24.499 9zm.955 1.909c-.37-.825-1.54-.825-1.909 0v1.28l-1.024-.009c-.903.047-1.47.566-1.518 1.189l-.003.085h7c0-.63-.529-1.175-1.4-1.265l-.122-.009-1.024.002v-1.273z" fill="#000"/>
    <path d="M24.023 26.021h6.682M24.023 31.75h6.682M24.023 20.295h6.682" stroke="#000" stroke-width=".7" stroke-linecap="round" stroke-linejoin="round"/>
</svg>
