<svg xmlns="http://www.w3.org/2000/svg" width="75" height="75" viewBox="0 0 75 75">
    <g fill="none" fill-rule="evenodd">
        <path fill="#83C150" fill-rule="nonzero" d="M18 14c-2.21 0-4 1.79-4 4v39c0 2.21 1.79 4 4 4h39c2.21 0 4-1.79 4-4V18c0-2.21-1.79-4-4-4H18zm31.047 2h5.655c-.121.205-.118.139-.154.495-.051.565-.154 1.13-.205 1.696-.052.616-.103 1.284-.155 1.901-.051.771-.102 1.542-.102 2.313 0 .976.051 2.004.102 2.98 0 .206.103.309.309.309.205 0 .308-.103.308-.309 0-.513-.103-.976-.103-1.49 0-.925 0-1.85.052-2.826 0-.309 0-.617.051-.926.052-.822.103-1.593.206-2.415.051-.36.051-.72.102-1.13.029-.285.176-.234.268-.598.232.02.769.029 1.608.025H57c1.105 0 2 .895 2 2V57c0 1.105-.895 2-2 2h-2.709c-.034-.38-.051-.655-.051-.827 0-.616-.052-1.182-.052-1.798 0-.514-.051-1.13-.102-1.696l-.155-2.775c0-.36-.05-.771-.05-1.131 0-.257-.052-.463-.052-.72-.052-.77-.103-1.49-.206-2.26-.051-.412-.051-.874-.103-1.286-.051-.616-.102-1.13-.205-1.798-.052-.36-.052-.72-.103-1.08-.051-.462-.103-.976-.206-1.438-.051-.463-.102-.874-.154-1.337-.103-.616-.205-1.182-.257-1.798-.102-.72-.205-1.44-.36-2.107-.256-1.234-.513-2.416-.822-3.65-.257-1.078-.616-2.106-1.13-3.083-.463-.976-.874-1.953-1.131-2.98-.257-.977-.411-1.953-.514-2.93-.051-.668-.154-1.387-.154-2.055 0-1.131 0-2.313.051-3.444 0-.668.103-1.285.155-1.953.05-.668.154-.083.357-.854zm-12.784 0h11.45c-.068.261-.12.546-.154.854.103.823-.052 1.594-.052 2.364 0 1.49.052 3.033.103 4.523 0 .308.052.668.103.976.103.617.206 1.285.308 1.902.257 1.336.669 2.62 1.234 3.854.308.617.565 1.234.77 1.85.36 1.131.617 2.262.926 3.392.154.72.308 1.44.41 2.159.104.514.155 1.027.258 1.49.051.463.154.976.205 1.439.052.565.103 1.08.206 1.645.051.616.154 1.233.206 1.85.05.565.102 1.079.154 1.644.051.822.154 1.645.257 2.416.051.616.102 1.233.154 1.798.051.771.103 1.49.154 2.262.051.565.051 1.079.103 1.644.051.72.051 1.49.103 2.21 0 .668.051 1.336.051 2.004v.103c0 .137.017.344.051.621h-5.756c.035-.654.052-1.135.052-1.443v-1.341c-.003-1.335-.013-2.655-.052-4.004 0-.463-.05-.976-.05-1.439 0-.617-.052-1.233-.052-1.85 0-.565-.052-1.08-.052-1.645 0-.308-.051-.565-.051-.873-.051-.72-.103-1.49-.206-2.21-.051-.36-.051-.72-.102-1.13-.103-.617-.155-1.234-.257-1.902-.103-.463-.206-.977-.309-1.44-.051-.205-.205-.256-.36-.205-.154.052-.308.257-.256.411.257.874.41 1.8.513 2.724.103.822.206 1.696.257 2.518.052.72.103 1.44.155 2.21.051.72.051 1.44.102 2.107 0 .514.052 1.028.052 1.542 0 .874.051 1.799.051 2.672 0 1.131-.034 2.897-.103 5.298h-4.882c-.034-.448-.051-.792-.051-1.032-.052-.925-.052-1.85-.103-2.724 0-.617-.051-1.285-.103-1.901-.051-.874-.103-1.696-.154-2.57-.051-.617-.051-1.182-.103-1.799 0-.257-.051-.462-.051-.72-.052-.719-.103-1.535-.206-2.254-.051-.36-.051-.623-.102-1.086-.052-.668-.155-1.336-.206-2.055-.051-.617-.103-1.234-.206-1.85-.102-.823-.257-1.696-.36-2.519-.102-.822-.205-1.644-.41-2.415-.257-1.182-.514-2.313-.823-3.443-.257-1.028-.616-2.056-1.079-2.981-.257-.565-.514-1.182-.77-1.747-.566-1.542-.823-3.135-1.029-4.78-.102-.668-.102-1.387-.154-2.055 0-.823 0-1.645.052-2.467 0-.566.05-1.13.102-1.696.035-.343.055-.645.062-.906zm-7.925 0h7.144v.206c-.052.462-.154-.122-.206.34-.051.822-.103 1.593-.154 2.415 0 .823 0 1.645.051 2.467 0 .514.052 1.028.103 1.542.052.617.154 1.285.206 1.902.103 1.027.36 2.004.72 2.98.308.823.667 1.645 1.027 2.416.463.925.771 1.953 1.028 2.929.308 1.182.514 2.364.77 3.546.155.617.206 1.285.31 1.953.05.462.153.925.205 1.388.051.41.103.822.154 1.284l.154 1.388c.051.514.103 1.028.206 1.542.051.41.051.77.102 1.182.052.822.155 1.644.257 2.466.052.617.103 1.234.155 1.8l.154 2.312c.051.565.051 1.13.103 1.696.05.72.05 1.387.102 2.107 0 .72.052 1.49.052 2.21v.154c0 .205.017.464.051.775H38.72v-.482c-.002-1.595-.02-2.806-.05-3.634 0-.77-.052-1.49-.104-2.26-.051-.618-.051-1.234-.154-1.851l-.308-2.004c-.052-.206-.206-.309-.411-.257-.155.051-.257.205-.206.41.308 1.08.36 2.16.463 3.29.051.565.051 1.182.102 1.747 0 .566.052 1.13.052 1.645V59H27c.051-.72.208-1.546.208-2.266 0-1.387.102-2.775-.103-4.162-.051-.514-.103-1.08-.206-1.593-.205-1.131-.41-2.159-.616-3.238-.155-.668-.257-1.336-.36-2.004-.103-.566-.154-1.182-.206-1.748-.051-.77-.154-1.541-.205-2.312-.052-1.131 0-2.262 0-3.392v-.206c.051-.822.103-1.593.205-2.415.052-.309.052-.668.103-.977.052-.514.154-1.027.206-1.541.102-.617.205-1.234.308-1.8.154-.77.308-1.54.463-2.363.154-.771.308-1.593.41-2.364.155-.771.258-1.49.36-2.261.103-.668.155-1.388.257-2.056.103-.874.206-1.696.257-2.57l.155-2.004c.05-.617.102-1.42.102-1.728zm-6.115.032c0-.046 2.85-.035 4.69-.032h.552v.186c0 .514-.052 1.028-.052 1.542 0 .257-.051.565-.051.822-.052.668-.103 1.388-.206 2.056-.051.36-.051.72-.102 1.13-.052.463-.103.977-.206 1.44-.051.514-.103 1.027-.206 1.541-.102.566-.154 1.131-.257 1.645-.102.668-.205 1.336-.36 2.004-.153.771-.308 1.593-.513 2.364-.154.668-.257 1.336-.36 1.953-.103.565-.154 1.13-.257 1.696-.051.514-.103 1.028-.154 1.49-.051.823-.154 1.696-.206 2.519-.051.77 0 1.541 0 2.364 0 .77.052 1.49.103 2.26.052.823.154 1.594.257 2.365.103.668.154 1.387.308 2.056.257 1.336.566 2.672.771 4.008.154.771.206 1.593.206 2.364 0 1.285-.052 2.57-.103 3.855 0 .274-.034.72-.103 1.34h-5.961c.068-.654.103-1.135.103-1.443.051-.771.102-1.49.102-2.261 0-1.028 0-2.005-.051-3.033l-.154-2.62c-.052-.515-.052-1.028-.154-1.542-.155-.874-.309-1.748-.514-2.621-.154-.617-.36-1.234-.566-1.85-.05-.103-.154-.257-.257-.257-.308-.052-.462.154-.36.462.104.257.206.565.31.822.359 1.131.616 2.364.77 3.546.103.771.206 1.542.257 2.313.051.72.103 1.49.103 2.21 0 1.49-.052 2.93-.103 4.42 0 .36-.051.72-.051 1.079 0 .171-.018.43-.052.775H18c-1.105 0-2-.895-2-2V18c0-1.105.895-2 2-2h3.143c.103.77.155.392.206 1.06.051.77.051 1.542.103 2.313 0 .925.051 1.85.051 2.775 0 .72-.051 1.439-.051 2.158 0 .411-.052.822-.052 1.285l-.154 2.621-.154 1.542c-.103.822-.154 1.696-.36 2.518-.205 1.08-.514 2.158-.77 3.238-.052.257 0 .462.256.565.206.103.514.051.617-.154.154-.257.257-.566.308-.874.463-1.747.771-3.546.926-5.396.102-.77.154-1.542.205-2.313.051-.668.051-1.336.103-2.004 0-.77.051-1.593.051-2.364 0-.565-.051-1.08-.051-1.645-.052-1.284-.052-2.57-.103-3.905 0-.463-.051-.925-.051-1.388zm9.48 12.38l-.178.006c-.463 0-.823.205-1.131.513-.668.617-1.08 1.388-1.439 2.262-.462 1.182-.77 2.467-.976 3.7-.155.77-.206 1.542-.309 2.261-.051.617-.103 1.336-.154 2.004-.051 1.182-.051 2.416-.051 3.598 0 .77.102 1.542.205 2.261.052.668.103 1.388.257 2.056.154.925.36 1.85.617 2.724.205.72.514 1.49.822 2.158.309.617.668 1.182 1.285 1.542.72.462 1.542.36 2.158-.206.874-.77 1.285-1.798 1.645-2.878.36-1.13.668-2.261.822-3.392.103-.72.206-1.49.257-2.21.103-.616.154-1.284.206-2.21V40.65c0-.822 0-1.645-.103-2.467-.103-1.182-.257-2.364-.411-3.495-.206-1.336-.565-2.62-1.08-3.854-.256-.617-.565-1.233-1.027-1.696-.411-.462-.925-.77-1.593-.72zm-.744 1.342c.411-.411.771-.463 1.285 0 .514.462.771 1.079 1.028 1.696.462 1.182.77 2.466.976 3.7.155 1.028.257 2.056.36 3.135.052.72.103 1.439.103 2.158 0 1.028-.051 2.056-.103 3.084 0 .565-.051 1.13-.154 1.696-.103.925-.257 1.798-.411 2.723-.257 1.285-.565 2.57-1.234 3.7-.205.36-.462.669-.72.926-.307.308-.719.308-1.027 0-.308-.309-.565-.617-.77-.977-.412-.668-.669-1.439-.874-2.21-.206-.719-.36-1.439-.514-2.21-.155-.719-.206-1.49-.309-2.21-.102-.822-.154-1.644-.205-2.466.051-.463.103-.925.103-1.439v-1.439c0-.463.05-.976.102-1.439.052-.411.052-.77.103-1.182.051-.565.154-1.08.257-1.645.103-.668.257-1.336.411-2.004.154-.72.411-1.439.668-2.158.206-.514.514-1.028.925-1.44zm1.44 4.625c-.617-.565-1.286-.411-1.748.154-.565.72-.822 1.645-.976 2.518-.155.771-.257 1.49-.309 2.262-.051.616-.051 1.233-.051 1.85 0 .565-.052 1.13 0 1.696.103 1.233.257 2.466.72 3.597.205.514.359.977.77 1.388.617.616 1.336.41 1.799-.206.514-.72.77-1.542.925-2.415l.308-1.85c.052-.566.103-1.08.103-1.645 0-.668.051-1.336 0-2.004-.103-1.336-.257-2.673-.72-3.906-.205-.514-.41-1.028-.822-1.439zm-1.183.565c.257-.308.514-.308.72-.051.308.308.514.72.668 1.13.462 1.234.617 2.519.72 3.855.05.617.05 1.233 0 1.85 0 .668-.103 1.336-.155 2.004-.051.874-.257 1.748-.565 2.621-.154.411-.36.771-.617 1.13-.257.31-.411.207-.668 0-.308-.307-.514-.667-.668-1.078-.411-1.13-.565-2.313-.72-3.546-.05-.617 0-1.234 0-1.696h-.05c.05-.72.05-1.44.102-2.159 0-.257.051-.565.103-.822.102-.617.257-1.233.41-1.799.155-.514.36-1.028.72-1.439z"/>
        <g transform="translate(44 44)">
            <circle cx="10.5" cy="10.5" r="10.5" fill="#FFF"/>
            <path fill="#83C150" fill-rule="nonzero" d="M10.5 2c4.687 0 8.5 3.813 8.5 8.5 0 4.687-3.813 8.5-8.5 8.5C5.815 19 2 15.187 2 10.5 2 5.814 5.814 2 10.5 2zm0 1.81c-3.687 0-6.69 3.002-6.69 6.69 0 3.688 3.003 6.69 6.69 6.69 3.688 0 6.69-3.002 6.69-6.69 0-3.688-3.002-6.69-6.69-6.69zm3.644 4.615c.336.372.325.961-.026 1.318l-3.68 3.587c-.163.167-.38.26-.608.26h-.035c-.24-.011-.466-.125-.625-.315l-2.085-1.81c-.322-.385-.288-.975.076-1.316.364-.34.92-.304 1.243.08l1.426 1.235 3.069-3.066c.35-.355.908-.343 1.245.027z"/>
        </g>
    </g>
</svg>
