<svg xmlns="http://www.w3.org/2000/svg" width="80" height="80" viewBox="0 0 80 80">
    <path fill-rule="evenodd" d="M59.172 17c.457 0 .828.365.828.815L59.999 26H60v1h-.001v22H60v2h-.001L60 59.184c0 .451-.37.816-.828.816H56v3h-3v-3H26v3h-3v-3h-3.172c-.457 0-.828-.365-.828-.816v-41.37c0-.45.37-.814.828-.814h39.344zM58 51H21v7h37v-7zm-17 4v1h-3v-1h3zm17-28H21v22h15l-.001-2h-8.147c-.471 0-.852-.365-.852-.816v-13.37c0-.45.381-.814.852-.814h23.296c.471 0 .852.365.852.815v13.37c0 .45-.381.815-.852.815h-8.149L43 49h15V27zM41 47h-3v2h3v-2zm9.032-13H29v11h21.032V34zM39.03 19H21v7h18.03v-7zM58 19H39.97v7H58v-7zm-26 4v1h-4v-1h4zm19 0v1h-4v-1h4z"/>
</svg>
