<?xml version="1.0" encoding="UTF-8"?>
<svg width="50px" height="42px" viewBox="0 0 50 42" version="1.1" xmlns="http://www.w3.org/2000/svg" xmlns:xlink="http://www.w3.org/1999/xlink">
    <!-- Generator: Sketch 52.2 (67145) - http://www.bohemiancoding.com/sketch -->
    <title>Group 14 Copy</title>
    <desc>Created with Sketch.</desc>
    <defs>
        <polygon id="path-1" points="9.7465887e-06 0.0908322581 49.902729 0.0908322581 49.902729 41.9032258 9.7465887e-06 41.9032258"></polygon>
    </defs>
    <g id="new-pages" stroke="none" stroke-width="1" fill="none" fill-rule="evenodd">
        <g id="lifemebel_index" transform="translate(-1010.000000, -3252.000000)">
            <g id="Group-14-Copy" transform="translate(1010.000000, 3252.000000)">
                <path d="M40.6352049,5.4035053 L40.6352049,8.38310724 L42.0440061,8.38310724 C42.8616085,8.38310724 43.364694,7.92751758 43.364694,6.96722448 L43.364694,6.81948708 C43.364694,5.85919398 42.8616085,5.40360432 42.0440061,5.40360432 L40.6352049,5.40360432 L40.6352049,5.4035053 Z M39.0001012,4.49252401 C39.0001012,4.23398356 39.2390491,4 39.6165908,4 L42.1446636,4 C43.7421345,4 45,4.75106446 45,6.77027428 L45,6.84404396 C45,8.86315477 43.7044006,9.63887514 42.0441072,9.63887514 L40.6352049,9.63887514 L40.6352049,12.4951975 C40.6352049,12.8277057 40.2201315,13 39.8176024,13 C39.4025291,13 39,12.8276067 39,12.4951975 L39,4.49252401 L39.0001012,4.49252401 Z" id="Fill-1" fill="#83C04E"></path>
                <path d="M19.2395432,27.5897424 L19.2395432,22.4103543 L24.5134613,22.4103543 C25.9502528,22.4103543 27.3390181,22.8322618 28.5295415,23.6304442 L33.2293859,26.7814086 C33.5556328,27.0001934 33.8961998,27.2066999 34.2416376,27.3952241 C34.3309683,27.444047 34.4059788,27.5112389 34.4622853,27.5897424 L19.2395432,27.5897424 Z M34.9262787,26.1594721 C34.6188331,25.9915406 34.3154791,25.807657 34.0247892,25.612752 L29.3249447,22.4617876 C27.8985767,21.5054382 26.2347081,21 24.5133639,21 L15.8870622,21 C13.5972944,21 11.4428378,21.8833567 9.82046844,23.4872625 C8.98658579,24.3118384 8.03658303,25.0015469 6.99685995,25.5373423 C6.38196891,25.8542563 6,26.477933 6,27.1650312 C6,28.1768744 6.82940151,29 7.84895943,29 L10.7899544,29 C11.1823469,29 11.5005082,28.6842461 11.5005082,28.2948228 C11.5005082,27.9053995 11.1823469,27.5896457 10.7899544,27.5896457 L7.84895943,27.5896457 C7.6130174,27.5896457 7.42101008,27.3990912 7.42101008,27.1649345 C7.42101008,27.0062841 7.50936657,26.8622323 7.65169163,26.7889496 C8.81980926,26.1870257 9.88700371,25.4123362 10.8233682,24.4863441 C12.1774533,23.1475323 13.9757564,22.4102576 15.8869647,22.4102576 L17.8182409,22.4102576 L17.8182409,27.5896457 L15.4576516,27.5896457 C15.0652591,27.5896457 14.7470978,27.9053995 14.7470978,28.2948228 C14.7470978,28.6842461 15.0652591,29 15.4576516,29 L34.9406963,29 C35.5248038,29 36,28.5283995 36,27.9487118 C36,27.2064098 35.588514,26.5207618 34.9262787,26.1594721 Z" id="Fill-3" fill="#83C04E"></path>
                <path d="M21.2139663,31 L18.7860337,31 C18.3519586,31 18,31.2239512 18,31.5 C18,31.7761174 18.3519586,32 18.7860337,32 L21.2139663,32 C21.6480414,32 22,31.7761174 22,31.5 C22,31.2239512 21.6480414,31 21.2139663,31" id="Fill-5" fill="#83C04E"></path>
                <g id="Group-9">
                    <mask id="mask-2" fill="white">
                        <use xlink:href="#path-1"></use>
                    </mask>
                    <g id="Clip-8"></g>
                    <path d="M48.480809,35.8735742 C48.480809,36.5384129 47.9360721,37.0792839 47.2664815,37.0792839 L46.0961111,37.0792839 C46.0682359,36.0556065 45.7042982,35.0787677 45.0493275,34.2780581 C45.0449415,34.2725419 45.0407505,34.266929 45.0362671,34.2616065 C44.9957212,34.2124452 44.9537135,34.1644452 44.9110234,34.1166387 C44.9001072,34.1044452 44.8897758,34.0918645 44.8787622,34.079671 C44.833538,34.0301226 44.7867544,33.9816387 44.739191,33.9338323 C44.7311014,33.9257032 44.723694,33.9171871 44.7155068,33.9091548 C44.1030312,33.3011226 43.3518616,32.8808323 42.5328558,32.6777032 C42.1605361,32.5852839 41.7741813,32.537671 41.3805166,32.537671 C41.0656043,32.537671 40.7553704,32.5682516 40.4532261,32.6275742 C39.5468908,32.8061226 38.7137524,33.2459613 38.0456238,33.9091548 C38.0376316,33.9170903 38.0303216,33.9254129 38.0224269,33.9334452 C37.9746686,33.9815419 37.9276901,34.0301226 37.8823684,34.0798645 C37.8715497,34.0914774 37.8617057,34.103671 37.8510819,34.1154774 C37.8080994,34.163671 37.7656043,34.2122516 37.7247661,34.2618968 C37.7206725,34.2667355 37.7168713,34.2718645 37.7127778,34.2768968 C37.0573197,35.0778 36.6929922,36.0551226 36.6650195,37.0793806 L13.4118031,37.0793806 C13.3838304,36.0538645 13.0187232,35.0753806 12.3616082,34.2738968 C12.3585867,34.2701226 12.3556628,34.2663484 12.3526413,34.2625742 C12.3097563,34.2104129 12.2652144,34.1594129 12.2198928,34.1089935 C12.2115107,34.0996065 12.2037135,34.0900258 12.1952339,34.0808323 C12.142115,34.0225742 12.0875341,33.9652839 12.0311014,33.9092516 C11.8012768,33.6811548 11.5533236,33.4813161 11.2920175,33.3102194 C10.507807,32.7966387 9.60205653,32.5399935 8.69630604,32.5399935 C7.48860624,32.5399935 6.28080897,32.9964774 5.36141326,33.9092516 C5.30887914,33.9614129 5.25809942,34.014929 5.20839181,34.0691226 C5.19367446,34.0852839 5.17954191,34.1015419 5.16501949,34.1177032 C5.12993177,34.1571871 5.09542885,34.1969613 5.06180312,34.2372194 C5.04689084,34.2550258 5.03197856,34.2730258 5.01735867,34.2912194 C4.98256335,34.3343806 4.94864522,34.3778323 4.91550682,34.4218645 C4.90517544,34.4357032 4.89455166,34.4490581 4.88451267,34.4629935 C4.79542885,34.5840581 4.71277778,34.7088968 4.63636452,34.8368323 C4.63422027,34.8404129 4.63217349,34.8440903 4.63002924,34.847671 C4.59269981,34.9107677 4.55692982,34.9745419 4.5227193,35.0390903 C4.52174464,35.040929 4.52076998,35.0428645 4.51969786,35.0448 C4.27184211,35.5129935 4.10517544,36.0196065 4.02876218,36.5448968 L1.81307018,35.5670903 C1.57544834,35.4621871 1.42193957,35.2276065 1.42193957,34.9695097 L1.42193957,28.1334774 C1.42193957,27.2585419 2.04796296,26.4932516 2.9104386,26.313929 L3.93110136,26.1016065 C5.97983431,25.6755097 7.84650097,24.6749613 9.32934698,23.2081548 C11.0954288,21.4610903 13.4410429,20.4989613 15.9341228,20.4989613 L24.5647271,20.4989613 C26.4388986,20.4989613 28.2503021,21.0496065 29.8033236,22.0911871 L34.5054678,25.2452516 C35.4490351,25.8782516 36.8832456,26.7551226 38.4373392,27.0620903 L44.9256433,28.3432839 C46.1422125,28.5835742 47.2070273,29.3263161 47.8472807,30.3810581 L48.0718421,30.7511226 C48.3395809,31.1921226 48.4810039,31.6975742 48.4810039,32.2125097 L48.4810039,35.8735742 L48.480809,35.8735742 Z M43.7101462,39.5334774 C43.0878265,40.1512839 42.2605361,40.4916387 41.3805166,40.4916387 C40.5004971,40.4916387 39.6733041,40.1512839 39.0510819,39.5334774 C37.9297368,38.4201871 37.7874366,36.6976065 38.6237914,35.4293806 C38.6277875,35.4233806 38.6317836,35.4171871 38.6358772,35.4112839 C38.6603411,35.3747032 38.6857797,35.3386065 38.7119006,35.3028 C38.723499,35.286929 38.7353899,35.2711548 38.7473782,35.2555742 C38.7688207,35.2271226 38.7907505,35.1987677 38.8133626,35.1708 C38.8334405,35.1463161 38.8540058,35.1223161 38.8748635,35.0983161 C38.892115,35.0782839 38.9089766,35.0579613 38.9268129,35.0383161 C38.9669688,34.9938968 39.0082943,34.9501548 39.0511793,34.907671 C39.6734016,34.2898645 40.5005945,33.9495097 41.380614,33.9495097 C42.2606335,33.9495097 43.087924,34.2898645 43.7101462,34.907671 C43.7530312,34.9501548 43.7943567,34.9939935 43.8345127,35.0384129 C43.8522515,35.0579613 43.8689181,35.0780903 43.8860721,35.0980258 C43.9069298,35.1221226 43.9277875,35.1463161 43.947768,35.1708968 C43.9703801,35.1987677 43.992115,35.2270258 44.013655,35.2553806 C44.0256433,35.2711548 44.0376316,35.286929 44.0493275,35.3029935 C44.0753509,35.3387032 44.1007895,35.3746065 44.1251559,35.4110903 C44.129347,35.4171871 44.1334405,35.4234774 44.1374366,35.4295742 C44.9735965,36.6978 44.8312963,38.4202839 43.7101462,39.5334774 Z M11.0258382,39.5334774 C10.403616,40.1512839 9.57632554,40.4916387 8.69630604,40.4916387 C7.81628655,40.4916387 6.9889961,40.1512839 6.36677388,39.5334774 C5.36862573,38.5424129 5.14659844,37.0687355 5.69961988,35.8623484 C5.70410331,35.8525742 5.70839181,35.8428968 5.71287524,35.8331226 C5.72973684,35.7974129 5.7475731,35.7619935 5.76579922,35.726671 C5.77437622,35.7101226 5.78295322,35.6935742 5.79192008,35.6771226 C5.80839181,35.6464452 5.82554581,35.6161548 5.84308967,35.5858645 C5.85517544,35.5650581 5.86755361,35.5445419 5.88012671,35.5240258 C5.89640351,35.4973161 5.91287524,35.4708 5.93002924,35.4445742 C5.94552632,35.4208645 5.96151072,35.3974452 5.97769006,35.3742194 C5.99367446,35.3510903 6.0095614,35.3277677 6.0261306,35.3050258 C6.04513645,35.2789935 6.06492203,35.2535419 6.08480507,35.2278968 C6.10030214,35.2079613 6.11540936,35.1878323 6.13139376,35.1681871 C6.15478558,35.1394452 6.17924951,35.1113806 6.20361598,35.0833161 C6.21755361,35.0673484 6.23090643,35.0509935 6.24513645,35.0352194 C6.28139376,34.9953484 6.3187232,34.9561548 6.35712476,34.9176387 C6.3604386,34.9143484 6.36346004,34.9109613 6.36677388,34.907671 C6.37408382,34.9003161 6.38178363,34.8935419 6.38919103,34.8864774 C6.42174464,34.8547355 6.45449318,34.8232839 6.48792398,34.7931871 C6.49659844,34.7854452 6.50576023,34.7781871 6.51453216,34.7704452 C6.5478655,34.7410258 6.58139376,34.7118968 6.61570175,34.6841226 C6.61891813,34.6816065 6.62232943,34.6790903 6.62554581,34.6765742 C7.83051657,33.7082516 9.5684308,33.7095097 10.7719396,34.6803484 C10.7733041,34.6816065 10.7747661,34.6824774 10.7762281,34.6836387 C10.8129727,34.7134452 10.8489376,34.7445097 10.8847076,34.7760581 C10.8911404,34.7817677 10.897768,34.7869935 10.9041033,34.7927032 C10.9454288,34.8298645 10.9859747,34.8679935 11.0257407,34.9075742 C11.0686257,34.9500581 11.1099513,34.9938968 11.1501072,35.0383161 C11.1677485,35.0578645 11.1844152,35.0778968 11.2014717,35.0977355 C11.2223294,35.121929 11.2432846,35.1462194 11.2633626,35.1708968 C11.2858772,35.198671 11.3076121,35.226929 11.3290546,35.2551871 C11.3411404,35.2709613 11.3531287,35.286929 11.3648246,35.3028968 C11.390848,35.3385097 11.4161891,35.3745097 11.440653,35.4109935 C11.4448441,35.4170903 11.4489376,35.4234774 11.4530312,35.4295742 C12.2892885,36.6978968 12.1469883,38.4201871 11.0258382,39.5334774 Z M41.0796394,17.3595097 L41.9456238,17.3595097 L41.9456238,26.3154774 L41.0796394,26.1445742 L41.0796394,17.3595097 Z M49.289386,30.0226065 L49.0648246,29.6526387 C48.2185283,28.2582194 46.8108285,27.2762516 45.2027388,26.9586387 L43.3673587,26.5963161 L43.3673587,17.3595097 L48.1170663,17.3595097 C49.095039,17.3595097 49.8905556,16.5694452 49.8905556,15.5985097 L49.8905556,1.85163871 C49.8905556,0.880606452 49.0949415,0.0908322581 48.1170663,0.0908322581 L34.2719396,0.0908322581 C33.2939669,0.0908322581 32.4984503,0.880703226 32.4984503,1.85163871 L32.4984503,7.06631613 C32.4984503,7.45621935 32.8166764,7.77228387 33.2093665,7.77228387 C33.6020565,7.77228387 33.9202827,7.45621935 33.9202827,7.06631613 L33.9202827,1.85163871 C33.9202827,1.65905806 34.0780799,1.50247742 34.272037,1.50247742 L48.1172612,1.50247742 C48.3112183,1.50247742 48.4690156,1.65905806 48.4690156,1.85163871 L48.4690156,15.5986065 C48.4690156,15.7911871 48.3112183,15.9479613 48.1172612,15.9479613 L34.2719396,15.9479613 C34.0779825,15.9479613 33.9201852,15.7911871 33.9201852,15.5986065 L33.9201852,11.6551548 C33.9201852,11.2653484 33.6019591,10.9492839 33.2091715,10.9492839 C32.8165789,10.9492839 32.4983528,11.2653484 32.4983528,11.6551548 L32.4983528,15.5986065 C32.4983528,16.5696387 33.2939669,17.3595097 34.2718421,17.3595097 L39.6579045,17.3595097 L39.6579045,25.863929 L38.7144347,25.6777355 C37.4122904,25.4205097 36.1427973,24.6403161 35.3010819,24.0756387 L30.5989376,20.921671 C28.8099513,19.721671 26.7233041,19.0874129 24.5644347,19.0874129 L15.9338304,19.0874129 C13.0619981,19.0874129 10.3599513,20.1958645 8.32554581,22.2081871 C7.03821637,23.4816387 5.41774854,24.3502839 3.6392885,24.7200581 L2.61862573,24.9322839 C1.1012768,25.2477677 9.7465887e-06,26.5940903 9.7465887e-06,28.1334774 L9.7465887e-06,34.9695097 C9.7465887e-06,35.784929 0.484902534,36.525929 1.23548733,36.8570903 L4.06706628,38.1066387 C4.23831384,38.9958 4.66969786,39.8447032 5.36151072,40.5317032 C6.28090643,41.4444774 7.48860624,41.9009613 8.69640351,41.9009613 C9.90420078,41.9009613 11.1118031,41.4444774 12.0312963,40.5317032 C12.6226218,39.9444774 13.0226218,39.2387032 13.2336355,38.4910258 L36.8433821,38.4910258 C37.0543957,39.2387032 37.4544932,39.9444774 38.0458187,40.5317032 C38.9366569,41.4160258 40.1208674,41.9032839 41.3807115,41.9032839 C42.6404581,41.9032839 43.8247661,41.4161226 44.7157018,40.5317032 C45.3070273,39.9444774 45.7070273,39.2387032 45.9180409,38.4910258 L47.2666764,38.4910258 C48.7201852,38.4910258 49.9027388,37.3167677 49.9027388,35.8735742 L49.9027388,32.2124129 C49.9025439,31.4407355 49.6904581,30.6835742 49.289386,30.0226065 Z" id="Fill-7" fill="#83C04E" mask="url(#mask-2)"></path>
                </g>
                <path d="M9.1038766,38.1032108 C8.94273745,38.2643154 8.72841221,38.3530527 8.50053638,38.3530527 C8.27254762,38.3530527 8.05833531,38.2643154 7.89719616,38.1030979 C7.736057,37.9418804 7.64718769,37.727827 7.64718769,37.4997742 C7.64718769,37.2719473 7.73594408,37.057668 7.89719616,36.8965634 C8.05833531,36.7355717 8.27254762,36.6467215 8.50053638,36.6467215 C8.72841221,36.6467215 8.94273745,36.7354588 9.1038766,36.8965634 C9.4365437,37.2293849 9.4365437,37.7706151 9.1038766,38.1032108 M8.50053638,35 C7.83260499,35 7.20464785,35.2600027 6.73240963,35.7322525 C6.26017142,36.2043895 6,36.832099 6,37.4998871 C6,38.1676752 6.26017142,38.7956105 6.73240963,39.2676346 C7.20464785,39.7398844 7.83260499,40 8.5006493,40 C9.16858069,40 9.79653782,39.7399973 10.268776,39.2676346 C11.2437413,38.2929913 11.2437413,36.7070087 10.268776,35.7322525 C9.79631198,35.2598898 9.16846777,35 8.50053638,35" id="Fill-10" fill="#83C04E"></path>
                <path d="M42.1027717,38.1033237 C41.9416298,38.2644283 41.7274139,38.3531656 41.4994213,38.3531656 C41.2715416,38.3531656 41.0572127,38.2644283 40.8959579,38.1033237 C40.5633981,37.770728 40.5633981,37.2294978 40.8959579,36.8967892 C41.0572127,36.7357975 41.2715416,36.6469473 41.4994213,36.6469473 C41.7274139,36.6469473 41.9416298,36.7356846 42.1028846,36.8967892 C42.2640265,37.0578938 42.3527844,37.272173 42.3527844,37.5 C42.3527844,37.727827 42.2641394,37.9419933 42.1027717,38.1033237 M41.4994213,35 C40.8314786,35 40.2036237,35.2598898 39.7311517,35.7322525 C38.7562828,36.7070087 38.7562828,38.2929913 39.7311517,39.2676346 C40.2035108,39.7399973 40.8314786,40 41.4994213,40 C42.1674769,40 42.7953317,39.7399973 43.267465,39.2677475 C43.7399371,38.7957234 44,38.1677881 44,37.5 C44,36.8322119 43.7399371,36.2045023 43.267578,35.7323654 C42.7954447,35.2600027 42.1674769,35 41.4994213,35" id="Fill-12" fill="#83C04E"></path>
            </g>
        </g>
    </g>
</svg>