<?xml version="1.0" encoding="UTF-8"?>
<svg width="14px" height="18px" viewBox="0 0 14 18" version="1.1" xmlns="http://www.w3.org/2000/svg" xmlns:xlink="http://www.w3.org/1999/xlink">
    <!-- Generator: Sketch 62 (91390) - https://sketch.com -->
    <title>preorder</title>
    <desc>Created with Sketch.</desc>
    <g id="Page-1" stroke="none" stroke-width="1" fill="none" fill-rule="evenodd">
        <g id="preorder" fill="#7396D1">
            <path d="M7,3.125 C10.86,3.125 14,6.265 14,10.125 C14,13.985 10.86,17.125 7,17.125 C3.14,17.125 0,13.985 0,10.125 C0,9.351 0.126,8.605 0.36,7.909 L2.205,8.525 C2.071,8.934 2,9.36 2,9.792 C2,12.882 4.241,15.125 7.333,15.125 C9.759,15.125 12,12.882 12,10.458 C12,7.368 9.759,5.125 7.333,5.125 C6.636,5.125 5.982,5.239 5.387,5.444 L4.719,3.506 C5.434,3.259 6.202,3.125 7,3.125 L7,3.125 Z M2.138,4.319 L5.806,7.986 C5.92,8.101 5.984,8.247 5.997,8.397 C6.291,8.224 6.635,8.125 7,8.125 C8.094,8.125 9,9.015 9,10.125 C9,11.235 8.094,12.125 7,12.125 C5.89,12.125 5,11.219 5,10.125 C5,9.758 5.1,9.415 5.272,9.12 L5.332,9.125 C5.161,9.125 4.99,9.061 4.862,8.93 L1.194,5.263 C0.935,5.003 0.935,4.582 1.194,4.319 C1.453,4.06 1.875,4.06 2.138,4.319 L2.138,4.319 Z M8.911,0.125 C9.511,0.125 10,0.575 10,1.125 C10,1.675 9.51,2.125 8.91,2.125 L5.09,2.125 C4.49,2.125 4,1.675 4,1.125 C4,0.575 4.49,0.125 5.09,0.125 L8.91,0.125 L8.911,0.125 Z" id="Shape"></path>
        </g>
    </g>
</svg>