<?xml version="1.0" encoding="UTF-8"?>
<svg width="40px" height="40px" viewBox="0 0 40 40" version="1.1" xmlns="http://www.w3.org/2000/svg" xmlns:xlink="http://www.w3.org/1999/xlink">
    <!-- Generator: Sketch 50.2 (55047) - http://www.bohemiancoding.com/sketch -->
    <title>icons/warranty</title>
    <desc>Created with Sketch.</desc>
    <defs></defs>
    <g id="icons/warranty" stroke="none" stroke-width="1" fill="none" fill-rule="evenodd">
        <g id="Group" transform="translate(2.000000, -1.000000)">
            <path d="M34.9994741,8.68259869 C27.5431223,5.7649723 22.134274,3.53625478 18.7648207,1.99246119 C18.1781992,1.97313319 17.8724778,1.97329276 17.2340554,1.99299406 C13.8822149,3.52892863 8.47362921,5.75748396 1.00001624,8.68272184 C1.00006775,13.2713695 1.00005977,16.7098038 0.999888957,18.9850978 C1.0702114,23.703518 2.89746153,29.0219061 5.77500236,32.3680417 C8.78741701,36.0623176 12.5655908,38.5996592 17.1728557,40.0074727 C17.7586625,40.0355614 18.2526139,40.0356005 18.8263588,40.0076313 C23.2968242,38.6382832 27.1017921,36.1346069 30.2683626,32.318306 C33.0598813,29.3222701 35.0159665,23.6916729 35.0000072,19.0038058 C34.9954432,17.8045964 34.9952699,14.3652484 34.9994811,8.68260145 Z" id="Shape" stroke="#A1A1A1" stroke-width="2" fill-rule="nonzero"></path>
            <path d="M18,6.76190476 L18,6.76190476 C18.5522847,6.76190476 19,7.20962001 19,7.76190476 L19,33.2857143 C19,33.837999 18.5522847,34.2857143 18,34.2857143 L18,34.2857143 C17.4477153,34.2857143 17,33.837999 17,33.2857143 L17,7.76190476 C17,7.20962001 17.4477153,6.76190476 18,6.76190476 Z" id="Rectangle" fill="#A1A1A1"></path>
        </g>
    </g>
</svg>