<?xml version="1.0" encoding="UTF-8"?>
<svg width="40px" height="40px" viewBox="0 0 40 40" version="1.1" xmlns="http://www.w3.org/2000/svg" xmlns:xlink="http://www.w3.org/1999/xlink">
    <!-- Generator: Sketch 50.2 (55047) - http://www.bohemiancoding.com/sketch -->
    <title>icons/lift</title>
    <desc>Created with Sketch.</desc>
    <defs></defs>
    <g id="icons/lift" stroke="none" stroke-width="1" fill="none" fill-rule="evenodd">
        <g id="Group" stroke="#A1A1A1" stroke-width="2">
            <rect id="Rectangle-15" x="1" y="1" width="38" height="38" rx="19"></rect>
            <g id="Group-2" transform="translate(12.000000, 8.000000)">
                <path d="M8.77391622,1.23310346 C8.73178973,1.18161111 8.68462982,1.1344512 8.63313747,1.09232472 C8.20567794,0.742615135 7.57565789,0.805643926 7.22594831,1.23310346 L1.38979306,8.36679479 C1.24363163,8.54545189 1.16377702,8.76917209 1.16377702,9 C1.16377702,9.55228475 1.61149227,10 2.16377702,10 L13.8360875,10 C14.0669154,10 14.2906356,9.92014539 14.4692927,9.77398395 C14.8967523,9.42427437 14.959781,8.79425432 14.6100715,8.36679479 L8.77391622,1.23310346 Z" id="Rectangle-16"></path>
                <path d="M8.77391622,14.2331035 C8.73178973,14.1816111 8.68462982,14.1344512 8.63313747,14.0923247 C8.20567794,13.7426151 7.57565789,13.8056439 7.22594831,14.2331035 L1.38979306,21.3667948 C1.24363163,21.5454519 1.16377702,21.7691721 1.16377702,22 C1.16377702,22.5522847 1.61149227,23 2.16377702,23 L13.8360875,23 C14.0669154,23 14.2906356,22.9201454 14.4692927,22.773984 C14.8967523,22.4242744 14.959781,21.7942543 14.6100715,21.3667948 L8.77391622,14.2331035 Z" id="Rectangle-16-Copy" transform="translate(8.000000, 18.500000) scale(1, -1) translate(-8.000000, -18.500000) "></path>
            </g>
        </g>
    </g>
</svg>