<?xml version="1.0" encoding="UTF-8"?>
<svg width="40px" height="40px" viewBox="0 0 40 40" version="1.1" xmlns="http://www.w3.org/2000/svg" xmlns:xlink="http://www.w3.org/1999/xlink">
    <!-- Generator: Sketch 50.2 (55047) - http://www.bohemiancoding.com/sketch -->
    <title>icons/return</title>
    <desc>Created with Sketch.</desc>
    <defs></defs>
    <g id="icons/return" stroke="none" stroke-width="1" fill="none" fill-rule="evenodd">
        <g id="Group">
            <path d="M10.8118733,20.4 C10.3637193,20.4 10,20.0410478 10,19.5987673 C10,14.306225 14.3475817,10 19.6917379,10 C22.0620021,10 24.2861291,10.8364869 26.0300331,12.3371957 L26.0300331,11.6693683 C26.0300331,11.2270878 26.3937523,10.8681356 26.8419064,10.8681356 C27.2900605,10.8681356 27.6537797,11.2270878 27.6537797,11.6693683 L27.6537797,14.3102311 C27.6537797,14.7525116 27.2900605,15.1114638 26.8419064,15.1114638 L24.1773381,15.1114638 C23.729184,15.1114638 23.3654648,14.7525116 23.3654648,14.3102311 C23.3654648,13.8679507 23.729184,13.5089985 24.1773381,13.5089985 L24.92142,13.5089985 C23.4762855,12.2843143 21.6430755,11.6024653 19.6917379,11.6024653 C15.243078,11.6024653 11.6237467,15.189584 11.6237467,19.5987673 C11.6237467,20.0410478 11.2600274,20.4 10.8118733,20.4 Z M29.1881267,19.6 C29.6362807,19.6 30,19.9589522 30,20.4012327 C30,25.693775 25.6524183,30 20.3082621,30 C17.9769678,30 15.7861276,29.1915562 14.0556196,27.7377196 L14.0556196,28.3746995 C14.0556196,28.81698 13.6919003,29.1759322 13.2437462,29.1759322 C12.7955922,29.1759322 12.4318729,28.81698 12.4318729,28.3746995 L12.4318729,25.7338367 C12.4318729,25.7170108 12.4355263,25.7009861 12.4367441,25.6845609 C12.4387738,25.6557165 12.4408035,25.6272727 12.4456747,25.598829 C12.4497341,25.5735901 12.456635,25.5491525 12.46313,25.5247149 C12.4700309,25.4990755 12.4773378,25.4742373 12.4866743,25.4493991 C12.4960109,25.4253621 12.5069712,25.4021263 12.5187433,25.3792912 C12.5305155,25.3560555 12.5426936,25.3328197 12.5569014,25.3103852 C12.5711092,25.2887519 12.5865348,25.2683205 12.6023663,25.2478891 C12.6181978,25.2274576 12.6340294,25.2074268 12.6522965,25.1881972 C12.6717815,25.1673652 12.6932961,25.1489368 12.7148108,25.1305085 C12.7278007,25.1192912 12.7383551,25.1064715 12.7521569,25.0960555 C12.758246,25.0912481 12.7651469,25.0888444 12.771236,25.0844376 C12.7951862,25.0676117 12.8203543,25.0535901 12.8459283,25.039168 C12.8674429,25.0271495 12.8885516,25.0143297 12.9108782,25.0043143 C12.9344225,24.9938983 12.9591846,24.9866872 12.9835408,24.9782743 C13.0099267,24.9694607 13.0363126,24.9598459 13.0631044,24.9538367 C13.0854309,24.9486287 13.1081634,24.9466256 13.1308958,24.9434206 C13.161747,24.9390139 13.1921923,24.9350077 13.2230435,24.9342065 C13.2299444,24.9342065 13.2364394,24.9322034 13.2437462,24.9322034 L15.9087205,24.9322034 C16.3568745,24.9322034 16.7205938,25.2911556 16.7205938,25.7334361 C16.7205938,26.1757165 16.3568745,26.5346687 15.9087205,26.5346687 L15.1289161,26.5346687 C16.5659319,27.7325116 18.379657,28.3975347 20.3082621,28.3975347 C24.756922,28.3975347 28.3762533,24.810416 28.3762533,20.4012327 C28.3762533,19.9589522 28.7399726,19.6 29.1881267,19.6 Z" id="Combined-Shape" fill="#A1A1A1" fill-rule="nonzero"></path>
            <rect id="Rectangle-15" stroke="#A1A1A1" stroke-width="2" x="1" y="1" width="38" height="38" rx="19"></rect>
        </g>
    </g>
</svg>