<svg width="75" height="75" viewBox="0 0 75 75" fill="none" xmlns="http://www.w3.org/2000/svg">
<path d="M20 36H56V51H20V36Z" stroke="#A1A1A1" stroke-width="2"/>
<path d="M22 51H31V55H22V51Z" fill="white" stroke="#A1A1A1" stroke-width="2"/>
<path d="M14 33H20V51H14V33Z" stroke="#A1A1A1" stroke-width="2"/>
<mask id="path-4-inside-1" fill="white">
<path fill-rule="evenodd" clip-rule="evenodd" d="M37 35H39V52H37V35Z"/>
</mask>
<path d="M37 35V33H35V35H37ZM39 35H41V33H39V35ZM39 52V54H41V52H39ZM37 52H35V54H37V52ZM37 37H39V33H37V37ZM37 35V52H41V35H37ZM39 50H37V54H39V50ZM39 52V35H35V52H39Z" fill="#A1A1A1" mask="url(#path-4-inside-1)"/>
<path d="M20 20H55V36H20V20Z" stroke="#A1A1A1" stroke-width="2"/>
<path d="M55 33H61V51H55V33Z" fill="white" stroke="#A1A1A1" stroke-width="2"/>
<path d="M45 51H53V55H45V51Z" fill="white" stroke="#A1A1A1" stroke-width="2"/>
</svg>
