<?xml version="1.0" encoding="UTF-8"?>
<svg width="75px" height="75px" viewBox="0 0 75 75" version="1.1" xmlns="http://www.w3.org/2000/svg" xmlns:xlink="http://www.w3.org/1999/xlink">
    <!-- Generator: Sketch 52.2 (67145) - http://www.bohemiancoding.com/sketch -->
    <title>provider2</title>
    <desc>Created with Sketch.</desc>
    <g id="Page-1" stroke="none" stroke-width="1" fill="none" fill-rule="evenodd">
        <g id="provider2">
            <polygon id="Path" stroke="#A1A1A1" stroke-width="2" points="37.8268 17.0085 42.8848 31.381 43.1199 32.049 43.8281 32.049 57.9266 32.049 46.212 41.2123 45.6564 41.647 45.8794 42.3162 50.8859 57.3356 38.4195 48.1936 37.8281 47.7599 37.2368 48.1936 24.7703 57.3356 29.7768 42.3162 29.9985 41.6512 29.449 41.2161 17.8629 32.0407 31.831 32 32.5364 31.9979 32.7711 31.3328"></polygon>
            <path d="M37.7569054,38.7176918 L37.7569054,18.0357122" id="Path-2" stroke="#A1A1A1" stroke-width="2"></path>
            <path d="M27.9793075,45.6919846 L27.9793075,25.010005" id="Path-2-Copy" stroke="#A1A1A1" stroke-width="2" transform="translate(27.979308, 35.350995) rotate(-71.000000) translate(-27.979308, -35.350995) "></path>
            <path d="M31.8255574,57.5295244 L31.8255574,36.8475449" id="Path-2-Copy-2" stroke="#A1A1A1" stroke-width="2" transform="translate(31.825557, 47.188535) rotate(-145.000000) translate(-31.825557, -47.188535) "></path>
            <path d="M43.6882535,57.5295244 L43.6882535,36.8475449" id="Path-2-Copy-3" stroke="#A1A1A1" stroke-width="2" transform="translate(43.688253, 47.188535) rotate(-215.000000) translate(-43.688253, -47.188535) "></path>
            <path d="M47.5917711,45.86314 L47.5917711,25.1811604" id="Path-2-Copy-4" stroke="#A1A1A1" stroke-width="2" transform="translate(47.591771, 35.522150) rotate(-288.000000) translate(-47.591771, -35.522150) "></path>
        </g>
    </g>
</svg>