<svg width="75" height="75" viewBox="0 0 75 75" fill="none" xmlns="http://www.w3.org/2000/svg">
<path d="M19 34V59H40V41H48V59H56V35" stroke="#A1A1A1" stroke-width="2"/>
<rect x="24" y="41" width="8" height="8" stroke="#A1A1A1" stroke-width="2"/>
<path d="M31 29C31 32.866 27.866 36 24 36C20.134 36 17 32.866 17 29L17.6429 26L20 15H36.5" stroke="#A1A1A1" stroke-width="2"/>
<path d="M45 29C45 32.866 41.866 36 38 36C34.134 36 31 32.866 31 29" stroke="#A1A1A1" stroke-width="2" stroke-linejoin="round"/>
<path d="M45 29C45 32.866 48.134 36 52 36C55.866 36 59 32.866 59 29L56 15H36" stroke="#A1A1A1" stroke-width="2"/>
</svg>
