<?xml version="1.0" encoding="UTF-8"?>
<svg width="30px" height="30px" viewBox="0 0 30 30" version="1.1" xmlns="http://www.w3.org/2000/svg" xmlns:xlink="http://www.w3.org/1999/xlink">
    <!-- Generator: Sketch 50.2 (55047) - http://www.bohemiancoding.com/sketch -->
    <title>recommend</title>
    <desc>Created with Sketch.</desc>
    <defs></defs>
    <g id="Page-1" stroke="none" stroke-width="1" fill="none" fill-rule="evenodd">
        <g id="recommend">
            <path d="M10.2216899,13.0755714 C10.392195,13.0577466 10.4862857,13.0393515 10.5229841,13.0234077 C10.5336822,13.0187617 10.5619513,12.995262 10.6292834,12.9140074 C10.6521432,12.8860628 10.6521432,12.8860628 10.6777507,12.8533157 C10.7205463,12.7980459 10.7672878,12.7340522 10.8329023,12.6415204 C10.9259639,12.5094711 10.9785374,12.4351653 11.0298033,12.3648849 C11.2076183,12.122986 11.3706688,11.9341904 11.5973744,11.7109601 C11.816488,11.4945242 12.1065862,11.2359569 12.4432158,10.9556475 C12.5242639,10.888308 12.5955164,10.8299112 12.7464261,10.7067026 C13.0540814,10.4552186 13.2021837,10.3301509 13.3292159,10.2122837 C13.5109825,10.0438548 13.6392707,9.89663379 13.7530079,9.73689496 C13.8387776,9.61654905 13.8776342,9.54576102 13.9091673,9.4572256 C13.9479626,9.34895334 13.9812795,9.19929624 13.9919046,9.08971677 C13.9960369,9.04784095 13.9971871,9.01328884 13.9978616,8.92459947 C13.9988998,8.78807894 14.0010923,8.72703736 14.0152624,8.62159105 C14.0607731,8.29782201 14.2025806,8.02745652 14.4232828,7.80342023 C14.6069242,7.61615437 14.8398964,7.46259579 15.0990024,7.37039101 C15.3301776,7.28753979 15.5550966,7.25739958 15.8234805,7.25135867 C16.1107614,7.24372256 16.3543966,7.26516599 16.6051717,7.34599581 C16.8975093,7.4397862 17.1383654,7.59845814 17.3670149,7.81945355 C17.5777812,8.02428643 17.7531115,8.25787154 17.8901873,8.53777259 C18.0196818,8.80219311 18.1175142,9.11592674 18.1780018,9.43160283 C18.2367944,9.7423222 18.2515115,10.0284234 18.2237284,10.3540212 C18.1949522,10.6956618 18.1216131,11.0616211 18.0081979,11.3936667 C17.9247173,11.6375074 17.8173965,11.8697038 17.6848816,12.0965535 C18.0535536,12.1062648 18.4358222,12.1288704 18.462403,12.1305382 C18.9589382,12.1539561 19.2288727,12.1889099 19.6369489,12.3451621 C20.440025,12.6526595 21.0183342,13.2952174 21.1872771,14.2580714 C21.2520775,14.6273875 21.2662144,14.9868116 21.2317918,15.3508076 C21.205679,15.6269338 21.0380225,16.5028245 20.721147,17.3604991 C20.3679118,18.3165872 19.8571683,19.2630249 19.7271694,19.5990575 C18.6670984,22.3392213 15.6387302,22.541782 12.9122555,21.327765 C12.0604413,20.9484779 11.007939,20.7536816 9.75,20.7536816 L8.75,20.7536816 L8.75,13.1947669 L10.2216899,13.0755714 Z" id="Shape" stroke="#83C150" stroke-width="2"></path>
        </g>
    </g>
</svg>