<svg width="85" height="79" viewBox="0 0 85 79" fill="none" xmlns="http://www.w3.org/2000/svg">
<path d="M71.266 7.79639C87.1357 23.6661 87.1357 49.396 71.266 65.2657C55.3963 81.1358 29.6665 81.1358 13.7968 65.2657C-2.07289 49.396 -2.07289 23.6661 13.7968 7.79639" stroke="#A1A1A1" stroke-width="2" stroke-linecap="round" stroke-linejoin="round"/>
<path d="M14.2387 17.9804V7.60498H3.86328" stroke="#A1A1A1" stroke-width="2" stroke-linecap="round" stroke-linejoin="round"/>
<path d="M61.1484 46.042V56.4174H71.5237" stroke="#A1A1A1" stroke-width="2" stroke-linecap="round" stroke-linejoin="round"/>
<path d="M25.144 55.7366C15.0145 45.6071 15.0145 29.1838 25.144 19.0542C35.2736 8.92463 51.6969 8.92463 61.8265 19.0542C71.9561 29.1838 71.9561 45.6071 61.8265 55.7366" stroke="#A1A1A1" stroke-width="2" stroke-linecap="round" stroke-linejoin="round"/>
<path d="M68.2918 60.106C61.9783 66.8799 52.9773 71.1159 42.9869 71.1159C23.8864 71.1159 8.40234 55.6319 8.40234 36.5314C8.40234 31.2756 9.57474 26.2937 11.6721 21.8329M74.113 51.6245C76.3287 47.0636 77.5715 41.9426 77.5715 36.5314C77.5715 17.4308 62.0875 1.94678 42.9869 1.94678C33.1178 1.94678 24.2142 6.08058 17.9131 12.7112" stroke="#A1A1A1" stroke-width="2" stroke-linecap="round" stroke-linejoin="round" stroke-dasharray="2 6"/>
</svg>
