<?xml version="1.0" encoding="UTF-8"?>
<svg width="24px" height="24px" viewBox="0 0 24 24" version="1.1" xmlns="http://www.w3.org/2000/svg" xmlns:xlink="http://www.w3.org/1999/xlink">
    <!-- Generator: Sketch 50.2 (55047) - http://www.bohemiancoding.com/sketch -->
    <title>Combined Shape</title>
    <desc>Created with Sketch.</desc>
    <defs></defs>
    <g id="Symbols" stroke="none" stroke-width="1" fill="none" fill-rule="evenodd">
        <g id="header-new" transform="translate(-967.000000, -139.000000)" fill="#83C150" fill-rule="nonzero">
            <g transform="translate(-25.000000, 0.000000)" id="menu">
                <g transform="translate(25.000000, 120.000000)">
                    <path d="M989.159595,27.8970695 C988.508981,27.5467387 988.208697,26.7960297 988.458933,26.0953679 L988.508981,25.8951789 C989.109548,24.04343 988.108602,22.0915867 986.256854,21.4910195 C985.556192,21.2407832 984.805483,21.2407832 984.104821,21.4910195 L983.904632,21.5410667 C983.20397,21.7913031 982.453261,21.4409722 982.10293,20.840405 C981.152032,19.138798 979,18.4881835 977.298393,19.4390816 C976.697826,19.7393652 976.2474,20.2398378 975.89707,20.840405 C975.546739,21.4910195 974.79603,21.7913031 974.095368,21.5410667 L973.895179,21.4910195 C972.04343,20.8904523 970.091587,21.8913976 969.491019,23.7431464 C969.240783,24.4438082 969.240783,25.1945172 969.491019,25.8951789 L969.541067,26.0953679 C969.791303,26.7960297 969.440972,27.5467387 968.840405,27.8970695 C967.138798,28.8479676 966.488184,31 967.439082,32.701607 C967.739365,33.3021742 968.239838,33.7525996 968.840405,34.1029305 C969.491019,34.4532613 969.791303,35.2039703 969.541067,35.9046321 L969.491019,36.1048211 C968.890452,37.95657 969.891398,39.9084133 971.743146,40.5089805 C972.443808,40.7592168 973.194517,40.7592168 973.895179,40.5089805 L974.095368,40.4589333 C974.79603,40.2086969 975.546739,40.5590278 975.89707,41.159595 C976.847968,42.861202 979,43.5118165 980.701607,42.5609184 C981.302174,42.2606348 981.7526,41.7601622 982.10293,41.159595 C982.453261,40.5089805 983.20397,40.2086969 983.904632,40.4589333 L984.104821,40.5089805 C985.95657,41.1095477 987.908413,40.1086024 988.508981,38.2568536 C988.759217,37.5561918 988.759217,36.8054828 988.508981,36.1048211 L988.458933,35.9046321 C988.208697,35.2039703 988.559028,34.4532613 989.159595,34.1029305 C990.861202,33.1520324 991.511816,31 990.560918,29.298393 C990.260635,28.6978258 989.760162,28.2474004 989.159595,27.8970695 Z M988.208697,32.3512762 C986.707279,33.1520324 986.006617,34.9036867 986.557137,36.5051992 L986.607184,36.7053883 C986.857421,37.5061446 986.406995,38.3569481 985.606239,38.6071844 C985.305956,38.7072789 985.005672,38.7072789 984.705388,38.6071844 L984.505199,38.5571371 C982.903687,38.0566645 981.152032,38.7573262 980.351276,40.2086969 C979.950898,40.9594059 979,41.2096422 978.299338,40.8092641 C978.049102,40.6591223 977.848913,40.4589333 977.698771,40.2086969 C977.098204,39.0576098 975.89707,38.3569481 974.595841,38.3569481 C974.24551,38.3569481 973.895179,38.4069954 973.544848,38.5070899 L973.344659,38.5571371 C972.543903,38.8073735 971.693099,38.3569481 971.442863,37.5561918 C971.342768,37.2559082 971.342768,36.9556246 971.442863,36.655341 L971.49291,36.5051992 C971.993383,34.9036867 971.292721,33.1520324 969.84135,32.3512762 C969.090641,31.9508981 968.840405,31 969.240783,30.2993383 C969.390925,30.0491019 969.591114,29.8489129 969.84135,29.6987711 C971.292721,28.8980148 971.993383,27.1463605 971.49291,25.544848 L971.442863,25.344659 C971.192627,24.5439027 971.643052,23.6930992 972.443808,23.4428629 C972.744092,23.3427683 973.044375,23.3427683 973.344659,23.4428629 L973.544848,23.4929101 C975.146361,23.9933828 976.898015,23.2927211 977.698771,21.8413503 C978.099149,21.0906414 979.050047,20.840405 979.750709,21.2407832 C980.000945,21.390925 980.201134,21.591114 980.351276,21.8413503 C981.152032,23.3427683 982.903687,24.04343 984.505199,23.5429574 L984.705388,23.4929101 C985.506145,23.2426738 986.356948,23.6930992 986.607184,24.4938554 C986.707279,24.794139 986.707279,25.0944226 986.607184,25.3947062 L986.557137,25.4948008 C986.056664,27.0963133 986.757326,28.8479676 988.208697,29.6487238 C988.959406,30.0491019 989.209642,31 988.809264,31.7006617 C988.70917,32.0009453 988.508981,32.2011344 988.208697,32.3512762 Z M982.703498,27.2965023 C982.30312,26.8961242 981.702552,26.8961242 981.302174,27.2965023 L975.296502,33.3021742 C974.896124,33.6525051 974.846077,34.3031195 975.196408,34.7034977 C975.546739,35.1038758 976.197353,35.1539231 976.597731,34.8035922 C976.647779,34.7535449 976.697826,34.7535449 976.697826,34.7034977 L982.703498,28.6978258 C983.103876,28.2974476 983.103876,27.6968805 982.703498,27.2965023 Z M976.998109,28.4976367 C976.998109,27.6468332 976.347495,26.9962187 975.496691,26.9962187 C974.645888,26.9962187 973.995273,27.6468332 973.995273,28.4976367 C973.995273,29.3484402 974.645888,29.9990547 975.496691,29.9990547 C976.347495,29.9990547 976.998109,29.3484402 976.998109,28.4976367 Z M982.503309,32.0009453 C981.652505,32.0009453 981.001891,32.6515598 981.001891,33.5023633 C981.001891,34.3531668 981.652505,35.0037813 982.503309,35.0037813 C983.354112,35.0037813 984.004727,34.3531668 984.004727,33.5023633 C984.004727,32.6515598 983.354112,32.0009453 982.503309,32.0009453 Z" id="Combined-Shape"></path>
                </g>
            </g>
        </g>
    </g>
</svg>