<?xml version="1.0" encoding="UTF-8"?>
<svg width="20px" height="20px" viewBox="0 0 20 20" version="1.1" xmlns="http://www.w3.org/2000/svg" xmlns:xlink="http://www.w3.org/1999/xlink">
    <!-- Generator: Sketch 50.2 (55047) - http://www.bohemiancoding.com/sketch -->
    <title>search</title>
    <desc>Created with Sketch.</desc>
    <defs></defs>
    <g id="Page-1" stroke="none" stroke-width="1" fill="none" fill-rule="evenodd">
        <g id="search" transform="translate(-1.000000, 0.000000)" fill="#FFFFFF" fill-rule="nonzero">
            <path d="M19.9995531,18.2168311 L15.2395208,13.2661588 C16.4634088,11.8112558 17.1339842,9.98069024 17.1339842,8.0749921 C17.1339842,3.62251167 13.5114725,0 9.0589921,0 C4.60651167,0 0.984,3.62251167 0.984,8.0749921 C0.984,12.5274725 4.60651167,16.1499842 9.0589921,16.1499842 C10.7305155,16.1499842 12.3233954,15.6458238 13.6852604,14.6887617 L18.4814546,19.6770003 C18.6819251,19.8851947 18.9515596,20 19.2405039,20 C19.5140004,20 19.7734534,19.8957273 19.9704129,19.7061405 C20.3889082,19.3034442 20.4022495,18.6356774 19.9995531,18.2168311 Z M9.0589921,2.10651968 C12.350078,2.10651968 15.0274645,4.78390619 15.0274645,8.0749921 C15.0274645,11.366078 12.350078,14.0434645 9.0589921,14.0434645 C5.76790619,14.0434645 3.09051968,11.366078 3.09051968,8.0749921 C3.09051968,4.78390619 5.76790619,2.10651968 9.0589921,2.10651968 Z" id="Shape"></path>
        </g>
    </g>
</svg>