<svg xmlns="http://www.w3.org/2000/svg" width="40" height="40" viewBox="0 0 40 40">
    <g fill="none" fill-rule="evenodd">
        <g fill="#A1A1A1">
            <g>
                <g>
                    <g>
                        <path d="M18.995 11c4.415 0 7.995 3.58 7.995 7.995 0 1.887-.654 3.62-1.747 4.988l3.496 3.496c.348.348.348.912 0 1.26s-.912.348-1.26 0l-3.496-3.496c-1.367 1.093-3.101 1.747-4.988 1.747-4.416 0-7.995-3.58-7.995-7.995C11 14.579 14.58 11 18.995 11zm0 2C15.684 13 13 15.684 13 18.995c0 3.31 2.684 5.995 5.995 5.995 1.288 0 2.51-.406 3.525-1.146l.214-.163.526-.421.42-.526c.788-.984 1.246-2.186 1.303-3.464l.007-.275c0-3.311-2.684-5.995-5.995-5.995z" transform="translate(-451 -1394) translate(421 548) translate(0 133) translate(30 713)"/>
                    </g>
                </g>
            </g>
        </g>
    </g>
</svg>
