<?xml version="1.0" encoding="UTF-8"?>
<svg width="43px" height="52px" viewBox="0 0 43 52" version="1.1" xmlns="http://www.w3.org/2000/svg" xmlns:xlink="http://www.w3.org/1999/xlink">
    <!-- Generator: Sketch 50.2 (55047) - http://www.bohemiancoding.com/sketch -->
    <title>Group 2</title>
    <desc>Created with Sketch.</desc>
    <defs></defs>
    <g id="Symbols" stroke="none" stroke-width="1" fill="none" fill-rule="evenodd">
        <g id="icons/expert" transform="translate(-16.000000, -11.000000)">
            <g id="Group-2">
                <rect id="Rectangle-12" x="0" y="0" width="75" height="75"></rect>
                <g id="Group" transform="translate(18.000000, 13.000000)" stroke="#83C150" stroke-width="2">
                    <path d="M10.4107194,48.3372827 L8.54986597,44.4729723 C7.98520994,43.2977839 6.63298922,42.7271259 5.39644372,43.1421795 L1.32930903,44.5063813 L7.06787341,34.2219657 C7.9791986,34.6605042 8.98967049,34.8524972 9.99843896,34.7787827 L12.6170051,34.6061694 C13.7099316,34.5363937 14.773577,34.9764081 15.4974279,35.7977579 L16.539283,37.0561645 L10.4107194,48.3372827 Z" id="Shape" fill="#FFFFFF" stroke-linecap="round" stroke-linejoin="round"></path>
                    <path d="M37.3095225,44.5063813 L33.2535307,43.1421795 C32.0169852,42.7271259 30.6647645,43.2977839 30.1001084,44.4729723 L28.239255,48.3372827 L22.1106914,37.0561645 L23.1915464,35.8200306 C23.9153973,34.9986808 24.9790427,34.5586664 26.0719692,34.6284421 L28.6905354,34.8010554 C29.6993339,34.8752945 30.7099403,34.6832759 31.6211009,34.2442383 L37.3095225,44.5063813 Z" id="Shape" fill="#FFFFFF" stroke-linecap="round" stroke-linejoin="round"></path>
                    <path d="M2.00041954,15.0853078 L2.27709879,14.8436688 C3.48758903,13.7784219 4.13679534,12.2126735 4.0354715,10.6061065 L3.8662909,8.04075883 C3.79191529,6.91118826 4.20874908,5.80448928 5.00981945,5.00471229 C5.81092018,4.20490497 6.9182829,3.78992222 8.04602536,3.86618501 L10.6083613,4.03521659 C12.2168533,4.13718488 13.7821381,3.48968358 14.8474277,2.28256831 L16.5537451,0.3415764 C17.2990823,-0.510933635 18.3762413,-1 19.5085759,-1 C20.6409105,-1 21.7180695,-0.510933635 22.4627911,0.340872886 L24.1582725,2.27649969 C25.2239449,3.48675396 26.789359,4.13599947 28.3953194,4.03538195 L30.9584412,3.8663034 C32.0891888,3.78969621 33.1978478,4.20563958 33.9992176,5.00711919 C34.800557,5.80856839 35.2164109,6.91729267 35.1399397,8.04632038 L34.9708763,10.6098684 C34.8675429,12.2183808 35.5150192,13.7840339 36.7208524,14.8466467 L38.6586627,16.5390512 C39.511034,17.2844713 40,18.3617044 40,19.4940943 C40,20.6264843 39.511034,21.7037174 38.658165,22.4495725 L36.7209066,24.1414947 C35.5062668,25.2024654 34.8519417,26.7666349 34.948937,28.3711663 L35.1179925,30.93464 C35.1945821,32.065438 34.7787281,33.1741623 33.9773887,33.9756115 C33.1760189,34.7770911 32.0673599,35.1930345 30.9383832,35.1165457 L28.3734114,34.9473435 C26.7673469,34.8412692 25.2024149,35.4835539 24.13777,36.6828897 L22.4252062,38.6356963 C21.679869,39.4882064 20.60271,39.9772727 19.4703754,39.9772727 C18.3380408,39.9772727 17.2608818,39.4882064 16.5092368,38.628411 L14.8426822,36.6845972 C13.8552474,35.563792 12.4347783,34.920158 10.9434716,34.9167697 L10.610918,34.9146009 L8.04779614,35.0836795 C6.91704857,35.1602867 5.8083896,34.7443433 5.00701978,33.9428637 C4.20568036,33.1414145 3.78982643,32.0326902 3.86629773,30.9036625 L4.03528704,28.3412779 C4.13679534,26.7318514 3.48758903,25.166103 2.27992776,24.1033362 L0.342117417,22.4109317 C-0.510253824,21.6655116 -0.999219836,20.5882785 -0.999219836,19.4558886 C-0.999219836,18.3234986 -0.510253824,17.2462655 0.342117417,16.5008454 L2.00041954,15.0506186 L2.00041954,15.0853078 Z" id="Shape" fill="#FFFFFF" fill-rule="nonzero"></path>
                    <path d="M10.0441388,17.1817008 L14.4783137,21.4488883 L14.3861515,21.9733095 L13.4208042,27.4663249 C13.3937078,27.6198961 13.4578943,27.776439 13.589579,27.8710178 C13.7259476,27.9689607 13.9093313,27.9819387 14.0567463,27.9050914 L19.5128532,25.0404758 L19.9768465,25.282504 L24.9694082,27.8867237 C25.1193958,27.9649169 25.3027795,27.951939 25.4391481,27.8539961 C25.5708327,27.7594173 25.6350193,27.6028743 25.6078966,27.4491548 L24.5503209,21.4499897 L24.9330866,21.0806275 L28.9576018,17.1970516 C29.0734002,17.086151 29.1142856,16.9232876 29.0653942,16.7749652 C29.0153712,16.6232098 28.8790635,16.5102045 28.7109621,16.4867015 L22.5993011,15.6244728 L22.3649145,15.1529802 L19.8768053,10.1478952 C19.8049714,10.0031117 19.6523036,9.90909091 19.4827638,9.90909091 C19.313224,9.90909091 19.1605561,10.0031117 19.0883765,10.1485914 L16.3656159,15.6257009 L15.8427257,15.6983256 L10.2878051,16.4698529 C10.1209365,16.4931828 9.98462877,16.6061881 9.93460577,16.7579435 C9.8857144,16.9062658 9.92659978,17.0691292 10.0441388,17.1817008 Z" id="Shape"></path>
                </g>
            </g>
        </g>
    </g>
</svg>