<?xml version="1.0" encoding="UTF-8"?>
<svg width="49px" height="43px" viewBox="0 0 49 43" version="1.1" xmlns="http://www.w3.org/2000/svg" xmlns:xlink="http://www.w3.org/1999/xlink">
    <!-- Generator: Sketch 50.2 (55047) - http://www.bohemiancoding.com/sketch -->
    <title>Group 2</title>
    <desc>Created with Sketch.</desc>
    <defs></defs>
    <g id="Symbols" stroke="none" stroke-width="1" fill="none" fill-rule="evenodd">
        <g id="icons/delivery" transform="translate(-13.000000, -16.000000)">
            <g id="Group-2">
                <rect id="Rectangle-12" x="0" y="0" width="75" height="75"></rect>
                <g id="Group" transform="translate(13.000000, 16.000000)">
                    <path d="M39.8824096,8 L31,8 L31,2 C31,0.8954305 30.1045695,-2.02906125e-16 29,0 L2,0 C0.8954305,2.02906125e-16 -1.3527075e-16,0.8954305 0,2 L0,37 C1.3527075e-16,38.1045695 0.8954305,39 2,39 L47,39 C48.1045695,39 49,38.1045695 49,37 L49,21 L41.5857262,8.95180515 C41.2217294,8.3603102 40.576931,8 39.8824096,8 Z M40,10 L47,21 L47,28 L31,28 L31,10 L40,10 Z M29,2 L29,28 L2,28 L2,2 L29,2 Z M2,37 L2,30 L47,30 L47,37 L2,37 Z" id="Shape" fill="#83C150" fill-rule="nonzero"></path>
                    <circle id="Oval" stroke="#83C150" stroke-width="2" fill="#FFFFFF" cx="12" cy="38" r="4"></circle>
                    <circle id="Oval-Copy" stroke="#83C150" stroke-width="2" fill="#FFFFFF" cx="38" cy="38" r="4"></circle>
                </g>
            </g>
        </g>
    </g>
</svg>