<?xml version="1.0" encoding="UTF-8"?>
<svg width="53px" height="38px" viewBox="0 0 53 38" version="1.1" xmlns="http://www.w3.org/2000/svg" xmlns:xlink="http://www.w3.org/1999/xlink">
    <!-- Generator: Sketch 52.2 (67145) - http://www.bohemiancoding.com/sketch -->
    <title>Group 10</title>
    <desc>Created with Sketch.</desc>
    <defs>
        <polygon id="path-1" points="0 0.352176484 52.744144 0.352176484 52.744144 37.0952381 0 37.0952381"></polygon>
    </defs>
    <g id="new-pages" stroke="none" stroke-width="1" fill="none" fill-rule="evenodd">
        <g id="lifemebel_index" transform="translate(-1261.000000, -1105.000000)">
            <g id="Group-10" transform="translate(1261.000000, 1105.000000)">
                <path d="M43.1879004,29 C42.9837451,29 42.7879569,28.9199407 42.6273102,28.7668863 L33.252904,19.4806 C32.9293794,19.1597742 32.9143187,18.6140761 33.2188782,18.2726469 C33.533478,17.9247423 34.0421927,17.9059048 34.3718531,18.238504 L43.7479327,27.5130169 C44.069784,27.8356086 44.086518,28.3813067 43.7802852,28.7321547 C43.6196385,28.9111107 43.4087896,29 43.1879004,29" id="Fill-1" fill="#83C04E"></path>
                <path d="M9.8117798,29 C9.59937095,29 9.38027207,28.9110811 9.21748104,28.7320657 C8.91364161,28.3811011 8.93092422,27.8352217 9.25204626,27.5125228 L18.620893,18.2349286 C18.9526076,17.9116408 19.4694134,17.9210626 19.7760404,18.2690828 C20.0887998,18.6106255 20.0709597,19.1565049 19.7414751,19.4774372 L10.3720708,28.7668088 C10.2092798,28.9199141 10.0158261,29 9.8117798,29" id="Fill-3" fill="#83C04E"></path>
                <g id="Group-7">
                    <mask id="mask-2" fill="white">
                        <use xlink:href="#path-1"></use>
                    </mask>
                    <g id="Clip-6"></g>
                    <path d="M4.25205604,2.01860872 C2.84377033,2.01860872 1.70048462,3.13888491 1.70048462,4.51882777 L1.70048462,32.9286439 C1.70048462,34.3017384 2.84377033,35.4288629 4.25205604,35.4288629 L48.4919132,35.4288629 C49.9001989,35.4288629 51.0434846,34.3017384 51.0434846,32.9286439 L51.0434846,4.51882777 C51.0434846,3.13888491 49.9001989,2.01860872 48.4919132,2.01860872 L4.25205604,2.01860872 Z M48.4919132,37.0952952 L4.25205604,37.0952952 C1.90491319,37.0952952 -0.000174725275,35.222271 -0.000174725275,32.9286439 L-0.000174725275,4.51882777 C-0.000174725275,2.218923 1.90491319,0.352176484 4.25205604,0.352176484 L48.4919132,0.352176484 C50.839056,0.352176484 52.744144,2.218923 52.744144,4.51882777 L52.744144,32.9286439 C52.744144,35.222271 50.839056,37.0952952 48.4919132,37.0952952 Z" id="Fill-5" fill="#83C04E" mask="url(#mask-2)"></path>
                </g>
                <path d="M26.0135099,24 C24.8903628,24 23.7764455,23.6220477 22.9249996,22.8572709 L1.28812116,3.51427327 C0.937390061,3.19901724 0.901624718,2.65072018 1.20966815,2.29169503 C1.51713472,1.9320784 2.05188428,1.90487057 2.40203852,2.210663 L24.030264,21.5512947 C25.1014937,22.5142155 26.9255262,22.5142155 27.9967559,21.5512947 L49.6070987,2.23609641 C49.9480232,1.9320784 50.4827727,1.96638394 50.7908162,2.32777499 C51.0982827,2.68739162 51.0625174,3.22622508 50.7117863,3.54207258 L29.1106732,22.8572709 C28.2505744,23.6220477 27.1366571,24 26.0135099,24" id="Fill-8" fill="#83C04E"></path>
            </g>
        </g>
    </g>
</svg>