<?xml version="1.0" encoding="UTF-8"?>
<svg width="48px" height="45px" viewBox="0 0 48 45" version="1.1" xmlns="http://www.w3.org/2000/svg" xmlns:xlink="http://www.w3.org/1999/xlink">
    <!-- Generator: Sketch 50.2 (55047) - http://www.bohemiancoding.com/sketch -->
    <title>Group</title>
    <desc>Created with Sketch.</desc>
    <defs></defs>
    <g id="Symbols" stroke="none" stroke-width="1" fill="none" fill-rule="evenodd">
        <g id="icons/assemble" transform="translate(-14.000000, -15.000000)">
            <g id="Group">
                <rect id="Rectangle-12" x="0" y="0" width="75" height="75"></rect>
                <g id="Group-2" transform="translate(14.000000, 15.000000)">
                    <path d="M10,18 L10,28 L17.4586187,28 C18.436297,28 19.2706773,27.2931739 19.4314066,26.328798 L20.8195396,18 L10,18 Z" id="Rectangle-4" stroke="#83C150" stroke-width="2" fill="#FFFFFF"></path>
                    <path d="M45,8 L34,8 L34,6.25 C34,6.05228475 33.9477153,6 33.75,6 L29,6 L29,2.5 C29,1.55228475 28.4477153,1 27.5,1 L2.5,1 C1.69816996,1 1,1.65162529 1,2.5 L1,37.5 C1,38.1977153 1.80228475,39 2.5,39 L12.5,39 C13.3483747,39 14,38.30183 14,37.5 L14,22.5 C14,20.4477153 15.4477153,19 17.5,19 L27.5,19 C28.4477153,19 29,18.4477153 29,17.5 L29,14 L33.75,14 C33.9477153,14 34,13.9477153 34,13.75 L34,12 L45,12 C46.1045695,12 47,11.1045695 47,10 C47,8.8954305 46.1045695,8 45,8 Z" id="Shape" stroke="#83C150" stroke-width="2" fill="#FFFFFF" fill-rule="nonzero"></path>
                    <path d="M16.5,8.75 L16.5,6.25 C16.5,6.05228475 16.4477153,6 16.25,6 L6.25,6 C6.05228475,6 6,6.05228475 6,6.25 L6,8.75 C6,8.94771525 6.05228475,9 6.25,9 L16.25,9 C16.4477153,9 16.5,8.94771525 16.5,8.75 Z" id="Path" stroke="#83C150" stroke-width="2" fill="#FFFFFF"></path>
                    <rect id="Rectangle-2" fill="#83C150" x="28" y="6" width="2" height="8"></rect>
                    <rect id="Rectangle-3" fill="#68C31C" x="2" y="33" width="13" height="2"></rect>
                    <rect id="Rectangle-5" stroke="#83C150" stroke-width="2" fill="#FFFFFF" x="1" y="34" width="22" height="10" rx="2"></rect>
                </g>
            </g>
        </g>
    </g>
</svg>