<?xml version="1.0" encoding="UTF-8"?>
<svg width="51px" height="51px" viewBox="0 0 51 51" version="1.1" xmlns="http://www.w3.org/2000/svg" xmlns:xlink="http://www.w3.org/1999/xlink">
    <!-- Generator: Sketch 52.2 (67145) - http://www.bohemiancoding.com/sketch -->
    <title>Group 22</title>
    <desc>Created with Sketch.</desc>
    <defs>
        <polygon id="path-1" points="0 0.462122449 50.5331134 0.462122449 50.5331134 50.4793316 0 50.4793316"></polygon>
    </defs>
    <g id="new-pages" stroke="none" stroke-width="1" fill="none" fill-rule="evenodd">
        <g id="lifemebel_index" transform="translate(-574.000000, -1099.000000)">
            <g id="Group-22" transform="translate(574.000000, 1099.000000)">
                <g id="Group-3">
                    <mask id="mask-2" fill="white">
                        <use xlink:href="#path-1"></use>
                    </mask>
                    <g id="Clip-2"></g>
                    <path d="M25.2665567,48.8124643 C12.2647113,48.8124643 1.68457732,38.3397704 1.68457732,25.4705969 C1.68457732,12.6019439 12.2647113,2.12925 25.2665567,2.12925 C38.2684021,2.12925 48.8490619,12.6019439 48.8490619,25.4705969 C48.8490619,38.3397704 38.2684021,48.8124643 25.2665567,48.8124643 M25.2665567,0.461862245 C11.3351443,0.461862245 0,11.6813418 0,25.4705969 C0,39.2603724 11.3351443,50.4793316 25.2665567,50.4793316 C39.1979691,50.4793316 50.5331134,39.2603724 50.5331134,25.4705969 C50.5331134,11.6813418 39.1979691,0.461862245 25.2665567,0.461862245" id="Fill-1" fill="#84BF4C" mask="url(#mask-2)"></path>
                </g>
                <path d="M25.5001366,28.3161492 C24.5338094,28.3161492 23.7499317,27.5612288 23.7499317,26.6317726 C23.7499317,25.7023164 24.5338094,24.9473961 25.5001366,24.9473961 C26.4664638,24.9473961 27.2503414,25.7023164 27.2503414,26.6317726 C27.2503414,27.5612288 26.4664638,28.3161492 25.5001366,28.3161492 M26.375239,23.3823558 L26.375239,14.8421883 C26.375239,14.3774602 25.983027,14 25.5001366,14 C25.0172461,14 24.6250341,14.3774602 24.6250341,14.8421883 L24.6250341,23.3823558 C23.398689,23.6888451 22.4421944,24.6093642 22.1226345,25.7895844 L15.8745562,25.7895844 C15.3916657,25.7895844 15,26.1670445 15,26.6317726 C15,27.0970264 15.3916657,27.4734352 15.8745562,27.4734352 L22.1226345,27.4734352 C22.5148465,28.921242 23.8728394,30 25.5001366,30 C27.4322447,30 29,28.4864794 29,26.6317726 C29,25.0667324 27.878536,23.759816 26.375239,23.3823558" id="Fill-4" fill="#84BF4C"></path>
                <path d="M25.5,9 C25.7759051,9 26,8.70120682 26,8.33333333 L26,7.66666667 C26,7.29879318 25.7759051,7 25.5,7 C25.2240949,7 25,7.29879318 25,7.66666667 L25,8.33333333 C25,8.70120682 25.2240949,9 25.5,9" id="Fill-6" fill="#84BF4C"></path>
                <path d="M25.5,43 C25.2240949,43 25,43.2987932 25,43.6670828 L25,44.3333333 C25,44.7012068 25.2240949,45 25.5,45 C25.7759051,45 26,44.7012068 26,44.3333333 L26,43.6670828 C26,43.2987932 25.7759051,43 25.5,43" id="Fill-8" fill="#84BF4C"></path>
                <path d="M43.3333333,25 L42.6666667,25 C42.2987932,25 42,25.2241648 42,25.5001561 C42,25.7761474 42.2987932,26 42.6666667,26 L43.3333333,26 C43.7012068,26 44,25.7761474 44,25.5001561 C44,25.2241648 43.7012068,25 43.3333333,25" id="Fill-10" fill="#84BF4C"></path>
                <path d="M7.33333333,25 L6.66666667,25 C6.29879318,25 6,25.2241648 6,25.5001561 C6,25.7761474 6.29879318,26 6.66666667,26 L7.33333333,26 C7.70120682,26 8,25.7761474 8,25.5001561 C8,25.2241648 7.70120682,25 7.33333333,25" id="Fill-12" fill="#84BF4C"></path>
                <path d="M38.7400242,11.2163844 L38.2162722,11.7390252 C37.9279093,12.0275377 37.9279093,12.4930292 38.2162722,12.7815417 C38.3632176,12.9271806 38.5511602,13 38.7400242,13 C38.9275062,13 39.1163701,12.9271806 39.2623942,12.7815417 L39.7806184,12.2616661 C40.0731272,11.9703883 40.0731272,11.5048969 39.7806184,11.2163844 C39.4927161,10.9278719 39.0279265,10.9278719 38.7400242,11.2163844" id="Fill-14" fill="#84BF4C"></path>
                <path d="M11.7377332,38.2160761 L11.2194195,38.7392682 C10.9268602,39.0278306 10.9268602,39.4924806 11.2194195,39.7810429 C11.3608616,39.9276289 11.5497581,40 11.7377332,40 C11.9257084,40 12.1187514,39.9276289 12.2601935,39.7810429 L12.7840359,39.2619994 C13.071988,38.9692884 13.071988,38.5046384 12.7840359,38.2160761 C12.4956231,37.9279746 12.026146,37.9279746 11.7377332,38.2160761" id="Fill-16" fill="#84BF4C"></path>
                <path d="M39.2622668,38.2160761 C38.973854,37.9279746 38.5043769,37.9279746 38.2159641,38.2160761 C37.928012,38.5046384 37.928012,38.9692884 38.2159641,39.2619994 L38.7398065,39.7810429 C38.8812486,39.9276289 39.0742916,40 39.2622668,40 C39.4502419,40 39.6391384,39.9276289 39.7805805,39.7810429 C40.0731398,39.4924806 40.0731398,39.0278306 39.7805805,38.7392682 L39.2622668,38.2160761 Z" id="Fill-18" fill="#84BF4C"></path>
                <path d="M12.2603087,11.2163844 C11.9718959,10.9278719 11.5074868,10.9278719 11.2190739,11.2163844 C10.9269754,11.5048969 10.9269754,11.9703883 11.2190739,12.2616661 L11.7378484,12.7815417 C11.883437,12.9271806 12.0723336,13 12.2603087,13 C12.4492053,13 12.6371804,12.9271806 12.7836904,12.7815417 C13.0721032,12.4930292 13.0721032,12.0275377 12.7836904,11.7390252 L12.2603087,11.2163844 Z" id="Fill-20" fill="#84BF4C"></path>
            </g>
        </g>
    </g>
</svg>