<svg width="50" height="50" viewBox="0 0 50 50" fill="none" xmlns="http://www.w3.org/2000/svg">
<path d="M34 42H49V1H1V42H17" stroke="#83C050" stroke-width="2" stroke-linecap="round" stroke-linejoin="round"/>
<path d="M21 33L18.2 35.1C17.4446 35.6666 17 36.5557 17 37.5V45C17 47.2091 18.7909 49 21 49H29C31.2091 49 33 47.2091 33 45V37.5C33 36.6716 32.3284 36 31.5 36V36C30.6716 36 30 36.6716 30 37.5V38M30 39.5V33.5C30 32.6716 29.3284 32 28.5 32C27.6716 32 27 32.6716 27 33.5M27 33.5V34M27 33.5V39.5M27 33.5C27 32.6716 26.3284 32 25.5 32C24.6716 32 24 32.6716 24 33.5V34M27 36V38M21 32V34M21 39.5V27.5C21 26.6716 21.6716 26 22.5 26C23.3284 26 24 26.6716 24 27.5V39.5" stroke="#83C050" stroke-width="2" stroke-linecap="round" stroke-linejoin="round"/>
<path d="M2 9H49" stroke="#83C050" stroke-width="2" stroke-linecap="round" stroke-linejoin="round"/>
<path d="M6 5H7" stroke="#83C050" stroke-width="2" stroke-linecap="round" stroke-linejoin="round"/>
<path d="M11 5H12" stroke="#83C050" stroke-width="2" stroke-linecap="round" stroke-linejoin="round"/>
<path d="M16 5H17" stroke="#83C050" stroke-width="2" stroke-linecap="round" stroke-linejoin="round"/>
</svg>
