<?xml version="1.0" encoding="UTF-8"?>
<svg width="45px" height="45px" viewBox="0 0 45 45" version="1.1" xmlns="http://www.w3.org/2000/svg" xmlns:xlink="http://www.w3.org/1999/xlink">
    <!-- Generator: Sketch 52.2 (67145) - http://www.bohemiancoding.com/sketch -->
    <title>Group 3</title>
    <desc>Created with Sketch.</desc>
    <defs>
        <polygon id="path-1" points="0 0 45 0 45 45 0 45"></polygon>
    </defs>
    <g id="new-pages" stroke="none" stroke-width="1" fill="none" fill-rule="evenodd">
        <g id="lifemebel_index" transform="translate(-918.000000, -1102.000000)">
            <g id="Group-3" transform="translate(918.000000, 1102.000000)">
                <mask id="mask-2" fill="white">
                    <use xlink:href="#path-1"></use>
                </mask>
                <g id="Clip-2"></g>
                <path d="M39.6546525,42.2170717 C37.8280687,44.0442528 34.0913168,43.9678368 29.4030648,42.0070188 C24.4406125,39.9316375 18.9560015,36.0374579 13.9592895,31.0407737 C8.9625774,26.0439681 5.06837602,20.5595092 2.99310467,15.5970847 C1.03215426,10.9087373 0.955737815,7.17273517 2.78280759,5.34518964 L5.22874121,2.89914819 L13.7082936,17.6267864 L13.1397261,18.1953507 C12.0301691,19.3047801 11.933464,21.0611336 12.9148504,22.2812386 C14.3346898,24.0457318 15.896914,25.7826472 17.5574227,27.4426606 C19.2179313,29.10316 20.9543705,30.6653755 22.7188735,32.0853284 C23.9389853,33.0667093 25.6953487,32.9698833 26.8047842,31.860211 L27.3235413,31.3415783 L42.0981564,39.773703 L39.6546525,42.2170717 Z M7.77101544,1.47640102 C8.39886945,1.55937739 8.94034495,1.92201938 9.25633727,2.47102412 L15.6482265,13.5726069 C16.1034449,14.3622796 15.9710222,15.3640705 15.3265242,16.0085649 L14.7760585,16.5590275 L6.30938391,1.85362158 C6.65526247,1.59740317 7.06917475,1.45829929 7.50094588,1.45829929 C7.59024013,1.45829929 7.68087076,1.46400923 7.77101544,1.47640102 Z M31.4275538,29.3513602 L42.529563,35.7436997 C43.0786923,36.0596902 43.4412148,36.6011627 43.5243132,37.2290132 C43.5940477,37.7562716 43.4568869,38.2750258 43.1464831,38.6935523 L28.3922781,30.2729689 L28.9915823,29.6740326 C29.6360802,29.0295382 30.6378767,28.8966302 31.4275538,29.3513602 Z M44.9693007,37.0377909 C44.8264299,35.9567898 44.2019776,35.0241256 43.2570379,34.4798589 L32.1551501,28.0880054 C30.7954477,27.3055005 29.0704285,27.5332907 27.9608714,28.6428416 L25.7740734,30.8296274 C25.1922636,31.4114339 24.2716216,31.4630664 23.6328336,30.9490502 C21.9092723,29.5618991 20.2117096,28.0354011 18.588255,26.411834 C16.9646789,24.7883885 15.4380509,23.0913212 14.050892,21.3671621 C13.5369945,20.7284991 13.5887487,19.8083482 14.1705584,19.2259343 L16.357235,17.0391484 C17.466792,15.9297191 17.6950695,14.2051955 16.9120743,12.8450147 L10.5201851,1.74367485 C9.97579383,0.798254433 9.04336744,0.173684098 7.96223878,0.0308140897 C6.88074565,-0.112420383 5.81820477,0.248156305 5.04699399,1.01948427 L1.75209677,4.31424161 C-0.547685846,6.61401139 -0.584618435,10.8210229 1.64810238,16.1594531 C3.79456615,21.2928114 7.80090168,26.9438305 12.9285786,32.0714788 C18.0562556,37.1991271 23.7073062,41.2054403 28.8406932,43.352378 C31.46886,44.4509949 33.8222191,45.0004856 35.8092896,44.9999997 C37.8584409,44.9999997 39.5179777,44.4158849 40.6858493,43.2478983 L43.9807465,39.9530194 C44.7519573,39.1819345 45.1121715,38.1193995 44.9693007,37.0377909 Z" id="Fill-1" fill="#83C04E" mask="url(#mask-2)"></path>
            </g>
        </g>
    </g>
</svg>