<?xml version="1.0" encoding="UTF-8"?>
<svg width="268px" height="25px" viewBox="0 0 268 25" version="1.1" xmlns="http://www.w3.org/2000/svg" xmlns:xlink="http://www.w3.org/1999/xlink">
    <!-- Generator: Sketch 62 (91390) - https://sketch.com -->
    <title>Group</title>
    <desc>Created with Sketch.</desc>
    <g id="Page-1" stroke="none" stroke-width="1" fill="none" fill-rule="evenodd">
        <g id="Group" fill-rule="nonzero">
            <path d="M11.576,24.396 C14.414,24.396 16.68,23.725 18.374,22.383 C20.068,21.041 20.915,19.204 20.915,16.872 C20.915,14.804 20.2055,13.2365 18.7865,12.1695 C17.3675,11.1025 15.206,10.25 12.302,9.612 C10.718,9.26 9.6565,8.93 9.1175,8.622 C8.5785,8.314 8.309,7.896 8.309,7.368 C8.309,6.906 8.507,6.532 8.903,6.246 C9.299,5.96 9.871,5.817 10.619,5.817 C12.775,5.817 14.931,6.576 17.087,8.094 L17.087,8.094 L20.288,3.573 C17.736,1.527 14.568,0.504 10.784,0.504 C8.056,0.504 5.8835,1.1915 4.2665,2.5665 C2.6495,3.9415 1.841,5.718 1.841,7.896 C1.841,9.062 2.05,10.063 2.468,10.899 C2.886,11.735 3.5295,12.4225 4.3985,12.9615 C5.2675,13.5005 6.1585,13.9295 7.0715,14.2485 C7.9845,14.5675 9.145,14.892 10.553,15.222 C12.093,15.574 13.127,15.9095 13.655,16.2285 C14.183,16.5475 14.447,16.949 14.447,17.433 C14.447,18.533 13.567,19.083 11.807,19.083 C9.123,19.083 6.626,18.159 4.316,16.311 L4.316,16.311 L0.752,20.568 C3.612,23.12 7.22,24.396 11.576,24.396 Z M29.829,24 L29.829,15.222 L38.046,15.222 L38.046,24 L44.448,24 L44.448,0.9 L38.046,0.9 L38.046,9.546 L29.829,9.546 L29.829,0.9 L23.427,0.9 L23.427,24 L29.829,24 Z M59.566,24.462 C63.108,24.462 66.067,23.296 68.443,20.964 C70.841,18.632 72.04,15.794 72.04,12.45 C72.04,9.084 70.8575,6.2405 68.4925,3.9195 C66.1275,1.5985 63.174,0.438 59.632,0.438 C56.09,0.438 53.1255,1.604 50.7385,3.936 C48.3515,6.268 47.158,9.106 47.158,12.45 C47.158,15.816 48.3405,18.6595 50.7055,20.9805 C53.0705,23.3015 56.024,24.462 59.566,24.462 Z M59.632,18.687 C57.916,18.687 56.5025,18.0765 55.3915,16.8555 C54.2805,15.6345 53.725,14.166 53.725,12.45 C53.725,10.712 54.2695,9.238 55.3585,8.028 C56.4475,6.818 57.85,6.213 59.566,6.213 C61.282,6.213 62.701,6.8235 63.823,8.0445 C64.945,9.2655 65.506,10.734 65.506,12.45 C65.506,14.188 64.9615,15.662 63.8725,16.872 C62.7835,18.082 61.37,18.687 59.632,18.687 Z M85.211,24.165 L89.831,10.866 L94.484,24.165 L100.061,24.165 L107.783,0.9 L101.15,0.9 L97.124,14.265 L92.669,0.834 L87.158,0.834 L82.703,14.265 L78.677,0.9 L71.912,0.9 L79.634,24.165 L85.211,24.165 Z M116.136,24 L116.136,17.004 L118.941,17.004 L123.594,24 L130.986,24 L125.475,15.948 C128.643,14.606 130.227,12.241 130.227,8.853 C130.227,6.565 129.545,4.739 128.181,3.375 C126.531,1.725 124.023,0.9 120.657,0.9 L120.657,0.9 L109.734,0.9 L109.734,24 L116.136,24 Z M120.36,11.988 L116.136,11.988 L116.136,6.444 L120.327,6.444 C121.427,6.444 122.2795,6.675 122.8845,7.137 C123.4895,7.599 123.792,8.281 123.792,9.183 C123.792,10.063 123.4895,10.7505 122.8845,11.2455 C122.2795,11.7405 121.438,11.988 120.36,11.988 L120.36,11.988 Z M144.487,24.462 C148.029,24.462 150.988,23.296 153.364,20.964 C155.762,18.632 156.961,15.794 156.961,12.45 C156.961,9.084 155.7785,6.2405 153.4135,3.9195 C151.0485,1.5985 148.095,0.438 144.553,0.438 C141.011,0.438 138.0465,1.604 135.6595,3.936 C133.2725,6.268 132.079,9.106 132.079,12.45 C132.079,15.816 133.2615,18.6595 135.6265,20.9805 C137.9915,23.3015 140.945,24.462 144.487,24.462 Z M144.553,18.687 C142.837,18.687 141.4235,18.0765 140.3125,16.8555 C139.2015,15.6345 138.646,14.166 138.646,12.45 C138.646,10.712 139.1905,9.238 140.2795,8.028 C141.3685,6.818 142.771,6.213 144.487,6.213 C146.203,6.213 147.622,6.8235 148.744,8.0445 C149.866,9.2655 150.427,10.734 150.427,12.45 C150.427,14.188 149.8825,15.662 148.7935,16.872 C147.7045,18.082 146.291,18.687 144.553,18.687 Z M171.32,24.462 C174.862,24.462 177.821,23.296 180.197,20.964 C182.595,18.632 183.794,15.794 183.794,12.45 C183.794,9.084 182.6115,6.2405 180.2465,3.9195 C177.8815,1.5985 174.928,0.438 171.386,0.438 C167.844,0.438 164.8795,1.604 162.4925,3.936 C160.1055,6.268 158.912,9.106 158.912,12.45 C158.912,15.816 160.0945,18.6595 162.4595,20.9805 C164.8245,23.3015 167.778,24.462 171.32,24.462 Z M171.386,18.687 C169.67,18.687 168.2565,18.0765 167.1455,16.8555 C166.0345,15.6345 165.479,14.166 165.479,12.45 C165.479,10.712 166.0235,9.238 167.1125,8.028 C168.2015,6.818 169.604,6.213 171.32,6.213 C173.036,6.213 174.455,6.8235 175.577,8.0445 C176.699,9.2655 177.26,10.734 177.26,12.45 C177.26,14.188 176.7155,15.662 175.6265,16.872 C174.5375,18.082 173.124,18.687 171.386,18.687 Z M192.807,24 L192.807,10.8 L198.681,19.776 L198.813,19.776 L204.72,10.734 L204.72,24 L211.089,24 L211.089,0.9 L204.324,0.9 L198.813,9.843 L193.302,0.9 L186.537,0.9 L186.537,24 L192.807,24 Z" id="SHOWROOM" fill="#83C150"></path>
            <path d="M226.81,13 L226.81,10.28 L221.386,10.28 L221.386,1.8 L218.282,1.8 L218.282,13 L226.81,13 Z M230.878,13 L230.878,6.6 L233.726,10.952 L233.79,10.952 L236.654,6.568 L236.654,13 L239.742,13 L239.742,1.8 L236.462,1.8 L233.79,6.136 L231.118,1.8 L227.838,1.8 L227.838,13 L230.878,13 Z M244.29,13 L244.29,9.88 L241.122,9.88 L241.122,13 L244.29,13 Z M248.774,13 L248.774,9.608 L250.134,9.608 L252.39,13 L255.974,13 L253.302,9.096 C254.838,8.44533333 255.606,7.29866667 255.606,5.656 C255.606,4.54666667 255.275333,3.66133333 254.614,3 C253.814,2.2 252.598,1.8 250.966,1.8 L250.966,1.8 L245.67,1.8 L245.67,13 L248.774,13 Z M250.822,7.176 L248.774,7.176 L248.774,4.488 L250.806,4.488 C251.339333,4.488 251.752667,4.6 252.046,4.824 C252.339333,5.048 252.486,5.37866667 252.486,5.816 C252.486,6.24266667 252.339333,6.576 252.046,6.816 C251.752667,7.056 251.344667,7.176 250.822,7.176 L250.822,7.176 Z M261.914,13.208 C263.567333,13.208 264.855333,12.7786667 265.778,11.92 C266.700667,11.0613333 267.162,9.75733333 267.162,8.008 L267.162,8.008 L267.162,1.8 L264.01,1.8 L264.01,8.104 C264.01,8.872 263.826,9.448 263.458,9.832 C263.09,10.216 262.586,10.408 261.946,10.408 C261.306,10.408 260.802,10.208 260.434,9.808 C260.066,9.408 259.882,8.81333333 259.882,8.024 L259.882,8.024 L259.882,1.8 L256.73,1.8 L256.73,8.088 C256.73,9.79466667 257.183333,11.0746667 258.09,11.928 C258.996667,12.7813333 260.271333,13.208 261.914,13.208 Z" id="LM.RU" fill="#000000"></path>
        </g>
    </g>
</svg>