<?xml version="1.0" encoding="UTF-8"?>
<svg width="47px" height="43px" viewBox="0 0 47 43" version="1.1" xmlns="http://www.w3.org/2000/svg" xmlns:xlink="http://www.w3.org/1999/xlink">
    <!-- Generator: Sketch 62 (91390) - https://sketch.com -->
    <title>pictograms / assortment</title>
    <desc>Created with Sketch.</desc>
    <g id="Product-page" stroke="none" stroke-width="1" fill="none" fill-rule="evenodd">
        <g id="lifemebel_product-new7.13-delivery" transform="translate(-1094.000000, -1257.000000)" fill="#000000">
            <g id="Group-3" transform="translate(383.000000, 1225.000000)">
                <g id="Group-6-Copy-2" transform="translate(608.000000, 0.000000)">
                    <g id="pictograms-/-assortment" transform="translate(89.000000, 15.000000)">
                        <g id="Group-17" transform="translate(14.000000, 17.000000)">
                            <path d="M46.1287058,0 C46.6093842,0 46.9995,0.392 46.9995,0.875 L46.9995,13.863 C46.9995,14.031 46.9507355,14.196 46.8591777,14.338 C46.2083906,15.3488563 45.1725707,16.11239 43.9230302,16.5412876 C43.9725308,16.6442789 44,16.7588147 44,16.8789553 L43.9995,38 L46,38 C46.6084518,38 47,38.4125447 47,39 L47,42 C47,42.5874553 46.6084518,43 46,43 L1,43 C0.39254957,43 3.56521923e-10,42.5874553 3.56521923e-10,42 L3.56521923e-10,39 C3.56521923e-10,38.4125447 0.39254957,38 1,38 L2.9995,38 L3,16.8789553 C3,16.7591997 3.0272934,16.6450132 3.07670738,16.5409424 C1.82757457,16.1143445 0.791570045,15.3507585 0.139822274,14.338 C0.0482644784,14.196 -0.000499999551,14.031 -0.000499999551,13.863 L-0.000499999551,0.875 C-0.000499999551,0.392 0.389615824,0 0.87029425,0 L46.1287058,0 Z M45,40 L2,40 L2,41 L45,41 L45,40 Z M28.0340989,15.326 C26.9115207,16.344 25.2973169,16.93 23.5268678,16.93 C21.7554235,16.93 20.1432102,16.344 19.0216272,15.327 C17.899049,16.344 16.2858404,16.93 14.5163865,16.93 C12.7459374,16.93 11.1327289,16.344 10.0091555,15.327 C8.88558211,16.351 7.27635434,16.933 5.50092927,16.933 C5.42927534,16.933 5.35861661,16.933 5.28596749,16.931 C5.18997355,16.9284856 5.09452388,16.9242572 4.99966964,16.9183407 L4.9995,38 L9,38 L9,38 L9,26.506928 C9,26.2271038 9.22637661,26 9.50985724,26 L17.4901428,26 C17.7726037,26 18,26.2271038 18,26.506928 L18,38 L41.9995,38 L41.999761,16.9176424 C41.9198541,16.9226341 41.8395273,16.9264252 41.7588114,16.929 C39.9067564,16.983 38.1970141,16.41 37.0177099,15.351 C35.8871702,16.362 34.2202212,16.922 32.495551,16.929 C30.7450057,16.92 29.1457299,16.334 28.0340989,15.326 Z M16.9802855,27.013856 L10.0197145,27.013856 L10,38 L17,38 L17,38 L16.9802855,27.013856 Z M37,20 C37.7202566,20 37.9671453,20.1867414 37.9968627,20.0373483 L37.9995,20.002 L37.9995,31.997 L37.9968627,31.9626517 C37.9671453,31.8132586 37.7202566,32 37,32 L21,32 C20.2797434,32 20.0328547,31.8132586 20.0031373,31.9626517 L19.9995,31.997 L19.9995,20.002 L20.0031373,20.0373483 C20.0328547,20.1867414 20.2797434,20 21,20 L37,20 Z M37,21 L21,21 L21,31 L37,31 L37,21 Z M45.0319529,2.00288376 L37.6685,2.002 L37.6700589,13.4839463 C37.6866197,13.502376 37.702403,13.5217273 37.7173309,13.542 C38.5025385,14.605 40.0221989,15.253 41.7030806,15.18 C43.2237361,15.131 44.3064569,14.541 45.0319529,13.587 L45.0319529,2.00288376 Z M9.5565,2.002 L1.99436714,2.00288376 L1.99436714,13.587 C2.7268295,14.55 3.79516773,15.141 5.33075119,15.181 C7.03153676,15.227 8.53129325,14.586 9.30356335,13.514 C9.37160418,13.4187861 9.45868582,13.3434527 9.55685843,13.2880552 L9.5565,2.002 Z M27.7105,2.002 L19.6385,2.002 L19.6397481,13.4103612 C19.6712545,13.4423296 19.7005256,13.476936 19.7272193,13.514 C20.4656528,14.541 21.9216208,15.18 23.5268678,15.18 C25.1311196,15.18 26.5880828,14.542 27.3285067,13.514 C27.4250871,13.3788488 27.5600316,13.2837536 27.7106039,13.2288725 L27.7105,2.002 Z M18.6385,2.002 L10.5565,2.002 L10.556791,13.3523204 C10.6156878,13.3976231 10.6687476,13.4515111 10.7137524,13.514 C11.4541764,14.542 12.9111395,15.18 14.5163865,15.18 C16.1206383,15.18 17.5766063,14.541 18.316035,13.514 C18.4005554,13.3959286 18.5117644,13.3027975 18.6381908,13.2404397 L18.6385,2.002 Z M36.6685,2.002 L28.7105,2.002 L28.711524,13.478497 C28.7208754,13.4900057 28.7299381,13.50184 28.7386958,13.514 C29.4840957,14.547 30.8912992,15.17 32.5045077,15.179 L32.5393395,15.179 C34.126673,15.179 35.5726891,14.554 36.3190841,13.542 C36.4096806,13.4185922 36.53205,13.3293313 36.6686305,13.2742171 L36.6685,2.002 Z" id="Combined-Shape"></path>
                        </g>
                    </g>
                </g>
            </g>
        </g>
    </g>
</svg>