<?xml version="1.0" encoding="UTF-8"?>
<svg width="14px" height="20px" viewBox="0 0 14 20" version="1.1" xmlns="http://www.w3.org/2000/svg" xmlns:xlink="http://www.w3.org/1999/xlink">
    <!-- Generator: Sketch 58 (84663) - https://sketch.com -->
    <title>Path_101</title>
    <desc>Created with Sketch.</desc>
    <g id="Page-1" stroke="none" stroke-width="1" fill="none" fill-rule="evenodd">
        <g id="sound" fill="#83C150" fill-rule="nonzero" stroke="#83C150" stroke-width="0.6">
            <path d="M12.057,0.485 C11.6624711,0.264148072 11.1815289,0.264148072 10.787,0.485 L10.732,0.54 L5.213,5.673 C5.158,5.673 5.103,5.728 5.047,5.728 L1.57,5.728 C1.23144751,5.72225826 0.905071234,5.85421685 0.665644044,6.09364404 C0.426216853,6.33307123 0.29425826,6.65944751 0.3,6.998 L0.3,12.298 C0.29425826,12.6365525 0.426216853,12.9629288 0.665644044,13.202356 C0.905071234,13.4417831 1.23144751,13.5737417 1.57,13.568 L4.992,13.568 C5.06934294,13.5654723 5.14586362,13.5845159 5.213,13.623 L10.678,18.701 L10.733,18.756 C11.1470708,18.9768 11.6439292,18.9768 12.058,18.756 C12.4534316,18.5278622 12.7035684,18.112227 12.72,17.656 L12.72,1.589 C12.7271239,1.12610182 12.4703557,0.699447702 12.058,0.489 L12.057,0.485 Z M11.891,17.651 C11.8797003,17.806529 11.7984057,17.9485187 11.67,18.037 C11.5360449,18.1257931 11.3619551,18.1257931 11.228,18.037 L5.765,12.959 L5.71,12.904 C5.50541218,12.7974977 5.27863388,12.7406318 5.048,12.738 L1.57,12.738 C1.45219874,12.7399114 1.33866033,12.6939577 1.2553513,12.6106487 C1.17204227,12.5273397 1.12608859,12.4138013 1.12794267,12.296 L1.12794267,6.996 C1.12608859,6.87819874 1.17204227,6.76466033 1.2553513,6.6813513 C1.33866033,6.59804227 1.45219874,6.55208859 1.57,6.554 L4.992,6.554 C5.22263388,6.55136816 5.44941218,6.4945023 5.654,6.388 L5.709,6.333 L11.174,1.257 C11.34,1.147 11.505,1.257 11.616,1.257 C11.7821915,1.27488079 11.9042823,1.42130122 11.892,1.588 L11.891,17.651 Z" id="Path_101"></path>
        </g>
    </g>
</svg>