<svg width="13" height="13" viewBox="0 0 13 13" fill="none" xmlns="http://www.w3.org/2000/svg">
<path d="M10.9688 6.09375C10.8241 6.09375 10.6819 6.10919 10.5454 6.13844C10.3626 4.29162 8.80019 2.84375 6.90625 2.84375C6.682 2.84375 6.5 3.02575 6.5 3.25V9.75C6.5 9.97425 6.682 10.1562 6.90625 10.1562H10.9688C12.0892 10.1562 13 9.24544 13 8.125C13 7.00537 12.0892 6.09375 10.9688 6.09375Z" fill="black"/>
<path d="M5.28125 3.65625C5.057 3.65625 4.875 3.83825 4.875 4.0625V9.75C4.875 9.97425 5.057 10.1562 5.28125 10.1562C5.5055 10.1562 5.6875 9.97425 5.6875 9.75V4.0625C5.6875 3.83825 5.5055 3.65625 5.28125 3.65625Z" fill="black"/>
<path d="M3.65625 5.28125C3.432 5.28125 3.25 5.46325 3.25 5.6875V9.75C3.25 9.97425 3.432 10.1562 3.65625 10.1562C3.8805 10.1562 4.0625 9.97425 4.0625 9.75V5.6875C4.0625 5.46325 3.8805 5.28125 3.65625 5.28125Z" fill="black"/>
<path d="M2.03125 5.28125C1.807 5.28125 1.625 5.46325 1.625 5.6875V9.75C1.625 9.97425 1.807 10.1562 2.03125 10.1562C2.2555 10.1562 2.4375 9.97425 2.4375 9.75V5.6875C2.4375 5.46325 2.2555 5.28125 2.03125 5.28125Z" fill="black"/>
<path d="M0.40625 6.5C0.182 6.5 0 6.682 0 6.90625V9.34375C0 9.568 0.182 9.75 0.40625 9.75C0.6305 9.75 0.8125 9.568 0.8125 9.34375V6.90625C0.8125 6.682 0.6305 6.5 0.40625 6.5Z" fill="black"/>
</svg>
