<?xml version="1.0" encoding="UTF-8"?>
<svg width="6px" height="12px" viewBox="0 0 6 12" version="1.1" xmlns="http://www.w3.org/2000/svg" xmlns:xlink="http://www.w3.org/1999/xlink">
    <!-- Generator: Sketch 58 (84663) - https://sketch.com -->
    <title>Group</title>
    <desc>Created with Sketch.</desc>
    <g id="Page-1" stroke="none" stroke-width="1" fill="none" fill-rule="evenodd">
        <g id="sound" transform="translate(-14.000000, -4.000000)" fill="#83C150" fill-rule="nonzero" stroke="#83C150" stroke-width="0.6">
            <g id="Group" transform="translate(14.532286, 4.445918)">
                <path d="M1.6167138,0.124081646 C1.45115548,0.292548149 1.45115548,0.562615144 1.6167138,0.731081646 C2.86245651,1.97476211 3.5624811,3.66279303 3.5624811,5.42308165 C3.5624811,7.18337026 2.86245651,8.87140118 1.6167138,10.1150816 C1.45115548,10.2835481 1.45115548,10.5536151 1.6167138,10.7220816 C1.69946878,10.7720815 1.79711393,10.7915398 1.8927138,10.7770816 C1.99500645,10.7750848 2.09309018,10.7359935 2.1687138,10.6670816 C3.57321454,9.27240485 4.36308594,7.37491126 4.36308594,5.39558165 C4.36308594,3.41625203 3.57321454,1.51875844 2.1687138,0.124081646 C2.09868408,0.0451647273 1.99822229,-8.8817842e-16 1.8927138,-8.8817842e-16 C1.78720531,-8.8817842e-16 1.68674351,0.0451647273 1.6167138,0.124081646 L1.6167138,0.124081646 Z" id="Path_102"></path>
                <path d="M0.125713816,1.39408167 C-0.0419045979,1.56170008 -0.0419046065,1.83346322 0.125713797,2.00108165 C1.8907657,3.7919403 1.8907657,6.66822299 0.125713797,8.45908165 C-0.0398445169,8.62754815 -0.0398445169,8.89761514 0.125713797,9.06608165 C0.280233115,9.21338332 0.523194479,9.21338332 0.677713797,9.06608165 C1.70508653,8.05746949 2.28841423,6.68118833 2.29873521,5.24150548 C2.30905619,3.80182264 1.74552034,2.4173197 0.732713797,1.39408165 C0.565095372,1.22646324 0.29333223,1.22646325 0.125713816,1.39408167 Z" id="Path_103"></path>
            </g>
        </g>
    </g>
</svg>