<svg width="80" height="80" fill="none" xmlns="http://www.w3.org/2000/svg">
    <path fill-rule="evenodd" clip-rule="evenodd" d="M45.851 29.467c.949-1.478.688-4.127.647-4.472V23.48a.48.48 0 0 0-.48-.479h-.795a.477.477 0 0 0-.374.18l-1.213 1.515a.484.484 0 0 0-.1.232l-.09.651c-.569 2.132-1.708 2.694-2.161 2.836a3.006 3.006 0 0 0-1.997-1.5 3.431 3.431 0 0 1 1.23-1.523.48.48 0 0 0-.54-.792 4.417 4.417 0 0 0-1.696 2.275 2.998 2.998 0 0 0-2.596 2.593h-1.207a.48.48 0 0 0-.476.533c.276 2.427 1.5 4.17 3.413 5H19c-.631 0-1 .363-1 1v4c0 .637.369 1 1 1h4v14h5v-9.028h24V55h5V41h4c.632 0 1-.363 1-1v-4c0-.637-.368-1-1-1H43.08c1.913-.83 3.137-2.573 3.415-5a.48.48 0 0 0-.476-.533h-.168zm-1.488 0c1.333-.311 1.299-3.363 1.179-4.418l-.002-1.09h-.087l-.987 1.233-.082.578c-.675 2.538-2.088 3.313-2.783 3.546a3 3 0 0 1 .023.151h2.739zm-7.587-.405a2.037 2.037 0 0 1 1.88-1.264c.838 0 1.57.516 1.879 1.264h-3.76zm3.472 5.525c-3.744 0-4.882-2.405-5.213-4.162h10.427c-.332 1.757-1.47 4.162-5.214 4.162zM25 41h1v12h-1V41zm30 0h-1v12h1V41zm-27 0h24v4.027H28V41zm32-4H20v2h40v-2z" fill="#000"/>
</svg>
