<svg width="80" height="81" fill="none" xmlns="http://www.w3.org/2000/svg">
    <path fill-rule="evenodd" clip-rule="evenodd" d="M43.143 23.002c.468 0 .847.38.847.848v10.264c0 .469-.379.888-.847.888h-6.732l.744 1.915.023.084L62 37.002c.62 0 1 .41 1 1v3c0 .59-.38 1-1 1l-1-.001v15.154a.847.847 0 0 1-.848.847H46.034c-.583.319-.996-.379-1.034-1.319V42.002H22v16h-2V42.001l-1 .001c-.62 0-1-.41-1-1v-3c0-.59.38-1 1-1h10.63l.025-.085.741-1.915h-6.544c-.468 0-.848-.42-.848-.888V23.85c0-.468.38-.848.848-.848h19.291zM59.056 47.99H46.987v8.038h12.07l-.001-8.038zM54 50.017v.97h-2v-.97h2zm5.056-8.015H46.988l-.001 5.019h12.069v-5.019zM54 44.017v.97h-2v-.97h2zm7-5.015H20v1h41v-1zm-26.335-4h-2.52l-.494 1.999h3.508l-.494-1.999zm7.335-10H24.994v7.999H42v-7.999z" fill="#000"/>
</svg>
