<?xml version="1.0" encoding="UTF-8"?>
<svg width="41px" height="48px" viewBox="0 0 41 48" version="1.1" xmlns="http://www.w3.org/2000/svg" xmlns:xlink="http://www.w3.org/1999/xlink">
    <!-- Generator: Sketch 62 (91390) - https://sketch.com -->
    <title>pictograms / assortment copy</title>
    <desc>Created with Sketch.</desc>
    <g id="Product-page" stroke="none" stroke-width="1" fill="none" fill-rule="evenodd">
        <g id="lifemebel_product-new7.13-delivery" transform="translate(-756.000000, -1255.000000)" fill="#000000">
            <g id="Group-3" transform="translate(383.000000, 1225.000000)">
                <g id="Group-6-Copy" transform="translate(341.000000, 0.000000)">
                    <g id="pictograms-/-dimensions" transform="translate(15.000000, 15.000000)">
                        <g id="Group-12" transform="translate(17.000000, 15.000000)">
                            <path d="M20.9545491,0.11684524 L40.5537574,11.4319885 C40.8814965,11.6213036 41.0433304,11.9867023 40.9893858,12.3388692 C40.9965106,12.3836534 40.9996,12.4284376 40.9996,12.4742397 L40.9996,35.3752672 C40.9996,35.693846 40.8295875,35.9879969 40.5537574,36.1467774 L20.9545491,47.4619206 C20.8201964,47.540293 20.6654872,47.581006 20.5097603,47.581006 C20.3540333,47.581006 20.1799855,47.540293 20.0446149,47.4619206 L0.445406669,36.1467774 C0.169576515,35.9879969 -0.000399999997,35.693846 -0.000399999997,35.3752672 L-0.000399999997,12.2034987 C-0.000399999997,11.8859377 0.169576515,11.5917868 0.445406669,11.4319885 L20.0446149,0.11684524 C20.3143381,-0.0388817468 20.6848259,-0.0388817468 20.9545491,0.11684524 Z M39.218373,14.0162422 L21.3596,24.32605 L21.3596,45.17105 L39.218373,34.8612664 L39.218373,14.0162422 Z M1.78079103,14.0162422 L1.78079103,34.8612664 L19.5786,45.13705 L19.5786,24.29105 L13.9626,21.04905 L13.9633234,26.037246 C13.9633234,26.2184186 13.867648,26.3853416 13.711921,26.4769457 C13.6325308,26.5227478 13.5429623,26.5461577 13.4544117,26.5461577 C13.3689145,26.5461577 13.2823995,26.5247834 13.2050449,26.481017 L7.8329728,23.4611349 C7.6721567,23.3705486 7.57342782,23.2005721 7.57342782,23.0173639 L7.5726,17.36005 L1.78079103,14.0162422 Z M8.5906,17.94705 L8.59125127,22.7191416 L12.9455,25.1680248 L12.9446,20.46105 L8.5906,17.94705 Z M32.3196,8.73505 L14.8586,19.51005 L20.499582,22.7664704 L38.5618769,12.3388692 L32.3196,8.73505 Z M27.0146,5.67205 L9.5546,16.44805 L13.8586,18.93205 L31.3186,8.15705 L27.0146,5.67205 Z M20.499582,1.91126797 L2.43728715,12.3388692 L8.5546,15.87005 L26.0136,5.09405 L20.499582,1.91126797 Z" id="Combined-Shape"></path>
                        </g>
                    </g>
                </g>
            </g>
        </g>
    </g>
</svg>