<?xml version="1.0" encoding="UTF-8"?>
<svg width="72px" height="80px" viewBox="0 0 72 80" version="1.1" xmlns="http://www.w3.org/2000/svg" xmlns:xlink="http://www.w3.org/1999/xlink">
    <!-- Generator: Sketch 52.2 (67145) - http://www.bohemiancoding.com/sketch -->
    <title>Shape</title>
    <desc>Created with Sketch.</desc>
    <g id="Page-1" stroke="none" stroke-width="1" fill="none" fill-rule="evenodd">
        <g id="warranty" transform="translate(-24.000000, -20.000000)" fill="#A1A1A1">
            <path d="M95.9998,34.0261 C95.9998,34.0261 72.2767,24.7749 61.9999,20.0438 C60.3746,19.9854 59.7601,19.9854 57.9999,20.0438 C47.7821,24.749 24,34.0261 24,34.0261 C24,34.0261 24.0002,48.8024 24,55.9984 C24.1387,65.2935 27.641,76.5791 34,83.9631 C40.3008,91.6804 48.2582,97.0183 57.9999,99.9429 C59.432,100.019 60.5976,100.019 61.9999,99.9429 C70.986,97.2396 79.162,92.1992 85.9998,83.9631 C92.1675,77.3518 96.032,65.4578 95.9998,55.9984 C95.9856,52.2702 95.9998,34.0261 95.9998,34.0261 Z M93.9998,56.006 C93.9927,54.1366 93.9927,48.6382 93.9945,43.6135 C93.9954,41.0997 93.9967,38.7025 93.9978,36.9337 L93.9988,35.3906 C93.3449,35.134 92.4609,34.7865 91.3982,34.367 C89.0107,33.4246 85.7198,32.1187 82.1069,30.6645 C75.0636,27.8295 66.7488,24.4123 61.5304,22.0287 C60.3584,21.9901 59.747,21.9904 58.4671,22.0298 C53.2758,24.4012 44.9634,27.8175 37.9151,30.6547 C34.2985,32.1105 31.0022,33.4189 28.61,34.3633 C27.5431,34.7846 26.6558,35.1334 26,35.3908 L26,36.4473 L26.0001,42.3138 L26,55.9833 C26.1366,64.9004 29.5217,75.698 35.5155,82.658 L35.5326,82.6779 L35.5492,82.6982 C41.5469,90.0442 49.0894,95.1332 58.3452,97.9578 C59.518,98.014 60.5061,98.014 61.653,97.9582 C70.1893,95.3467 77.9439,90.5353 84.461,82.6855 L84.498,82.6411 L84.5374,82.5988 C90.2855,76.4373 94.0305,65.0735 93.9998,56.006 Z M61.5555,90.6226 C60.4648,90.6809 59.5582,90.6809 58.4444,90.6226 C50.8675,88.3804 44.6784,84.2879 39.7778,78.3714 C34.8319,72.7103 32.1079,64.058 32,56.9318 C32.0002,51.4149 32,40.0864 32,40.0864 C32,40.0864 50.4972,32.9739 58.4444,29.3666 C59.8134,29.3218 60.2914,29.3218 61.5555,29.3666 C69.5486,32.9938 87.9998,40.0864 87.9998,40.0864 C87.9998,40.0864 87.9888,54.0735 87.9998,56.9318 C88.0249,64.184 85.0192,73.3028 80.2221,78.3714 C74.9038,84.6857 68.5447,88.5501 61.5555,90.6226 Z M85.9999,56.9387 C85.9943,55.5034 85.9943,51.2874 85.9957,47.4365 C85.9964,45.5092 85.9974,43.6713 85.9983,42.3152 L85.9989,41.4576 C85.5298,41.276 84.945,41.0493 84.2668,40.7854 C82.4091,40.0626 79.8487,39.061 77.0375,37.9457 C71.5951,35.7864 65.1666,33.1826 61.093,31.3521 C61.0656,31.3513 61.0386,31.3505 61.0119,31.3497 L61.0119,88.6459 C61.0785,88.6432 61.1456,88.6403 61.2134,88.6372 C67.7582,86.6542 73.6968,83.0142 78.6924,77.083 L78.7297,77.0387 L78.7695,76.9966 C83.142,72.3766 86.0236,63.7913 85.9999,56.9387 Z M59.0119,31.35 L59.0119,88.6465 C58.9371,88.6436 58.8615,88.6404 58.7849,88.6369 C51.6882,86.4922 45.9134,82.6436 41.318,77.0956 L41.3012,77.0753 L41.2839,77.0555 C36.7082,71.8181 34.1057,63.6575 34,56.9164 L34.0001,46.4402 L34,41.9426 L34,41.4579 C34.4708,41.2756 35.0581,41.0477 35.7397,40.7825 C37.6009,40.0582 40.1656,39.0548 42.9796,37.9382 C48.4254,35.7774 54.8517,33.1744 58.9047,31.3531 C58.9412,31.3521 58.9769,31.351 59.0119,31.35 Z" id="Shape"></path>
        </g>
    </g>
</svg>