<?xml version="1.0" encoding="UTF-8"?>
<svg width="40px" height="40px" viewBox="0 0 40 40" version="1.1" xmlns="http://www.w3.org/2000/svg" xmlns:xlink="http://www.w3.org/1999/xlink">
    <title>Group</title>
    <g id="Page-1" stroke="none" stroke-width="1" fill="none" fill-rule="evenodd">
        <g id="Group">
            <rect id="Rectangle" x="0" y="0" width="40" height="40"></rect>
            <path d="M25.793,9.914 L16.293,19.414 C16.1647871,19.5422819 16.0738762,19.703018 16.03,19.879 L15.03,23.879 C14.9450512,24.2197463 15.0450654,24.5800802 15.2934865,24.8282965 C15.5419076,25.0765128 15.9023239,25.1762298 16.243,25.091 L20.243,24.091 C20.4186242,24.0469565 20.5789953,23.9560566 20.707,23.828 L30.207,14.328 C30.9954852,13.5395149 31.3034237,12.3902727 31.0148181,11.3131819 C30.7262126,10.2360911 29.8849089,9.39478744 28.8078181,9.10618185 C27.7307273,8.81757626 26.5814851,9.1255148 25.793,9.914 L25.793,9.914 Z M28.88,11.426 C29.229,11.866 29.2,12.508 28.793,12.914 L19.488,22.218 L17.374,22.747 L17.903,20.632 L27.207,11.328 C27.4172553,11.1175678 27.7025289,10.9993333 28,10.9993333 C28.2974711,10.9993333 28.5827447,11.1175678 28.793,11.328 L28.88,11.426 L28.88,11.426 Z M21,12 C21,11.4477153 20.5522847,11 20,11 L13.778,11 L13.608,11.005 C12.1424424,11.0948533 11,12.3096905 11,13.778 L11,26.222 L11.005,26.392 C11.0948533,27.8575576 12.3096905,29 13.778,29 L26.222,29 L26.392,28.995 C27.8575576,28.9051467 29,27.6903095 29,26.222 L29,20 L28.993,19.883 C28.9305092,19.3576096 28.4695792,18.9718206 27.9413948,19.0028279 C27.4132105,19.0338352 27.0005869,19.4709066 27,20 L27,26.222 L26.993,26.328 C26.9400774,26.7128113 26.6114333,26.999628 26.223,27 L13.777,27 L13.671,26.993 C13.2861887,26.9400774 12.999372,26.6114333 12.999,26.223 L12.999,13.777 L13.006,13.671 C13.0589226,13.2861887 13.3875667,12.999372 13.776,12.999 L20,12.999 L20.117,12.992 C20.6201143,12.9327289 20.9994265,12.5065932 21,12 Z" id="Shape" fill="#FFFFFF"></path>
        </g>
    </g>
</svg>